<svg width="696" height="255" viewBox="0 0 696 255" fill="none" xmlns="http://www.w3.org/2000/svg">
<path d="M323.096 246.246V246.064C323.096 244.793 322.106 243.703 320.803 243.604C320.753 243.587 320.687 243.587 320.621 243.587C319.334 243.587 318.245 244.578 318.146 245.882C318.047 247.253 319.07 248.442 320.44 248.541H320.621C321.892 248.541 322.997 247.55 323.096 246.246ZM378.321 245.849C378.222 244.545 377.133 243.57 375.846 243.57H375.664C374.295 243.67 373.272 244.859 373.387 246.229C373.486 247.534 374.575 248.508 375.862 248.508H376.027C377.397 248.409 378.42 247.22 378.321 245.849ZM309.335 244.743C309.335 243.521 308.395 242.448 307.141 242.315C307.042 242.299 306.959 242.299 306.86 242.299C305.623 242.299 304.551 243.224 304.402 244.495C304.254 245.849 305.227 247.072 306.58 247.237C306.679 247.237 306.761 247.237 306.86 247.237C308.114 247.237 309.187 246.295 309.319 245.024C309.319 244.925 309.319 244.826 309.319 244.726L309.335 244.743ZM392.081 244.726C392.081 244.627 392.081 244.545 392.065 244.446C391.916 243.174 390.844 242.249 389.606 242.249C389.507 242.249 389.408 242.249 389.326 242.266C387.973 242.414 386.983 243.653 387.148 245.007C387.28 246.262 388.369 247.204 389.606 247.204C389.705 247.204 389.788 247.204 389.887 247.187C391.141 247.055 392.081 245.965 392.081 244.726ZM295.641 242.943C295.641 241.737 294.75 240.68 293.545 240.499C293.413 240.482 293.281 240.466 293.166 240.466C291.961 240.466 290.905 241.358 290.724 242.58C290.509 243.917 291.45 245.189 292.786 245.404C292.902 245.42 293.034 245.437 293.149 245.437C294.354 245.437 295.426 244.561 295.608 243.323C295.608 243.191 295.641 243.059 295.641 242.943ZM405.776 242.91C405.776 242.778 405.759 242.646 405.743 242.514C405.561 241.292 404.505 240.416 403.301 240.416C403.169 240.416 403.053 240.416 402.921 240.416C401.568 240.631 400.645 241.903 400.859 243.24C401.04 244.462 402.096 245.354 403.301 245.354C403.416 245.354 403.548 245.338 403.68 245.321C404.901 245.139 405.776 244.082 405.776 242.893V242.91ZM282.029 240.581C282.029 239.425 281.187 238.385 280.016 238.17C279.851 238.137 279.702 238.121 279.537 238.121C278.382 238.121 277.343 238.946 277.112 240.135C276.864 241.473 277.739 242.778 279.075 243.026C279.24 243.059 279.405 243.075 279.554 243.075C280.725 243.075 281.748 242.249 281.979 241.06C282.012 240.895 282.029 240.747 282.029 240.581ZM419.388 240.532C419.388 240.383 419.372 240.218 419.339 240.053C419.108 238.88 418.085 238.055 416.913 238.055C416.765 238.055 416.6 238.071 416.451 238.088C415.098 238.352 414.224 239.657 414.488 240.994C414.719 242.183 415.742 243.009 416.913 243.009C417.062 243.009 417.227 243.009 417.392 242.959C418.563 242.728 419.388 241.704 419.388 240.532ZM268.499 237.724C268.499 236.601 267.723 235.578 266.585 235.313C266.403 235.28 266.222 235.247 266.024 235.247C264.902 235.247 263.879 236.023 263.615 237.179C263.301 238.501 264.143 239.838 265.463 240.152C265.644 240.185 265.826 240.218 266.007 240.218C267.146 240.218 268.169 239.442 268.433 238.286C268.482 238.104 268.499 237.906 268.499 237.724ZM432.918 237.625C432.918 237.444 432.885 237.262 432.852 237.08C432.571 235.941 431.548 235.165 430.426 235.165C430.245 235.165 430.063 235.181 429.865 235.231C428.529 235.544 427.704 236.882 428.017 238.203C428.281 239.343 429.304 240.119 430.426 240.119C430.608 240.119 430.806 240.119 430.987 240.053C432.142 239.789 432.918 238.765 432.918 237.625ZM255.068 234.322C255.068 233.232 254.359 232.242 253.253 231.944C253.039 231.878 252.808 231.862 252.593 231.862C251.504 231.862 250.514 232.588 250.217 233.678C249.854 235 250.63 236.37 251.95 236.717C252.164 236.783 252.379 236.8 252.61 236.8C253.682 236.8 254.689 236.089 254.986 234.983C255.052 234.768 255.068 234.537 255.068 234.322ZM446.299 234.256C446.299 234.025 446.283 233.811 446.217 233.596C445.92 232.489 444.913 231.763 443.824 231.763C443.61 231.763 443.395 231.796 443.164 231.845H443.181C442.075 232.159 441.366 233.15 441.366 234.24C441.366 234.455 441.382 234.686 441.448 234.9C441.729 236.007 442.735 236.717 443.824 236.717C444.039 236.717 444.27 236.717 444.484 236.634C445.59 236.337 446.299 235.33 446.299 234.256ZM241.786 230.425C241.786 229.368 241.109 228.394 240.053 228.063C239.806 227.981 239.558 227.948 239.311 227.948C238.255 227.948 237.281 228.625 236.951 229.682C236.539 230.987 237.265 232.374 238.568 232.787C238.816 232.869 239.063 232.902 239.311 232.902C240.367 232.902 241.34 232.225 241.67 231.168C241.753 230.92 241.786 230.673 241.786 230.425ZM459.532 230.326C459.532 230.078 459.499 229.831 459.416 229.583C459.07 228.526 458.096 227.849 457.057 227.849C456.809 227.849 456.545 227.898 456.298 227.964C454.994 228.377 454.268 229.781 454.697 231.086C455.011 232.143 456.001 232.82 457.057 232.82C457.304 232.82 457.552 232.787 457.799 232.704C458.855 232.374 459.532 231.383 459.532 230.326ZM228.669 226.016C228.669 224.992 228.025 224.034 227.019 223.671C226.755 223.572 226.474 223.522 226.194 223.522C225.171 223.522 224.214 224.15 223.867 225.157C223.405 226.445 224.065 227.865 225.352 228.328C225.633 228.427 225.913 228.476 226.194 228.476C227.2 228.476 228.157 227.849 228.52 226.841C228.619 226.561 228.669 226.28 228.669 226.016ZM472.6 225.917C472.6 225.652 472.55 225.372 472.451 225.091C472.088 224.067 471.131 223.439 470.108 223.439C469.844 223.439 469.564 223.489 469.283 223.588C467.996 224.05 467.32 225.471 467.782 226.759C468.145 227.766 469.102 228.394 470.108 228.394C470.389 228.394 470.669 228.344 470.95 228.245C471.956 227.882 472.6 226.941 472.6 225.917ZM215.733 221.078C215.733 220.104 215.139 219.179 214.182 218.782H214.165C213.868 218.65 213.555 218.601 213.258 218.601C212.268 218.601 211.344 219.179 210.948 220.153C210.437 221.425 211.064 222.861 212.334 223.373C212.631 223.489 212.944 223.555 213.258 223.555C214.231 223.555 215.155 222.977 215.551 222.003C215.667 221.705 215.733 221.392 215.733 221.078ZM485.486 221.012C485.486 220.698 485.42 220.384 485.304 220.087C484.908 219.113 483.984 218.535 483.011 218.535C482.697 218.535 482.384 218.584 482.087 218.7C480.816 219.212 480.206 220.665 480.717 221.937C481.113 222.911 482.021 223.489 483.011 223.489C483.308 223.489 483.638 223.423 483.935 223.307C484.908 222.911 485.486 221.986 485.486 221.012ZM202.979 215.645C202.979 214.703 202.434 213.795 201.527 213.399C201.197 213.25 200.85 213.184 200.52 213.184C199.563 213.184 198.672 213.729 198.26 214.637C197.699 215.892 198.26 217.362 199.497 217.907C199.827 218.056 200.174 218.122 200.52 218.122C201.461 218.122 202.368 217.593 202.764 216.669C202.913 216.338 202.979 215.991 202.979 215.645ZM498.174 215.595C498.174 215.265 498.108 214.918 497.959 214.588C497.547 213.663 496.639 213.118 495.699 213.118C495.353 213.118 495.023 213.184 494.693 213.333C493.439 213.894 492.878 215.364 493.439 216.603C493.851 217.527 494.759 218.072 495.716 218.072C496.046 218.072 496.392 218.006 496.722 217.858C497.629 217.445 498.174 216.536 498.174 215.595ZM190.472 209.733C190.472 208.824 189.96 207.949 189.102 207.52C188.74 207.354 188.377 207.272 187.997 207.272C187.09 207.272 186.215 207.767 185.786 208.643C185.176 209.865 185.671 211.367 186.892 211.962C187.255 212.144 187.634 212.226 187.997 212.226C188.921 212.226 189.779 211.714 190.208 210.839C190.389 210.476 190.472 210.112 190.472 209.733ZM510.664 209.7C510.664 209.336 510.582 208.956 510.4 208.61C509.971 207.734 509.097 207.222 508.173 207.222C507.81 207.222 507.43 207.305 507.084 207.487C505.863 208.098 505.368 209.584 505.962 210.806C506.391 211.681 507.282 212.177 508.189 212.177C508.552 212.177 508.932 212.094 509.278 211.929C510.153 211.5 510.664 210.608 510.664 209.7ZM178.196 203.375C178.196 202.483 177.734 201.641 176.909 201.178C176.53 200.98 176.117 200.881 175.721 200.881C174.847 200.881 173.989 201.36 173.543 202.169C172.883 203.375 173.329 204.894 174.533 205.538C174.913 205.753 175.325 205.852 175.721 205.852C176.596 205.852 177.454 205.373 177.899 204.547C178.097 204.167 178.196 203.771 178.196 203.375ZM522.907 203.325C522.907 202.929 522.808 202.516 522.61 202.136C522.164 201.327 521.306 200.848 520.432 200.848C520.036 200.848 519.624 200.947 519.244 201.162C518.04 201.806 517.611 203.308 518.254 204.514C518.7 205.34 519.558 205.819 520.432 205.819C520.828 205.819 521.24 205.72 521.62 205.505C522.445 205.059 522.907 204.2 522.907 203.325ZM166.168 196.521C166.168 195.679 165.739 194.853 164.964 194.391C164.568 194.143 164.122 194.044 163.693 194.044C162.852 194.044 162.027 194.473 161.565 195.249C160.872 196.422 161.251 197.941 162.439 198.651C162.835 198.883 163.264 198.998 163.693 198.998C164.535 198.998 165.359 198.569 165.821 197.776C166.069 197.38 166.168 196.95 166.168 196.521ZM534.902 196.488C534.902 196.059 534.787 195.629 534.556 195.233C534.094 194.44 533.269 194.011 532.427 194.011C531.998 194.011 531.553 194.126 531.157 194.358C529.985 195.068 529.606 196.587 530.299 197.76C530.761 198.536 531.586 198.965 532.427 198.965C532.856 198.965 533.302 198.866 533.698 198.618C534.473 198.156 534.902 197.33 534.902 196.488ZM580.045 164.698C580.045 164.136 579.864 163.591 579.484 163.129C578.989 162.534 578.28 162.221 577.57 162.221C577.009 162.221 576.465 162.419 576.003 162.782C574.947 163.657 574.798 165.226 575.656 166.283C576.151 166.878 576.861 167.192 577.57 167.192C578.131 167.192 578.692 166.993 579.154 166.614C579.748 166.118 580.045 165.408 580.045 164.698ZM120.975 164.698C120.975 163.971 120.678 163.261 120.068 162.782C119.606 162.402 119.061 162.221 118.5 162.221C117.791 162.221 117.081 162.518 116.587 163.112C115.729 164.169 115.877 165.738 116.917 166.597C117.379 166.977 117.956 167.175 118.5 167.175C119.226 167.175 119.919 166.861 120.414 166.267C120.794 165.804 120.975 165.243 120.975 164.698ZM590.539 155.714C590.539 155.12 590.341 154.542 589.912 154.063C589.417 153.501 588.741 153.22 588.064 153.22C587.47 153.22 586.893 153.435 586.414 153.848C585.391 154.756 585.309 156.325 586.216 157.349C586.711 157.894 587.388 158.175 588.064 158.175C588.658 158.175 589.236 157.976 589.714 157.564C590.259 157.068 590.539 156.391 590.539 155.714ZM110.482 155.698C110.482 155.004 110.201 154.327 109.64 153.831C109.162 153.419 108.584 153.204 108.007 153.204C107.33 153.204 106.637 153.485 106.159 154.046C105.251 155.053 105.334 156.622 106.357 157.531C106.835 157.96 107.413 158.175 108.007 158.175C108.683 158.175 109.36 157.877 109.855 157.332C110.267 156.87 110.482 156.276 110.482 155.698ZM600.686 146.317C600.686 145.706 600.455 145.079 599.993 144.6C599.515 144.088 598.855 143.84 598.211 143.84C597.568 143.84 596.974 144.071 596.495 144.534C595.505 145.475 595.472 147.044 596.429 148.035C596.908 148.547 597.551 148.794 598.195 148.794C598.838 148.794 599.449 148.563 599.927 148.101C600.422 147.622 600.686 146.978 600.686 146.317ZM100.334 146.284C100.334 145.64 100.087 144.996 99.5754 144.501C99.0969 144.038 98.4699 143.807 97.8594 143.807C97.2159 143.807 96.5559 144.071 96.0774 144.567C95.1205 145.558 95.1535 147.11 96.1434 148.068C97.1334 149.026 98.7009 148.993 99.6414 148.002C100.103 147.523 100.334 146.912 100.334 146.284ZM610.471 136.557C610.471 135.897 610.207 135.253 609.712 134.757C609.233 134.295 608.606 134.064 607.996 134.064C607.336 134.064 606.692 134.311 606.214 134.823C605.257 135.814 605.29 137.383 606.28 138.324C606.758 138.787 607.369 139.018 607.979 139.018C608.639 139.018 609.283 138.77 609.778 138.258C610.24 137.779 610.471 137.168 610.471 136.557ZM90.5501 136.524C90.5501 135.897 90.3191 135.286 89.8571 134.807C89.3786 134.295 88.7186 134.047 88.0751 134.047C87.4646 134.047 86.8376 134.278 86.3592 134.741C85.3692 135.682 85.3527 137.251 86.2931 138.242C86.7881 138.754 87.4316 139.001 88.0751 139.001C88.7186 139.001 89.3126 138.77 89.7911 138.308C90.3026 137.812 90.5501 137.168 90.5501 136.524ZM619.05 124.551C618.572 124.139 617.978 123.924 617.384 123.924C616.707 123.924 616.031 124.205 615.553 124.75C614.629 125.773 614.728 127.342 615.751 128.251C616.213 128.68 616.807 128.878 617.401 128.878C618.077 128.878 618.737 128.597 619.232 128.052C620.139 127.029 620.057 125.476 619.05 124.551ZM81.1453 126.384C81.1453 125.806 80.9473 125.212 80.5183 124.733C80.0398 124.188 79.3633 123.907 78.6703 123.907C78.0928 123.907 77.4988 124.122 77.0203 124.535C76.0139 125.443 75.9149 127.012 76.8388 128.036C77.3173 128.581 77.9938 128.862 78.6703 128.862C79.2643 128.862 79.8418 128.663 80.3203 128.234C80.8648 127.755 81.1453 127.078 81.1453 126.384ZM628.884 115.914C628.884 115.204 628.571 114.494 627.977 113.999C627.515 113.619 626.97 113.437 626.409 113.437C625.7 113.437 624.99 113.734 624.495 114.329C623.621 115.386 623.769 116.955 624.825 117.814C625.287 118.193 625.848 118.392 626.409 118.392C627.119 118.392 627.828 118.078 628.307 117.5C628.686 117.037 628.884 116.476 628.884 115.914ZM72.153 115.898C72.153 115.336 71.9549 114.775 71.5755 114.312C71.0805 113.734 70.371 113.421 69.6615 113.421C69.117 113.421 68.556 113.602 68.094 113.999C67.038 114.857 66.8896 116.426 67.764 117.483C68.259 118.078 68.952 118.375 69.6615 118.375C70.2225 118.375 70.7835 118.193 71.2455 117.814C71.8395 117.318 72.153 116.608 72.153 115.898ZM636.524 103.116C636.078 102.769 635.534 102.604 635.022 102.604C634.28 102.604 633.537 102.951 633.042 103.578C632.217 104.668 632.432 106.22 633.521 107.046C633.966 107.393 634.494 107.558 635.006 107.558C635.748 107.558 636.474 107.228 636.986 106.6C637.811 105.51 637.596 103.958 636.524 103.116ZM63.5401 105.081C63.5401 104.552 63.3751 104.024 63.0286 103.578C62.5502 102.934 61.8077 102.604 61.0652 102.604C60.5372 102.604 60.0092 102.769 59.5637 103.116C58.4747 103.941 58.2767 105.494 59.1017 106.584C59.5802 107.228 60.3227 107.558 61.0652 107.558C61.5932 107.558 62.1212 107.393 62.5667 107.046C63.2101 106.567 63.5401 105.824 63.5401 105.081ZM55.3563 93.9337C55.3563 93.4383 55.2243 92.9429 54.9108 92.5135C54.4158 91.8364 53.6568 91.4566 52.8813 91.4566C52.3864 91.4566 51.8914 91.6052 51.4624 91.919C50.3404 92.7117 50.0764 94.2475 50.8684 95.3705C51.3469 96.0641 52.1059 96.4274 52.8813 96.4274C53.3763 96.4274 53.8878 96.2788 54.3168 95.965C54.9933 95.4861 55.3563 94.7099 55.3563 93.9337ZM644.641 91.919C644.196 91.6052 643.701 91.4566 643.206 91.4566C642.43 91.4566 641.671 91.8199 641.193 92.5135C640.401 93.62 640.665 95.1723 641.787 95.965C642.216 96.2623 642.711 96.4109 643.206 96.4109C643.981 96.4109 644.74 96.0476 645.219 95.3705H645.235C646.011 94.2475 645.747 92.6952 644.641 91.919ZM47.6015 82.5058C47.6015 82.0434 47.4695 81.5645 47.2055 81.1516C46.727 80.425 45.935 80.0121 45.1265 80.0121C44.6645 80.0121 44.2025 80.1442 43.79 80.425C42.6351 81.1681 42.3051 82.704 43.0641 83.8435C43.5425 84.5701 44.318 84.9664 45.1265 84.9664C45.5885 84.9664 46.067 84.8343 46.4795 84.5701C47.2055 84.0912 47.6015 83.315 47.6015 82.5058ZM653.436 82.4728C653.436 81.6636 653.04 80.8874 652.314 80.4085C651.901 80.1277 651.439 79.9956 650.977 79.9956C650.152 79.9956 649.36 80.392 648.898 81.1351C648.139 82.2746 648.469 83.8104 649.624 84.5536C650.037 84.8343 650.515 84.9664 650.977 84.9664C651.769 84.9664 652.561 84.5536 653.04 83.827C653.304 83.4141 653.436 82.9352 653.436 82.4728ZM40.2921 70.7806C40.2921 70.3512 40.1931 69.9053 39.9456 69.509C39.4836 68.7328 38.6587 68.3034 37.8172 68.3034C37.3882 68.3034 36.9592 68.4025 36.5632 68.6502C35.3752 69.3438 34.9957 70.8632 35.7052 72.0357C36.1672 72.8119 36.9922 73.2578 37.8337 73.2578C38.2627 73.2578 38.7082 73.1422 39.1041 72.8944C39.8631 72.432 40.2921 71.6228 40.2921 70.7806ZM660.762 70.7476C660.762 69.8888 660.333 69.0631 659.557 68.6007C659.161 68.3695 658.716 68.2539 658.287 68.2539C657.445 68.2539 656.62 68.6833 656.158 69.4594C655.465 70.632 655.845 72.1513 657.016 72.8614C657.412 73.0926 657.841 73.2082 658.27 73.2082C659.128 73.2082 659.953 72.7788 660.415 72.0027C660.646 71.6063 660.762 71.1769 660.762 70.7476ZM33.4613 58.7746C33.4613 58.3783 33.3623 57.9654 33.1478 57.5856C32.7023 56.7599 31.8443 56.2975 30.9698 56.2975C30.5738 56.2975 30.1613 56.3966 29.7818 56.6113C28.5774 57.2553 28.1484 58.7581 28.8084 59.9637C29.2538 60.7894 30.0953 61.2683 30.9863 61.2683C31.3823 61.2683 31.7783 61.1692 32.1578 60.9545C32.9828 60.5087 33.4613 59.6499 33.4613 58.7746ZM667.625 58.7251C667.625 57.8498 667.163 56.9911 666.338 56.5452C665.959 56.3305 665.546 56.2314 665.151 56.2314C664.276 56.2314 663.435 56.6938 662.973 57.5196C662.329 58.7251 662.758 60.2279 663.962 60.8885C664.342 61.1032 664.755 61.2023 665.151 61.2023C666.025 61.2023 666.883 60.7233 667.328 59.8976C667.526 59.5343 667.625 59.1214 667.625 58.7251ZM27.0594 46.5375C27.0594 46.1577 26.9769 45.7943 26.7954 45.431C26.3664 44.5558 25.4919 44.0438 24.5844 44.0438C24.2215 44.0438 23.842 44.1429 23.479 44.3081C22.258 44.9191 21.763 46.4054 22.3735 47.6274C22.8025 48.5027 23.6935 49.0147 24.6009 49.0147C24.9639 49.0147 25.3434 48.9321 25.6899 48.7504C26.5479 48.321 27.0594 47.4458 27.0594 46.5375ZM674.027 46.4384C674.027 45.5301 673.516 44.6549 672.641 44.2255C672.295 44.0438 671.915 43.9613 671.552 43.9613C670.645 43.9613 669.77 44.4567 669.325 45.3319C668.731 46.554 669.226 48.0403 670.447 48.6513C670.81 48.833 671.173 48.9156 671.552 48.9156C672.46 48.9156 673.334 48.4036 673.763 47.5449C673.945 47.1816 674.027 46.8017 674.027 46.4384ZM21.1525 34.0361C21.1525 33.7058 21.0865 33.359 20.938 33.0287C20.5255 32.1204 19.6181 31.5755 18.6776 31.5755C18.3311 31.5755 17.9846 31.6415 17.6546 31.7902C16.4171 32.3516 15.8561 33.8214 16.4171 35.06C16.8296 35.9848 17.7206 36.5298 18.6611 36.5298C19.0076 36.5298 19.3541 36.4472 19.6841 36.2986C20.608 35.9022 21.1525 34.9939 21.1525 34.0361ZM679.951 33.937C679.951 32.9792 679.406 32.0709 678.482 31.658C678.152 31.5094 677.806 31.4434 677.476 31.4434C676.535 31.4434 675.628 31.9883 675.215 32.8966C675.067 33.2434 675.001 33.5902 675.001 33.9205C675.001 34.8618 675.545 35.7701 676.453 36.183C676.783 36.3316 677.129 36.3977 677.476 36.3977C678.416 36.3977 679.324 35.8527 679.736 34.9444C679.885 34.6141 679.951 34.2673 679.951 33.937Z" fill="black"/>
<path d="M8.24984 1.61841C3.67944 1.61841 0 5.31763 0 9.8756C0 14.4336 3.67944 18.1328 8.24984 18.1328C12.8202 18.1328 16.4997 14.4336 16.4997 9.8756C16.4997 5.31763 12.8037 1.61841 8.24984 1.61841ZM8.24984 13.8721C6.03889 13.8721 4.24041 12.072 4.24041 9.8756C4.24041 7.67918 6.03889 5.87912 8.24984 5.87912C10.4608 5.87912 12.2428 7.66267 12.2428 9.8756C12.2428 12.0885 10.4443 13.8721 8.24984 13.8721Z" fill="#C9B384"/>
<path d="M148.645 181.526C148.645 176.952 144.949 173.269 140.396 173.269C135.842 173.269 132.146 176.952 132.146 181.526C132.146 186.1 135.842 189.783 140.396 189.783C144.949 189.783 148.645 186.084 148.645 181.526ZM144.388 181.526C144.388 183.722 142.59 185.522 140.396 185.522C138.201 185.522 136.403 183.722 136.403 181.526C136.403 179.33 138.185 177.513 140.396 177.513C142.607 177.513 144.388 179.313 144.388 181.526Z" fill="#C9B384"/>
<path d="M564.173 181.708C564.173 177.15 560.477 173.45 555.923 173.45C551.369 173.45 547.673 177.15 547.673 181.708C547.673 186.266 551.369 189.965 555.923 189.965C560.477 189.965 564.173 186.266 564.173 181.708ZM559.916 181.708C559.916 183.904 558.134 185.704 555.923 185.704C553.712 185.704 551.93 183.904 551.93 181.708C551.93 179.511 553.712 177.711 555.923 177.711C558.134 177.711 559.916 179.495 559.916 181.708Z" fill="#C9B384"/>
<path d="M356.294 246.345C356.294 241.787 352.598 238.088 348.044 238.088C343.49 238.088 339.794 241.787 339.794 246.345C339.794 250.903 343.49 254.602 348.044 254.602C352.598 254.602 356.294 250.919 356.294 246.345ZM352.037 246.345C352.037 248.558 350.255 250.358 348.044 250.358C345.833 250.358 344.051 248.558 344.051 246.345C344.051 244.132 345.833 242.348 348.044 242.348C350.255 242.348 352.037 244.149 352.037 246.345Z" fill="#C9B384"/>
<path d="M687.029 0C682.459 0 678.779 3.69922 678.779 8.25719C678.779 12.8152 682.459 16.5144 687.029 16.5144C691.6 16.5144 695.279 12.8152 695.279 8.25719C695.279 3.69922 691.583 0 687.029 0ZM687.029 12.2702C684.818 12.2702 683.02 10.4701 683.02 8.25719C683.02 6.04426 684.818 4.26071 687.029 4.26071C689.24 4.26071 691.022 6.06078 691.022 8.25719C691.022 10.4536 689.224 12.2702 687.029 12.2702Z" fill="#C9B384"/>
</svg>
