<svg width="1440" height="94" viewBox="0 0 1440 94" fill="none" xmlns="http://www.w3.org/2000/svg">
<g opacity="0.2">
<path d="M55.2203 0.0464137C66.3262 0.871516 75.5673 15.5748 82.4487 23.4546C92.3499 34.775 105.461 42.8816 92.7419 58.9959C84.4908 69.4623 73.7356 78.8726 65.5382 89.5247C60.2658 95.09 53.2896 93.2376 46.4784 92.5156C45.2943 92.1897 45.0592 91.1996 45.4841 90.1105C46.1731 88.3489 51.1237 83.0311 52.6914 81.2365C61.5736 71.0795 72.0813 61.2566 80.3818 50.7077C82.5642 47.9395 83.6575 47.1226 81.3101 43.8429C74.8578 34.8492 64.2428 26.3631 57.5059 17.2581C56.1939 16.0204 54.6716 15.1705 52.7986 15.744C52.3036 15.8966 46.1978 22.3819 45.612 23.2194C45.1087 23.9249 44.6136 24.4571 44.7869 25.4101C44.9107 26.1939 50.3275 32.3451 51.3465 33.5497C52.9967 35.5011 61.1652 43.9254 61.5406 45.3528C61.9035 46.5438 61.7896 47.8292 61.2229 48.9379C60.9053 49.4907 55.4018 55.4273 54.816 55.8192C53.9249 56.4174 53.5784 56.7598 52.3696 56.4009L26.284 26.0701C25.2691 24.2302 26.416 22.9884 27.5216 21.6063C33.0168 14.725 44.0814 0.949901 52.9307 0.0464137C53.6926 -0.0154712 54.4584 -0.0154712 55.2203 0.0464137Z" fill="#C9B384"/>
<path d="M24.0894 1.88628C21.9739 5.27323 19.6045 8.49486 17.0018 11.5235C7.92563 22.2209 -3.07299 32.2789 -11.8521 43.1703C-13.065 44.6761 -14.6409 46.1489 -13.6673 48.2158C-10.7547 51.281 -8.19688 54.664 -5.44104 57.8654C-1.69507 62.2178 8.06177 74.3674 11.9563 77.1315C16.9316 80.6877 21.4119 73.0472 22.9961 69.0909C22.9631 68.4349 21.7915 66.9869 21.3459 66.3557C17.4844 61.0461 10.6526 55.3612 7.42644 50.0269C6.57246 48.6118 5.90825 47.6547 6.45282 45.9014C6.9025 44.4698 12.1749 38.7684 13.5487 38.3228C16.4366 37.3822 18.1528 40.0803 19.9969 42.0069C27.6167 49.965 34.2794 58.9215 41.6104 67.1395C42.518 69.3302 41.8332 70.6544 40.7853 72.5027C38.8257 75.8856 27.4971 88.4478 24.3369 90.886C18.8624 95.1105 8.9405 94.2771 3.73823 89.9907C-3.3824 84.1614 -15.4 70.1553 -21.2252 62.6633C-28.9317 52.7621 -32.7107 45.266 -23.9687 34.2427C-15.8291 23.9743 -5.06974 14.4691 3.25967 4.18419C9.67485 -0.964448 16.6098 0.124687 24.0935 1.88628H24.0894Z" fill="#EBE8D2"/>
<path d="M232.196 39.9004C233.584 42.4884 234.273 45.1581 233.9 48.1113C233.524 51.0798 232.063 54.441 228.957 58.376L228.956 58.377C224.865 63.5667 220.148 68.501 215.395 73.502C210.669 78.4736 205.911 83.5097 201.785 88.8643C199.379 91.3886 196.601 92.2451 193.542 92.3789C190.418 92.5155 187.166 91.9063 183.687 91.5322C183.4 91.4411 183.341 91.3222 183.318 91.2588C183.276 91.1408 183.256 90.8846 183.416 90.4736V90.4727C183.532 90.1772 183.887 89.6164 184.478 88.8359C185.045 88.0853 185.763 87.2176 186.518 86.3369C187.281 85.4461 188.058 84.5694 188.746 83.7988L190.444 81.8945C194.868 76.8357 199.694 71.8633 204.481 66.8066C208.959 62.0758 213.395 57.279 217.377 52.3203L218.168 51.3262C218.686 50.6694 219.2 50.0521 219.589 49.5127C219.986 48.9617 220.339 48.3792 220.512 47.7217C220.885 46.3049 220.333 44.9513 219.123 43.2607L219.122 43.2598C215.843 38.6893 211.52 34.2639 207.229 29.8916C202.913 25.4943 198.629 21.1485 195.31 16.6631L195.257 16.5918L195.193 16.5303C193.785 15.2025 191.896 14.0564 189.506 14.7881H189.504C189.354 14.8345 189.239 14.9075 189.195 14.9355C189.135 14.9745 189.077 15.0166 189.028 15.0547C188.93 15.1316 188.818 15.2276 188.703 15.3311C188.471 15.54 188.176 15.8214 187.847 16.1465C187.185 16.7993 186.349 17.659 185.515 18.5352C184.68 19.4121 183.841 20.3122 183.173 21.0469C182.537 21.7462 181.996 22.36 181.799 22.6387H181.798C181.386 23.2161 180.548 24.1234 180.8 25.5654L180.799 25.5664C180.799 25.5691 180.801 25.5715 180.802 25.5742C180.803 25.579 180.802 25.5841 180.803 25.5889L180.805 25.5879C180.843 25.8021 180.934 25.9875 180.985 26.085C181.053 26.2131 181.138 26.3499 181.228 26.4863C181.409 26.7609 181.651 27.0921 181.927 27.4521C182.481 28.1754 183.214 29.0687 183.965 29.9648C185.449 31.7359 187.106 33.6307 187.583 34.1953C188.422 35.1867 190.919 37.8286 193.181 40.3203C194.326 41.5819 195.422 42.8158 196.251 43.8184C196.666 44.3206 197.005 44.7525 197.246 45.0938C197.367 45.2647 197.456 45.4012 197.516 45.5049C197.57 45.6 197.582 45.6346 197.578 45.623V45.626L197.584 45.6445C197.867 46.5749 197.783 47.5776 197.35 48.4473C197.326 48.4768 197.257 48.5638 197.115 48.7314C196.942 48.9376 196.705 49.2091 196.423 49.5264C195.859 50.1597 195.129 50.9603 194.388 51.7578C193.647 52.5555 192.899 53.3459 192.303 53.959C192.004 54.2661 191.747 54.5247 191.55 54.7158C191.323 54.936 191.243 54.9998 191.26 54.9883L191.259 54.9893C191.007 55.1587 190.857 55.2654 190.697 55.3652C190.553 55.4559 190.464 55.4974 190.398 55.5195C190.329 55.5421 190.212 55.5704 189.923 55.5098L164.122 25.5098C163.812 24.9084 163.852 24.4781 164.03 24.0518C164.26 23.5021 164.703 22.9812 165.303 22.2314V22.2305C168.054 18.7859 172.157 13.6692 176.664 9.30273C178.917 7.12024 181.249 5.14663 183.542 3.66895C185.84 2.18777 188.033 1.24757 190.022 1.04199C190.726 0.985294 191.435 0.985731 192.14 1.04297L192.147 1.04395C197.302 1.42715 202.163 5.05832 206.696 9.7959C208.944 12.1449 211.069 14.7196 213.073 17.2148C215.066 19.6961 216.957 22.1218 218.695 24.1123L218.696 24.1133C221.179 26.9515 223.915 29.6467 226.29 32.1992C228.702 34.791 230.798 37.2915 232.196 39.9004Z" stroke="#1D4042" stroke-width="2"/>
<path d="M177.742 67.6658C178.071 68.5186 178.087 69.1485 177.956 69.7292C177.805 70.3961 177.453 71.0624 176.921 72.0017H176.92C176.476 72.7677 175.451 74.1283 174.059 75.825C172.684 77.502 170.996 79.4545 169.267 81.3806C165.78 85.2652 162.22 88.9417 160.726 90.0945C158.235 92.0167 154.648 92.8387 150.992 92.6316C147.338 92.4247 143.775 91.1973 141.374 89.2185L141.372 89.2166C134.784 83.8236 123.862 71.2455 117.725 63.5251L116.564 62.0496C112.708 57.0953 109.985 52.9181 109.219 48.6951C108.469 44.5671 109.567 40.2214 113.815 34.864L114.579 33.9109C118.437 29.1585 122.839 24.553 127.296 19.9119C132.009 15.003 136.784 10.0529 140.963 4.90405C146.576 0.447493 152.606 1.00691 159.485 2.54175C157.592 5.45375 155.507 8.23703 153.243 10.8718L153.239 10.8767C148.725 16.1975 143.73 21.3621 138.74 26.5837C134.071 31.4696 129.41 36.4024 125.204 41.5173L124.369 42.5427C123.833 43.2076 123.018 44.0891 122.533 45.0212C121.998 46.0494 121.781 47.2675 122.428 48.6423L122.497 48.7878L122.608 48.905C125.505 51.9539 127.984 55.2441 130.802 58.5173C131.732 59.5987 133.037 61.1666 134.544 62.9656C136.046 64.7603 137.743 66.7783 139.445 68.7478C141.147 70.7164 142.861 72.6439 144.398 74.2566C145.919 75.8521 147.315 77.1925 148.375 77.9451C149.841 78.9932 151.35 79.2537 152.794 78.9031C154.188 78.5643 155.421 77.6804 156.459 76.6316C158.532 74.5371 160.109 71.5001 160.925 69.4626L161.006 69.2595L160.995 69.0408C160.975 68.6529 160.809 68.2798 160.677 68.0212C160.53 67.7317 160.341 67.4311 160.155 67.155C159.809 66.6422 159.331 66.0171 159.163 65.7791L159.155 65.7673C157.177 63.0474 154.445 60.2404 151.876 57.5144C149.434 54.9241 147.137 52.4064 145.583 49.991L145.283 49.5105C144.827 48.7543 144.527 48.2808 144.367 47.7839C144.229 47.3555 144.194 46.8897 144.408 46.2C144.423 46.1549 144.491 46.0038 144.671 45.7263C144.839 45.4657 145.068 45.1484 145.346 44.7908C145.903 44.0765 146.628 43.2379 147.386 42.4236C148.145 41.6091 148.925 40.8332 149.59 40.24C149.923 39.9427 150.216 39.7011 150.457 39.5261C150.577 39.4389 150.675 39.3745 150.752 39.3298C150.817 39.2918 150.85 39.277 150.857 39.2742L150.858 39.2732L151.049 39.2175C151.989 38.9737 152.75 39.2534 153.549 39.8777C153.991 40.2239 154.424 40.6626 154.88 41.1609C155.31 41.6313 155.808 42.2106 156.274 42.698C160.058 46.6494 163.609 50.8547 167.142 55.114C170.629 59.3179 174.106 63.5815 177.742 67.6658Z" stroke="#1D4042" stroke-width="2"/>
<path d="M329.22 0.0464137C340.326 0.871516 349.567 15.5748 356.449 23.4546C366.35 34.775 379.461 42.8816 366.742 58.9959C358.491 69.4623 347.736 78.8726 339.538 89.5247C334.266 95.09 327.29 93.2376 320.478 92.5156C319.294 92.1897 319.059 91.1996 319.484 90.1105C320.173 88.3489 325.124 83.0311 326.692 81.2365C335.574 71.0795 346.081 61.2566 354.382 50.7077C356.564 47.9395 357.658 47.1226 355.31 43.8429C348.858 34.8492 338.243 26.3631 331.506 17.2581C330.194 16.0204 328.672 15.1705 326.799 15.744C326.304 15.8966 320.198 22.3819 319.612 23.2194C319.109 23.9249 318.614 24.4571 318.787 25.4101C318.911 26.1939 324.328 32.3451 325.347 33.5497C326.997 35.5011 335.165 43.9254 335.541 45.3528C335.904 46.5438 335.79 47.8292 335.223 48.9379C334.905 49.4907 329.402 55.4273 328.816 55.8192C327.925 56.4174 327.578 56.7598 326.37 56.4009L300.284 26.0701C299.269 24.2302 300.416 22.9884 301.522 21.6063C307.017 14.725 318.082 0.949901 326.931 0.0464137C327.693 -0.0154712 328.458 -0.0154712 329.22 0.0464137Z" fill="#C9B384"/>
<path d="M298.09 1.88628C295.974 5.27323 293.605 8.49486 291.002 11.5235C281.926 22.2209 270.927 32.2789 262.148 43.1703C260.935 44.6761 259.359 46.1489 260.333 48.2158C263.245 51.281 265.803 54.664 268.559 57.8654C272.305 62.2178 282.062 74.3674 285.956 77.1315C290.932 80.6877 295.412 73.0472 296.996 69.0909C296.963 68.4349 295.792 66.9869 295.346 66.3557C291.485 61.0461 284.653 55.3612 281.427 50.0269C280.573 48.6118 279.908 47.6547 280.453 45.9014C280.903 44.4698 286.175 38.7684 287.549 38.3228C290.437 37.3822 292.153 40.0803 293.997 42.0069C301.617 49.965 308.28 58.9215 315.611 67.1395C316.518 69.3302 315.833 70.6544 314.785 72.5027C312.826 75.8856 301.497 88.4478 298.337 90.886C292.862 95.1105 282.941 94.2771 277.738 89.9907C270.618 84.1614 258.6 70.1553 252.775 62.6633C245.068 52.7621 241.289 45.266 250.031 34.2427C258.171 23.9743 268.93 14.4691 277.26 4.18419C283.675 -0.964448 290.61 0.124687 298.094 1.88628H298.09Z" fill="#EBE8D2"/>
<path d="M506.197 39.9004C507.584 42.4884 508.273 45.1581 507.9 48.1113C507.524 51.0798 506.063 54.441 502.957 58.376L502.956 58.377C498.865 63.5667 494.148 68.501 489.395 73.502C484.67 78.4736 479.912 83.5097 475.785 88.8643C473.38 91.3886 470.601 92.2451 467.542 92.3789C464.418 92.5155 461.166 91.9063 457.687 91.5322C457.401 91.4411 457.342 91.3222 457.319 91.2588C457.276 91.1408 457.256 90.8846 457.416 90.4736V90.4727C457.532 90.1772 457.888 89.6164 458.478 88.8359C459.045 88.0853 459.763 87.2176 460.518 86.3369C461.281 85.4461 462.058 84.5694 462.746 83.7988L464.445 81.8945C468.868 76.8357 473.694 71.8633 478.481 66.8066C482.959 62.0758 487.396 57.279 491.377 52.3203L492.168 51.3262C492.686 50.6694 493.2 50.0521 493.589 49.5127C493.986 48.9617 494.339 48.3792 494.512 47.7217C494.885 46.3049 494.333 44.9513 493.123 43.2607L493.122 43.2598C489.843 38.6893 485.52 34.2639 481.229 29.8916C476.913 25.4943 472.629 21.1485 469.31 16.6631L469.257 16.5918L469.193 16.5303C467.785 15.2025 465.896 14.0564 463.506 14.7881H463.504C463.354 14.8345 463.239 14.9075 463.196 14.9355C463.135 14.9745 463.078 15.0166 463.029 15.0547C462.93 15.1316 462.819 15.2276 462.703 15.3311C462.471 15.54 462.176 15.8214 461.847 16.1465C461.185 16.7993 460.349 17.659 459.515 18.5352C458.68 19.4121 457.842 20.3122 457.173 21.0469C456.537 21.7462 455.996 22.36 455.799 22.6387H455.798C455.386 23.2161 454.549 24.1234 454.8 25.5654L454.799 25.5664C454.799 25.5691 454.802 25.5715 454.802 25.5742C454.803 25.579 454.802 25.5841 454.803 25.5889L454.805 25.5879C454.843 25.8021 454.934 25.9875 454.986 26.085C455.053 26.2131 455.138 26.3499 455.228 26.4863C455.409 26.7609 455.651 27.0921 455.927 27.4521C456.482 28.1754 457.214 29.0687 457.965 29.9648C459.449 31.7359 461.106 33.6307 461.583 34.1953C462.422 35.1867 464.919 37.8286 467.181 40.3203C468.326 41.5819 469.422 42.8158 470.251 43.8184C470.667 44.3206 471.005 44.7525 471.246 45.0938C471.367 45.2647 471.456 45.4012 471.516 45.5049C471.571 45.6 471.582 45.6346 471.578 45.623V45.626L471.584 45.6445C471.868 46.5749 471.783 47.5776 471.35 48.4473C471.326 48.4768 471.257 48.5638 471.115 48.7314C470.942 48.9376 470.705 49.2091 470.423 49.5264C469.86 50.1597 469.129 50.9603 468.388 51.7578C467.647 52.5555 466.899 53.3459 466.303 53.959C466.004 54.2661 465.747 54.5247 465.55 54.7158C465.323 54.936 465.243 54.9998 465.26 54.9883L465.259 54.9893C465.007 55.1587 464.857 55.2654 464.698 55.3652C464.553 55.4559 464.464 55.4974 464.398 55.5195C464.329 55.5421 464.212 55.5704 463.923 55.5098L438.122 25.5098C437.812 24.9084 437.852 24.4781 438.031 24.0518C438.26 23.5021 438.703 22.9812 439.303 22.2314V22.2305C442.054 18.7859 446.157 13.6692 450.664 9.30273C452.917 7.12024 455.25 5.14663 457.542 3.66895C459.84 2.18777 462.033 1.24757 464.022 1.04199C464.727 0.985294 465.435 0.985731 466.14 1.04297L466.147 1.04395C471.302 1.42715 476.163 5.05832 480.697 9.7959C482.944 12.1449 485.069 14.7196 487.073 17.2148C489.066 19.6961 490.957 22.1218 492.696 24.1123L492.697 24.1133C495.179 26.9515 497.915 29.6467 500.29 32.1992C502.702 34.791 504.798 37.2915 506.197 39.9004Z" stroke="#1D4042" stroke-width="2"/>
<path d="M451.742 67.6658C452.071 68.5186 452.087 69.1485 451.956 69.7292C451.805 70.3961 451.453 71.0624 450.921 72.0017H450.92C450.476 72.7677 449.451 74.1283 448.059 75.825C446.684 77.502 444.996 79.4545 443.267 81.3806C439.781 85.2652 436.221 88.9417 434.726 90.0945C432.235 92.0167 428.648 92.8387 424.992 92.6316C421.338 92.4247 417.776 91.1973 415.374 89.2185L415.372 89.2166C408.784 83.8236 397.862 71.2455 391.725 63.5251L390.564 62.0496C386.708 57.0953 383.986 52.9181 383.219 48.6951C382.469 44.5671 383.567 40.2214 387.815 34.864L388.579 33.9109C392.437 29.1585 396.839 24.553 401.296 19.9119C406.009 15.003 410.784 10.0529 414.963 4.90405C420.576 0.447493 426.606 1.00691 433.485 2.54175C431.593 5.45375 429.507 8.23703 427.243 10.8718L427.239 10.8767C422.725 16.1975 417.73 21.3621 412.74 26.5837C408.071 31.4696 403.41 36.4024 399.204 41.5173L398.369 42.5427C397.833 43.2076 397.018 44.0891 396.533 45.0212C395.998 46.0494 395.781 47.2675 396.429 48.6423L396.497 48.7878L396.608 48.905C399.505 51.9539 401.984 55.2441 404.802 58.5173C405.732 59.5987 407.038 61.1666 408.544 62.9656C410.047 64.7603 411.743 66.7783 413.445 68.7478C415.147 70.7164 416.861 72.6439 418.398 74.2566C419.919 75.8521 421.315 77.1925 422.375 77.9451C423.841 78.9932 425.35 79.2537 426.794 78.9031C428.188 78.5643 429.421 77.6804 430.459 76.6316C432.532 74.5371 434.109 71.5001 434.925 69.4626L435.006 69.2595L434.995 69.0408C434.975 68.6529 434.81 68.2798 434.678 68.0212C434.53 67.7317 434.341 67.4311 434.155 67.155C433.809 66.6422 433.331 66.0171 433.163 65.7791L433.155 65.7673C431.177 63.0474 428.446 60.2404 425.876 57.5144C423.434 54.9241 421.137 52.4064 419.583 49.991L419.283 49.5105C418.827 48.7543 418.527 48.2808 418.367 47.7839C418.229 47.3555 418.194 46.8897 418.408 46.2C418.423 46.1549 418.491 46.0038 418.671 45.7263C418.839 45.4657 419.068 45.1484 419.347 44.7908C419.903 44.0765 420.628 43.2379 421.387 42.4236C422.145 41.6091 422.925 40.8332 423.59 40.24C423.923 39.9427 424.217 39.7011 424.457 39.5261C424.577 39.4389 424.675 39.3745 424.752 39.3298C424.817 39.2918 424.851 39.277 424.857 39.2742L424.858 39.2732L425.049 39.2175C425.989 38.9737 426.75 39.2534 427.549 39.8777C427.992 40.2239 428.424 40.6626 428.88 41.1609C429.31 41.6313 429.808 42.2106 430.274 42.698C434.058 46.6494 437.609 50.8547 441.142 55.114C444.63 59.3179 448.106 63.5815 451.742 67.6658Z" stroke="#1D4042" stroke-width="2"/>
<path d="M603.22 0.0464137C614.326 0.871516 623.567 15.5748 630.449 23.4546C640.35 34.775 653.461 42.8816 640.742 58.9959C632.491 69.4623 621.736 78.8726 613.538 89.5247C608.266 95.09 601.29 93.2376 594.478 92.5156C593.294 92.1897 593.059 91.1996 593.484 90.1105C594.173 88.3489 599.124 83.0311 600.692 81.2365C609.574 71.0795 620.081 61.2566 628.382 50.7077C630.564 47.9395 631.658 47.1226 629.31 43.8429C622.858 34.8492 612.243 26.3631 605.506 17.2581C604.194 16.0204 602.672 15.1705 600.799 15.744C600.304 15.8966 594.198 22.3819 593.612 23.2194C593.109 23.9249 592.614 24.4571 592.787 25.4101C592.911 26.1939 598.328 32.3451 599.347 33.5497C600.997 35.5011 609.165 43.9254 609.541 45.3528C609.904 46.5438 609.79 47.8292 609.223 48.9379C608.905 49.4907 603.402 55.4273 602.816 55.8192C601.925 56.4174 601.578 56.7598 600.37 56.4009L574.284 26.0701C573.269 24.2302 574.416 22.9884 575.522 21.6063C581.017 14.725 592.082 0.949901 600.931 0.0464137C601.693 -0.0154712 602.458 -0.0154712 603.22 0.0464137Z" fill="#C9B384"/>
<path d="M572.09 1.88628C569.974 5.27323 567.605 8.49486 565.002 11.5235C555.926 22.2209 544.927 32.2789 536.148 43.1703C534.935 44.6761 533.359 46.1489 534.333 48.2158C537.245 51.281 539.803 54.664 542.559 57.8654C546.305 62.2178 556.062 74.3674 559.956 77.1315C564.932 80.6877 569.412 73.0472 570.996 69.0909C570.963 68.4349 569.792 66.9869 569.346 66.3557C565.485 61.0461 558.653 55.3612 555.427 50.0269C554.573 48.6118 553.908 47.6547 554.453 45.9014C554.903 44.4698 560.175 38.7684 561.549 38.3228C564.437 37.3822 566.153 40.0803 567.997 42.0069C575.617 49.965 582.28 58.9215 589.611 67.1395C590.518 69.3302 589.833 70.6544 588.785 72.5027C586.826 75.8856 575.497 88.4478 572.337 90.886C566.862 95.1105 556.941 94.2771 551.738 89.9907C544.618 84.1614 532.6 70.1553 526.775 62.6633C519.068 52.7621 515.289 45.266 524.031 34.2427C532.171 23.9743 542.93 14.4691 551.26 4.18419C557.675 -0.964448 564.61 0.124687 572.094 1.88628H572.09Z" fill="#EBE8D2"/>
<path d="M780.197 39.9004C781.584 42.4884 782.273 45.1581 781.9 48.1113C781.525 51.0798 780.063 54.441 776.958 58.376L776.957 58.377C772.865 63.5667 768.148 68.501 763.395 73.502C758.67 78.4736 753.912 83.5097 749.786 88.8643C747.38 91.3886 744.602 92.2451 741.542 92.3789C738.418 92.5155 735.167 91.9063 731.687 91.5322C731.401 91.4411 731.342 91.3222 731.319 91.2588C731.276 91.1408 731.256 90.8846 731.417 90.4736V90.4727C731.533 90.1772 731.888 89.6164 732.478 88.8359C733.046 88.0853 733.764 87.2176 734.518 86.3369C735.281 85.4461 736.058 84.5694 736.747 83.7988L738.445 81.8945C742.869 76.8357 747.694 71.8633 752.481 66.8066C756.959 62.0758 761.396 57.279 765.377 52.3203L766.168 51.3262C766.686 50.6694 767.201 50.0521 767.589 49.5127C767.987 48.9617 768.339 48.3792 768.512 47.7217C768.885 46.3049 768.333 44.9513 767.124 43.2607L767.123 43.2598C763.843 38.6893 759.52 34.2639 755.229 29.8916C750.913 25.4943 746.629 21.1485 743.31 16.6631L743.257 16.5918L743.193 16.5303C741.785 15.2025 739.896 14.0564 737.506 14.7881H737.504C737.354 14.8345 737.239 14.9075 737.196 14.9355C737.135 14.9745 737.078 15.0166 737.029 15.0547C736.93 15.1316 736.819 15.2276 736.704 15.3311C736.471 15.54 736.177 15.8214 735.847 16.1465C735.186 16.7993 734.349 17.659 733.515 18.5352C732.68 19.4121 731.842 20.3122 731.173 21.0469C730.537 21.7462 729.996 22.36 729.799 22.6387H729.798C729.386 23.2161 728.549 24.1234 728.8 25.5654L728.799 25.5664C728.8 25.5691 728.802 25.5715 728.802 25.5742C728.803 25.579 728.802 25.5841 728.803 25.5889L728.805 25.5879C728.843 25.8021 728.934 25.9875 728.986 26.085C729.054 26.2131 729.138 26.3499 729.228 26.4863C729.409 26.7609 729.651 27.0921 729.927 27.4521C730.482 28.1754 731.214 29.0687 731.965 29.9648C733.45 31.7359 735.106 33.6307 735.583 34.1953C736.422 35.1867 738.919 37.8286 741.181 40.3203C742.326 41.5819 743.422 42.8158 744.251 43.8184C744.667 44.3206 745.005 44.7525 745.247 45.0938C745.368 45.2647 745.456 45.4012 745.516 45.5049C745.571 45.6 745.582 45.6346 745.579 45.623V45.626L745.584 45.6445C745.868 46.5749 745.783 47.5776 745.35 48.4473C745.327 48.4768 745.257 48.5638 745.116 48.7314C744.942 48.9376 744.706 49.2091 744.423 49.5264C743.86 50.1597 743.129 50.9603 742.388 51.7578C741.647 52.5555 740.899 53.3459 740.303 53.959C740.005 54.2661 739.747 54.5247 739.55 54.7158C739.323 54.936 739.243 54.9998 739.26 54.9883L739.259 54.9893C739.007 55.1587 738.857 55.2654 738.698 55.3652C738.553 55.4559 738.465 55.4974 738.398 55.5195C738.33 55.5421 738.212 55.5704 737.923 55.5098L712.123 25.5098C711.813 24.9084 711.853 24.4781 712.031 24.0518C712.261 23.5021 712.703 22.9812 713.303 22.2314V22.2305C716.054 18.7859 720.157 13.6692 724.665 9.30273C726.917 7.12024 729.25 5.14663 731.542 3.66895C733.841 2.18777 736.033 1.24757 738.022 1.04199C738.727 0.985294 739.435 0.985731 740.14 1.04297L740.147 1.04395C745.303 1.42715 750.163 5.05832 754.697 9.7959C756.945 12.1449 759.069 14.7196 761.074 17.2148C763.067 19.6961 764.957 22.1218 766.696 24.1123L766.697 24.1133C769.179 26.9515 771.915 29.6467 774.291 32.1992C776.702 34.791 778.798 37.2915 780.197 39.9004Z" stroke="#1D4042" stroke-width="2"/>
<path d="M725.742 67.6658C726.071 68.5186 726.087 69.1485 725.956 69.7292C725.806 70.3961 725.453 71.0624 724.921 72.0017H724.92C724.476 72.7677 723.451 74.1283 722.06 75.825C720.685 77.502 718.997 79.4545 717.268 81.3806C713.781 85.2652 710.221 88.9417 708.727 90.0945C706.236 92.0167 702.649 92.8387 698.992 92.6316C695.339 92.4247 691.776 91.1973 689.374 89.2185L689.372 89.2166C682.785 83.8236 671.862 71.2455 665.726 63.5251L664.565 62.0496C660.708 57.0953 657.986 52.9181 657.219 48.6951C656.469 44.5671 657.567 40.2214 661.816 34.864L662.579 33.9109C666.437 29.1585 670.84 24.553 675.296 19.9119C680.009 15.003 684.784 10.0529 688.963 4.90405C694.576 0.447493 700.607 1.00691 707.485 2.54175C705.593 5.45375 703.508 8.23703 701.243 10.8718L701.239 10.8767C696.725 16.1975 691.73 21.3621 686.74 26.5837C682.072 31.4696 677.41 36.4024 673.204 41.5173L672.369 42.5427C671.834 43.2076 671.018 44.0891 670.533 45.0212C669.998 46.0494 669.781 47.2675 670.429 48.6423L670.497 48.7878L670.609 48.905C673.505 51.9539 675.984 55.2441 678.802 58.5173C679.733 59.5987 681.038 61.1666 682.544 62.9656C684.047 64.7603 685.743 66.7783 687.445 68.7478C689.147 70.7164 690.861 72.6439 692.399 74.2566C693.919 75.8521 695.316 77.1925 696.375 77.9451C697.842 78.9932 699.351 79.2537 700.794 78.9031C702.188 78.5643 703.421 77.6804 704.459 76.6316C706.532 74.5371 708.109 71.5001 708.925 69.4626L709.006 69.2595L708.995 69.0408C708.976 68.6529 708.81 68.2798 708.678 68.0212C708.53 67.7317 708.342 67.4311 708.155 67.155C707.809 66.6422 707.331 66.0171 707.163 65.7791L707.155 65.7673C705.177 63.0474 702.446 60.2404 699.876 57.5144C697.434 54.9241 695.137 52.4064 693.583 49.991L693.283 49.5105C692.827 48.7543 692.527 48.2808 692.367 47.7839C692.229 47.3555 692.194 46.8897 692.408 46.2C692.423 46.1549 692.492 46.0038 692.671 45.7263C692.839 45.4657 693.068 45.1484 693.347 44.7908C693.904 44.0765 694.628 43.2379 695.387 42.4236C696.145 41.6091 696.925 40.8332 697.59 40.24C697.923 39.9427 698.217 39.7011 698.457 39.5261C698.577 39.4389 698.675 39.3745 698.752 39.3298C698.817 39.2918 698.851 39.277 698.858 39.2742L698.859 39.2732L699.049 39.2175C699.989 38.9737 700.75 39.2534 701.549 39.8777C701.992 40.2239 702.425 40.6626 702.88 41.1609C703.31 41.6313 703.808 42.2106 704.275 42.698C708.058 46.6494 711.61 50.8547 715.143 55.114C718.63 59.3179 722.106 63.5815 725.742 67.6658Z" stroke="#1D4042" stroke-width="2"/>
<path d="M877.221 0.0464137C888.327 0.871516 897.568 15.5748 904.449 23.4546C914.35 34.775 927.461 42.8816 914.742 58.9959C906.491 69.4623 895.736 78.8726 887.539 89.5247C882.266 95.09 875.29 93.2376 868.479 92.5156C867.295 92.1897 867.06 91.1996 867.484 90.1105C868.173 88.3489 873.124 83.0311 874.692 81.2365C883.574 71.0795 894.082 61.2566 902.382 50.7077C904.565 47.9395 905.658 47.1226 903.31 43.8429C896.858 34.8492 886.243 26.3631 879.506 17.2581C878.194 16.0204 876.672 15.1705 874.799 15.744C874.304 15.8966 868.198 22.3819 867.612 23.2194C867.109 23.9249 866.614 24.4571 866.787 25.4101C866.911 26.1939 872.328 32.3451 873.347 33.5497C874.997 35.5011 883.166 43.9254 883.541 45.3528C883.904 46.5438 883.79 47.8292 883.223 48.9379C882.906 49.4907 877.402 55.4273 876.816 55.8192C875.925 56.4174 875.579 56.7598 874.37 56.4009L848.284 26.0701C847.269 24.2302 848.416 22.9884 849.522 21.6063C855.017 14.725 866.082 0.949901 874.931 0.0464137C875.693 -0.0154712 876.459 -0.0154712 877.221 0.0464137Z" fill="#C9B384"/>
<path d="M846.09 1.88628C843.974 5.27323 841.605 8.49486 839.002 11.5235C829.926 22.2209 818.927 32.2789 810.148 43.1703C808.935 44.6761 807.359 46.1489 808.333 48.2158C811.246 51.281 813.803 54.664 816.559 57.8654C820.305 62.2178 830.062 74.3674 833.956 77.1315C838.932 80.6877 843.412 73.0472 844.996 69.0909C844.963 68.4349 843.792 66.9869 843.346 66.3557C839.485 61.0461 832.653 55.3612 829.427 50.0269C828.573 48.6118 827.908 47.6547 828.453 45.9014C828.903 44.4698 834.175 38.7684 835.549 38.3228C838.437 37.3822 840.153 40.0803 841.997 42.0069C849.617 49.965 856.28 58.9215 863.611 67.1395C864.518 69.3302 863.833 70.6544 862.786 72.5027C860.826 75.8856 849.497 88.4478 846.337 90.886C840.863 95.1105 830.941 94.2771 825.738 89.9907C818.618 84.1614 806.6 70.1553 800.775 62.6633C793.069 52.7621 789.29 45.266 798.032 34.2427C806.171 23.9743 816.931 14.4691 825.26 4.18419C831.675 -0.964448 838.61 0.124687 846.094 1.88628H846.09Z" fill="#EBE8D2"/>
<path d="M1054.2 39.9004C1055.58 42.4884 1056.27 45.1581 1055.9 48.1113C1055.52 51.0798 1054.06 54.441 1050.96 58.376L1050.96 58.377C1046.87 63.5667 1042.15 68.501 1037.4 73.502C1032.67 78.4736 1027.91 83.5097 1023.79 88.8643C1021.38 91.3886 1018.6 92.2451 1015.54 92.3789C1012.42 92.5155 1009.17 91.9063 1005.69 91.5322C1005.4 91.4411 1005.34 91.3222 1005.32 91.2588C1005.28 91.1408 1005.26 90.8846 1005.42 90.4736V90.4727C1005.53 90.1772 1005.89 89.6164 1006.48 88.8359C1007.05 88.0853 1007.76 87.2176 1008.52 86.3369C1009.28 85.4461 1010.06 84.5694 1010.75 83.7988L1012.44 81.8945C1016.87 76.8357 1021.69 71.8633 1026.48 66.8066C1030.96 62.0758 1035.4 57.279 1039.38 52.3203L1040.17 51.3262C1040.69 50.6694 1041.2 50.0521 1041.59 49.5127C1041.99 48.9617 1042.34 48.3792 1042.51 47.7217C1042.89 46.3049 1042.33 44.9513 1041.12 43.2607L1041.12 43.2598C1037.84 38.6893 1033.52 34.2639 1029.23 29.8916C1024.91 25.4943 1020.63 21.1485 1017.31 16.6631L1017.26 16.5918L1017.19 16.5303C1015.79 15.2025 1013.9 14.0564 1011.51 14.7881H1011.5C1011.35 14.8345 1011.24 14.9075 1011.2 14.9355C1011.14 14.9745 1011.08 15.0166 1011.03 15.0547C1010.93 15.1316 1010.82 15.2276 1010.7 15.3311C1010.47 15.54 1010.18 15.8214 1009.85 16.1465C1009.19 16.7993 1008.35 17.659 1007.52 18.5352C1006.68 19.4121 1005.84 20.3122 1005.17 21.0469C1004.54 21.7462 1004 22.36 1003.8 22.6387H1003.8C1003.39 23.2161 1002.55 24.1234 1002.8 25.5654L1002.8 25.5664C1002.8 25.5691 1002.8 25.5715 1002.8 25.5742C1002.8 25.579 1002.8 25.5841 1002.8 25.5889L1002.81 25.5879C1002.84 25.8021 1002.93 25.9875 1002.99 26.085C1003.05 26.2131 1003.14 26.3499 1003.23 26.4863C1003.41 26.7609 1003.65 27.0921 1003.93 27.4521C1004.48 28.1754 1005.21 29.0687 1005.97 29.9648C1007.45 31.7359 1009.11 33.6307 1009.58 34.1953C1010.42 35.1867 1012.92 37.8286 1015.18 40.3203C1016.33 41.5819 1017.42 42.8158 1018.25 43.8184C1018.67 44.3206 1019.01 44.7525 1019.25 45.0938C1019.37 45.2647 1019.46 45.4012 1019.52 45.5049C1019.57 45.6 1019.58 45.6346 1019.58 45.623V45.626L1019.58 45.6445C1019.87 46.5749 1019.78 47.5776 1019.35 48.4473C1019.33 48.4768 1019.26 48.5638 1019.12 48.7314C1018.94 48.9376 1018.71 49.2091 1018.42 49.5264C1017.86 50.1597 1017.13 50.9603 1016.39 51.7578C1015.65 52.5555 1014.9 53.3459 1014.3 53.959C1014 54.2661 1013.75 54.5247 1013.55 54.7158C1013.32 54.936 1013.24 54.9998 1013.26 54.9883L1013.26 54.9893C1013.01 55.1587 1012.86 55.2654 1012.7 55.3652C1012.55 55.4559 1012.46 55.4974 1012.4 55.5195C1012.33 55.5421 1012.21 55.5704 1011.92 55.5098L986.123 25.5098C985.813 24.9084 985.853 24.4781 986.031 24.0518C986.261 23.5021 986.703 22.9812 987.303 22.2314V22.2305C990.054 18.7859 994.157 13.6692 998.665 9.30273C1000.92 7.12024 1003.25 5.14663 1005.54 3.66895C1007.84 2.18777 1010.03 1.24757 1012.02 1.04199C1012.73 0.985294 1013.44 0.985731 1014.14 1.04297L1014.15 1.04395C1019.3 1.42715 1024.16 5.05832 1028.7 9.7959C1030.94 12.1449 1033.07 14.7196 1035.07 17.2148C1037.07 19.6961 1038.96 22.1218 1040.7 24.1123L1040.7 24.1133C1043.18 26.9515 1045.92 29.6467 1048.29 32.1992C1050.7 34.791 1052.8 37.2915 1054.2 39.9004Z" stroke="#1D4042" stroke-width="2"/>
<path d="M999.742 67.6658C1000.07 68.5186 1000.09 69.1485 999.956 69.7292C999.805 70.3961 999.453 71.0624 998.921 72.0017H998.92C998.476 72.7677 997.451 74.1283 996.06 75.825C994.684 77.502 992.997 79.4545 991.268 81.3806C987.781 85.2652 984.221 88.9417 982.727 90.0945C980.236 92.0167 976.648 92.8387 972.992 92.6316C969.339 92.4247 965.776 91.1973 963.374 89.2185L963.372 89.2166C956.785 83.8236 945.862 71.2455 939.726 63.5251L938.564 62.0496C934.708 57.0953 931.986 52.9181 931.219 48.6951C930.469 44.5671 931.567 40.2214 935.815 34.864L936.579 33.9109C940.437 29.1585 944.84 24.553 949.296 19.9119C954.009 15.003 958.784 10.0529 962.963 4.90405C968.576 0.447493 974.606 1.00691 981.485 2.54175C979.593 5.45375 977.507 8.23703 975.243 10.8718L975.239 10.8767C970.725 16.1975 965.73 21.3621 960.74 26.5837C956.071 31.4696 951.41 36.4024 947.204 41.5173L946.369 42.5427C945.834 43.2076 945.018 44.0891 944.533 45.0212C943.998 46.0494 943.781 47.2675 944.429 48.6423L944.497 48.7878L944.608 48.905C947.505 51.9539 949.984 55.2441 952.802 58.5173C953.732 59.5987 955.038 61.1666 956.544 62.9656C958.047 64.7603 959.743 66.7783 961.445 68.7478C963.147 70.7164 964.861 72.6439 966.398 74.2566C967.919 75.8521 969.316 77.1925 970.375 77.9451C971.841 78.9932 973.351 79.2537 974.794 78.9031C976.188 78.5643 977.421 77.6804 978.459 76.6316C980.532 74.5371 982.109 71.5001 982.925 69.4626L983.006 69.2595L982.995 69.0408C982.976 68.6529 982.81 68.2798 982.678 68.0212C982.53 67.7317 982.341 67.4311 982.155 67.155C981.809 66.6422 981.331 66.0171 981.163 65.7791L981.155 65.7673C979.177 63.0474 976.446 60.2404 973.876 57.5144C971.434 54.9241 969.137 52.4064 967.583 49.991L967.283 49.5105C966.827 48.7543 966.527 48.2808 966.367 47.7839C966.229 47.3555 966.194 46.8897 966.408 46.2C966.423 46.1549 966.492 46.0038 966.671 45.7263C966.839 45.4657 967.068 45.1484 967.347 44.7908C967.903 44.0765 968.628 43.2379 969.387 42.4236C970.145 41.6091 970.925 40.8332 971.59 40.24C971.923 39.9427 972.217 39.7011 972.457 39.5261C972.577 39.4389 972.675 39.3745 972.752 39.3298C972.817 39.2918 972.851 39.277 972.857 39.2742L972.858 39.2732L973.049 39.2175C973.989 38.9737 974.75 39.2534 975.549 39.8777C975.992 40.2239 976.425 40.6626 976.88 41.1609C977.31 41.6313 977.808 42.2106 978.274 42.698C982.058 46.6494 985.61 50.8547 989.143 55.114C992.63 59.3179 996.106 63.5815 999.742 67.6658Z" stroke="#1D4042" stroke-width="2"/>
<path d="M1151.22 0.0464137C1162.33 0.871516 1171.57 15.5748 1178.45 23.4546C1188.35 34.775 1201.46 42.8816 1188.74 58.9959C1180.49 69.4623 1169.74 78.8726 1161.54 89.5247C1156.27 95.09 1149.29 93.2376 1142.48 92.5156C1141.29 92.1897 1141.06 91.1996 1141.48 90.1105C1142.17 88.3489 1147.12 83.0311 1148.69 81.2365C1157.57 71.0795 1168.08 61.2566 1176.38 50.7077C1178.56 47.9395 1179.66 47.1226 1177.31 43.8429C1170.86 34.8492 1160.24 26.3631 1153.51 17.2581C1152.19 16.0204 1150.67 15.1705 1148.8 15.744C1148.3 15.8966 1142.2 22.3819 1141.61 23.2194C1141.11 23.9249 1140.61 24.4571 1140.79 25.4101C1140.91 26.1939 1146.33 32.3451 1147.35 33.5497C1149 35.5011 1157.17 43.9254 1157.54 45.3528C1157.9 46.5438 1157.79 47.8292 1157.22 48.9379C1156.91 49.4907 1151.4 55.4273 1150.82 55.8192C1149.93 56.4174 1149.58 56.7598 1148.37 56.4009L1122.28 26.0701C1121.27 24.2302 1122.42 22.9884 1123.52 21.6063C1129.02 14.725 1140.08 0.949901 1148.93 0.0464137C1149.69 -0.0154712 1150.46 -0.0154712 1151.22 0.0464137Z" fill="#C9B384"/>
<path d="M1120.09 1.88628C1117.97 5.27323 1115.6 8.49486 1113 11.5235C1103.93 22.2209 1092.93 32.2789 1084.15 43.1703C1082.94 44.6761 1081.36 46.1489 1082.33 48.2158C1085.25 51.281 1087.8 54.664 1090.56 57.8654C1094.31 62.2178 1104.06 74.3674 1107.96 77.1315C1112.93 80.6877 1117.41 73.0472 1119 69.0909C1118.96 68.4349 1117.79 66.9869 1117.35 66.3557C1113.48 61.0461 1106.65 55.3612 1103.43 50.0269C1102.57 48.6118 1101.91 47.6547 1102.45 45.9014C1102.9 44.4698 1108.18 38.7684 1109.55 38.3228C1112.44 37.3822 1114.15 40.0803 1116 42.0069C1123.62 49.965 1130.28 58.9215 1137.61 67.1395C1138.52 69.3302 1137.83 70.6544 1136.79 72.5027C1134.83 75.8856 1123.5 88.4478 1120.34 90.886C1114.86 95.1105 1104.94 94.2771 1099.74 89.9907C1092.62 84.1614 1080.6 70.1553 1074.78 62.6633C1067.07 52.7621 1063.29 45.266 1072.03 34.2427C1080.17 23.9743 1090.93 14.4691 1099.26 4.18419C1105.68 -0.964448 1112.61 0.124687 1120.09 1.88628H1120.09Z" fill="#EBE8D2"/>
<path d="M1328.2 39.9004C1329.58 42.4884 1330.27 45.1581 1329.9 48.1113C1329.52 51.0798 1328.06 54.441 1324.96 58.376L1324.96 58.377C1320.87 63.5667 1316.15 68.501 1311.4 73.502C1306.67 78.4736 1301.91 83.5097 1297.79 88.8643C1295.38 91.3886 1292.6 92.2451 1289.54 92.3789C1286.42 92.5155 1283.17 91.9063 1279.69 91.5322C1279.4 91.4411 1279.34 91.3222 1279.32 91.2588C1279.28 91.1408 1279.26 90.8846 1279.42 90.4736V90.4727C1279.53 90.1772 1279.89 89.6164 1280.48 88.8359C1281.05 88.0853 1281.76 87.2176 1282.52 86.3369C1283.28 85.4461 1284.06 84.5694 1284.75 83.7988L1286.44 81.8945C1290.87 76.8357 1295.69 71.8633 1300.48 66.8066C1304.96 62.0758 1309.4 57.279 1313.38 52.3203L1314.17 51.3262C1314.69 50.6694 1315.2 50.0521 1315.59 49.5127C1315.99 48.9617 1316.34 48.3792 1316.51 47.7217C1316.89 46.3049 1316.33 44.9513 1315.12 43.2607L1315.12 43.2598C1311.84 38.6893 1307.52 34.2639 1303.23 29.8916C1298.91 25.4943 1294.63 21.1485 1291.31 16.6631L1291.26 16.5918L1291.19 16.5303C1289.79 15.2025 1287.9 14.0564 1285.51 14.7881H1285.5C1285.35 14.8345 1285.24 14.9075 1285.2 14.9355C1285.14 14.9745 1285.08 15.0166 1285.03 15.0547C1284.93 15.1316 1284.82 15.2276 1284.7 15.3311C1284.47 15.54 1284.18 15.8214 1283.85 16.1465C1283.19 16.7993 1282.35 17.659 1281.52 18.5352C1280.68 19.4121 1279.84 20.3122 1279.17 21.0469C1278.54 21.7462 1278 22.36 1277.8 22.6387H1277.8C1277.39 23.2161 1276.55 24.1234 1276.8 25.5654L1276.8 25.5664C1276.8 25.5691 1276.8 25.5715 1276.8 25.5742C1276.8 25.579 1276.8 25.5841 1276.8 25.5889L1276.81 25.5879C1276.84 25.8021 1276.93 25.9875 1276.99 26.085C1277.05 26.2131 1277.14 26.3499 1277.23 26.4863C1277.41 26.7609 1277.65 27.0921 1277.93 27.4521C1278.48 28.1754 1279.21 29.0687 1279.97 29.9648C1281.45 31.7359 1283.11 33.6307 1283.58 34.1953C1284.42 35.1867 1286.92 37.8286 1289.18 40.3203C1290.33 41.5819 1291.42 42.8158 1292.25 43.8184C1292.67 44.3206 1293.01 44.7525 1293.25 45.0938C1293.37 45.2647 1293.46 45.4012 1293.52 45.5049C1293.57 45.6 1293.58 45.6346 1293.58 45.623V45.626L1293.58 45.6445C1293.87 46.5749 1293.78 47.5776 1293.35 48.4473C1293.33 48.4768 1293.26 48.5638 1293.12 48.7314C1292.94 48.9376 1292.71 49.2091 1292.42 49.5264C1291.86 50.1597 1291.13 50.9603 1290.39 51.7578C1289.65 52.5555 1288.9 53.3459 1288.3 53.959C1288 54.2661 1287.75 54.5247 1287.55 54.7158C1287.32 54.936 1287.24 54.9998 1287.26 54.9883L1287.26 54.9893C1287.01 55.1587 1286.86 55.2654 1286.7 55.3652C1286.55 55.4559 1286.46 55.4974 1286.4 55.5195C1286.33 55.5421 1286.21 55.5704 1285.92 55.5098L1260.12 25.5098C1259.81 24.9084 1259.85 24.4781 1260.03 24.0518C1260.26 23.5021 1260.7 22.9812 1261.3 22.2314V22.2305C1264.05 18.7859 1268.16 13.6692 1272.66 9.30273C1274.92 7.12024 1277.25 5.14663 1279.54 3.66895C1281.84 2.18777 1284.03 1.24757 1286.02 1.04199C1286.73 0.985294 1287.44 0.985731 1288.14 1.04297L1288.15 1.04395C1293.3 1.42715 1298.16 5.05832 1302.7 9.7959C1304.94 12.1449 1307.07 14.7196 1309.07 17.2148C1311.07 19.6961 1312.96 22.1218 1314.7 24.1123L1314.7 24.1133C1317.18 26.9515 1319.92 29.6467 1322.29 32.1992C1324.7 34.791 1326.8 37.2915 1328.2 39.9004Z" stroke="#1D4042" stroke-width="2"/>
<path d="M1273.74 67.6658C1274.07 68.5186 1274.09 69.1485 1273.96 69.7292C1273.81 70.3961 1273.45 71.0624 1272.92 72.0017H1272.92C1272.48 72.7677 1271.45 74.1283 1270.06 75.825C1268.68 77.502 1267 79.4545 1265.27 81.3806C1261.78 85.2652 1258.22 88.9417 1256.73 90.0945C1254.24 92.0167 1250.65 92.8387 1246.99 92.6316C1243.34 92.4247 1239.78 91.1973 1237.37 89.2185L1237.37 89.2166C1230.78 83.8236 1219.86 71.2455 1213.73 63.5251L1212.56 62.0496C1208.71 57.0953 1205.99 52.9181 1205.22 48.6951C1204.47 44.5671 1205.57 40.2214 1209.82 34.864L1210.58 33.9109C1214.44 29.1585 1218.84 24.553 1223.3 19.9119C1228.01 15.003 1232.78 10.0529 1236.96 4.90405C1242.58 0.447493 1248.61 1.00691 1255.49 2.54175C1253.59 5.45375 1251.51 8.23703 1249.24 10.8718L1249.24 10.8767C1244.72 16.1975 1239.73 21.3621 1234.74 26.5837C1230.07 31.4696 1225.41 36.4024 1221.2 41.5173L1220.37 42.5427C1219.83 43.2076 1219.02 44.0891 1218.53 45.0212C1218 46.0494 1217.78 47.2675 1218.43 48.6423L1218.5 48.7878L1218.61 48.905C1221.51 51.9539 1223.98 55.2441 1226.8 58.5173C1227.73 59.5987 1229.04 61.1666 1230.54 62.9656C1232.05 64.7603 1233.74 66.7783 1235.45 68.7478C1237.15 70.7164 1238.86 72.6439 1240.4 74.2566C1241.92 75.8521 1243.32 77.1925 1244.38 77.9451C1245.84 78.9932 1247.35 79.2537 1248.79 78.9031C1250.19 78.5643 1251.42 77.6804 1252.46 76.6316C1254.53 74.5371 1256.11 71.5001 1256.92 69.4626L1257.01 69.2595L1257 69.0408C1256.98 68.6529 1256.81 68.2798 1256.68 68.0212C1256.53 67.7317 1256.34 67.4311 1256.16 67.155C1255.81 66.6422 1255.33 66.0171 1255.16 65.7791L1255.16 65.7673C1253.18 63.0474 1250.45 60.2404 1247.88 57.5144C1245.43 54.9241 1243.14 52.4064 1241.58 49.991L1241.28 49.5105C1240.83 48.7543 1240.53 48.2808 1240.37 47.7839C1240.23 47.3555 1240.19 46.8897 1240.41 46.2C1240.42 46.1549 1240.49 46.0038 1240.67 45.7263C1240.84 45.4657 1241.07 45.1484 1241.35 44.7908C1241.9 44.0765 1242.63 43.2379 1243.39 42.4236C1244.15 41.6091 1244.92 40.8332 1245.59 40.24C1245.92 39.9427 1246.22 39.7011 1246.46 39.5261C1246.58 39.4389 1246.68 39.3745 1246.75 39.3298C1246.82 39.2918 1246.85 39.277 1246.86 39.2742L1246.86 39.2732L1247.05 39.2175C1247.99 38.9737 1248.75 39.2534 1249.55 39.8777C1249.99 40.2239 1250.42 40.6626 1250.88 41.1609C1251.31 41.6313 1251.81 42.2106 1252.27 42.698C1256.06 46.6494 1259.61 50.8547 1263.14 55.114C1266.63 59.3179 1270.11 63.5815 1273.74 67.6658Z" stroke="#1D4042" stroke-width="2"/>
<path d="M1425.22 0.0464137C1436.33 0.871516 1445.57 15.5748 1452.45 23.4546C1462.35 34.775 1475.46 42.8816 1462.74 58.9959C1454.49 69.4623 1443.74 78.8726 1435.54 89.5247C1430.27 95.09 1423.29 93.2376 1416.48 92.5156C1415.29 92.1897 1415.06 91.1996 1415.48 90.1105C1416.17 88.3489 1421.12 83.0311 1422.69 81.2365C1431.57 71.0795 1442.08 61.2566 1450.38 50.7077C1452.56 47.9395 1453.66 47.1226 1451.31 43.8429C1444.86 34.8492 1434.24 26.3631 1427.51 17.2581C1426.19 16.0204 1424.67 15.1705 1422.8 15.744C1422.3 15.8966 1416.2 22.3819 1415.61 23.2194C1415.11 23.9249 1414.61 24.4571 1414.79 25.4101C1414.91 26.1939 1420.33 32.3451 1421.35 33.5497C1423 35.5011 1431.17 43.9254 1431.54 45.3528C1431.9 46.5438 1431.79 47.8292 1431.22 48.9379C1430.91 49.4907 1425.4 55.4273 1424.82 55.8192C1423.93 56.4174 1423.58 56.7598 1422.37 56.4009L1396.28 26.0701C1395.27 24.2302 1396.42 22.9884 1397.52 21.6063C1403.02 14.725 1414.08 0.949901 1422.93 0.0464137C1423.69 -0.0154712 1424.46 -0.0154712 1425.22 0.0464137Z" fill="#C9B384"/>
<path d="M1394.09 1.88628C1391.97 5.27323 1389.6 8.49486 1387 11.5235C1377.93 22.2209 1366.93 32.2789 1358.15 43.1703C1356.94 44.6761 1355.36 46.1489 1356.33 48.2158C1359.25 51.281 1361.8 54.664 1364.56 57.8654C1368.31 62.2178 1378.06 74.3674 1381.96 77.1315C1386.93 80.6877 1391.41 73.0472 1393 69.0909C1392.96 68.4349 1391.79 66.9869 1391.35 66.3557C1387.48 61.0461 1380.65 55.3612 1377.43 50.0269C1376.57 48.6118 1375.91 47.6547 1376.45 45.9014C1376.9 44.4698 1382.18 38.7684 1383.55 38.3228C1386.44 37.3822 1388.15 40.0803 1390 42.0069C1397.62 49.965 1404.28 58.9215 1411.61 67.1395C1412.52 69.3302 1411.83 70.6544 1410.79 72.5027C1408.83 75.8856 1397.5 88.4478 1394.34 90.886C1388.86 95.1105 1378.94 94.2771 1373.74 89.9907C1366.62 84.1614 1354.6 70.1553 1348.78 62.6633C1341.07 52.7621 1337.29 45.266 1346.03 34.2427C1354.17 23.9743 1364.93 14.4691 1373.26 4.18419C1379.68 -0.964448 1386.61 0.124687 1394.09 1.88628H1394.09Z" fill="#EBE8D2"/>
</g>
</svg>
