<svg width="1194" height="160" viewBox="0 0 1194 160" fill="none" xmlns="http://www.w3.org/2000/svg">
<g opacity="0.15">
<path d="M212.224 67.6484C214.641 72.1564 215.861 76.8512 215.203 82.0586C214.564 87.1182 212.138 92.7614 207.129 99.2646L206.636 99.8965C199.641 108.769 191.58 117.201 183.487 125.716C175.421 134.203 167.326 142.77 160.314 151.875C156.054 156.354 151.122 157.863 145.774 158.097C140.36 158.333 134.684 157.271 128.805 156.643C128.095 156.433 127.792 156.081 127.663 155.725C127.512 155.308 127.526 154.686 127.836 153.893C128.073 153.288 128.737 152.26 129.74 150.933C130.72 149.637 131.953 148.146 133.242 146.641C135.838 143.611 138.566 140.636 139.937 139.067C147.486 130.434 155.724 121.946 163.871 113.34C172.009 104.744 180.047 96.0377 187.148 87.0127C188.05 85.869 188.901 84.8515 189.552 83.9482C190.211 83.0332 190.753 82.1235 191.015 81.1279C191.565 79.0355 190.793 76.9608 188.757 74.1162L188.756 74.1152C183.206 66.38 175.879 58.8794 168.561 51.4219C161.217 43.9394 153.88 36.4988 148.19 28.8096L148.138 28.7373L148.073 28.6768C145.743 26.478 142.782 24.7331 139.074 25.8682L139.072 25.8691C138.911 25.9188 138.782 25.9982 138.72 26.0381C138.641 26.0889 138.561 26.1472 138.486 26.2051C138.337 26.3215 138.162 26.472 137.971 26.6436C137.586 26.9888 137.094 27.4604 136.535 28.0117C135.415 29.1167 133.997 30.5753 132.578 32.0654C131.158 33.5565 129.732 35.0849 128.598 36.332C127.496 37.5428 126.61 38.5525 126.309 38.9795H126.308C125.542 40.0526 124.356 41.336 124.729 43.4482L124.729 43.4492C124.729 43.4509 124.73 43.4524 124.73 43.4541C124.731 43.4599 124.731 43.4659 124.732 43.4717L124.734 43.4707C124.778 43.7204 124.89 43.9549 124.974 44.1133C125.074 44.3037 125.204 44.5163 125.351 44.7393C125.646 45.1867 126.047 45.7353 126.514 46.3438C127.449 47.5636 128.688 49.0758 129.966 50.6006C132.504 53.6288 135.292 56.8179 136.129 57.8066C137.548 59.4846 141.773 63.9516 145.65 68.2227C147.603 70.374 149.479 72.4869 150.902 74.208C151.615 75.0695 152.204 75.8207 152.63 76.4229C152.843 76.7242 153.008 76.9771 153.124 77.1797C153.182 77.2805 153.225 77.3622 153.254 77.4258C153.268 77.4569 153.278 77.4811 153.285 77.499C153.291 77.5159 153.294 77.5245 153.294 77.5254L153.299 77.5439L153.305 77.5625C153.844 79.3318 153.678 81.2402 152.846 82.8906C152.832 82.9104 152.797 82.9579 152.731 83.042C152.643 83.1547 152.522 83.302 152.371 83.4814C152.069 83.8396 151.661 84.307 151.179 84.8496C150.214 85.9338 148.965 87.3017 147.7 88.6631C146.435 90.0245 145.159 91.3752 144.138 92.4248C143.627 92.9501 143.184 93.396 142.841 93.7285C142.669 93.895 142.527 94.0289 142.417 94.1279C142.303 94.2307 142.252 94.2692 142.248 94.2725L142.246 94.2734C141.402 94.8399 141.035 95.1206 140.608 95.2617C140.311 95.3599 139.929 95.3985 139.195 95.2109L95.0254 43.8535C94.3608 42.6037 94.4264 41.6342 94.8135 40.708C95.253 39.6564 96.0921 38.6736 97.0811 37.4375V37.4365C101.765 31.5705 108.783 22.8197 116.499 15.3447C120.356 11.608 124.366 8.21179 128.325 5.66016C132.291 3.10433 136.138 1.43929 139.685 1.0752C140.925 0.975125 142.171 0.975474 143.411 1.07617H143.419C152.483 1.74974 160.923 8.11371 168.665 16.2041C172.517 20.2295 176.153 24.6354 179.57 28.8896C182.976 33.1299 186.182 37.2422 189.131 40.6191V40.6201C193.355 45.45 197.975 49.9949 202.056 54.3799C206.172 58.8041 209.795 63.1196 212.224 67.6484Z" stroke="#C9B384" stroke-width="2"/>
<path d="M119.44 114.923C120.086 116.547 120.139 117.793 119.876 118.958C119.592 120.213 118.935 121.438 118.034 123.028H118.033C117.244 124.389 115.463 126.749 113.095 129.636C110.744 132.504 107.86 135.838 104.909 139.125C98.9787 145.732 92.8696 152.047 90.2634 154.058C85.846 157.467 79.55 158.886 73.2087 158.527C66.8704 158.168 60.647 156.04 56.4148 152.553L56.4119 152.551C44.3737 142.696 23.9571 118.91 14.0359 106.151H14.0349C7.46711 97.7123 2.7243 90.4746 1.38354 83.092C0.101468 76.0321 1.91057 68.6747 8.68433 59.8245L9.35522 58.9631L10.6619 57.3352C17.2576 49.2104 24.7785 41.343 32.3679 33.4387C40.4232 25.0493 48.5558 16.6161 55.6658 7.8479C65.7864 -0.22409 76.6858 1.0845 88.8542 3.87134C85.4694 9.16578 81.7144 14.2149 77.6179 18.9817L77.614 18.9866C69.9058 28.0718 61.3792 36.888 52.8835 45.7786C44.3975 54.6591 35.9458 63.61 28.4373 72.925V72.926C27.4749 74.1207 26.1687 75.526 25.3855 77.0315C24.5524 78.633 24.2283 80.4734 25.2185 82.5754L25.2869 82.7209L25.3982 82.8381C30.3451 88.0443 34.6234 93.7161 39.3806 99.2424C40.9704 101.09 43.1998 103.766 45.7634 106.827C48.3235 109.885 51.2113 113.32 54.1082 116.671C57.0041 120.022 59.9157 123.297 62.5232 126.032C65.1153 128.752 67.456 130.992 69.2009 132.231L69.2019 132.23C71.5428 133.902 73.9042 134.296 76.1521 133.75C78.3518 133.216 80.3415 131.807 82.0623 130.069C85.5005 126.595 88.145 121.517 89.5183 118.087L89.5994 117.884L89.5886 117.665C89.5632 117.162 89.3412 116.639 89.1238 116.213C88.8904 115.756 88.5865 115.271 88.2761 114.811C87.682 113.93 86.9203 112.939 86.5955 112.479L86.5867 112.467C83.2497 107.879 78.6371 103.137 74.2419 98.4749C69.8121 93.7756 65.6033 89.1566 62.9187 84.718C62.1619 83.4639 61.595 82.5741 61.2908 81.6301C61.0087 80.7547 60.9519 79.8116 61.3572 78.5051V78.5061C61.4104 78.3368 61.5716 78.0117 61.8865 77.5247C62.1885 77.0573 62.5925 76.5001 63.075 75.8811C64.0392 74.6441 65.2872 73.1995 66.5896 71.801C67.8923 70.4023 69.2365 69.0637 70.3904 68.0344C70.9679 67.5192 71.4868 67.0913 71.9216 66.7747C72.3795 66.4413 72.6687 66.2886 72.8015 66.2454L72.8035 66.2444C74.8487 65.5784 76.4679 66.1607 78.0378 67.3879C78.8399 68.0149 79.6085 68.7979 80.3914 69.6545C81.1488 70.4834 81.9665 71.4355 82.7576 72.262C89.2223 79.0137 95.2859 86.1952 101.306 93.4534C107.282 100.658 113.223 107.945 119.44 114.923Z" stroke="#C9B384" stroke-width="2"/>
<path d="M437.044 67.4121C439.499 71.99 440.753 76.7889 440.079 82.1211C439.425 87.2942 436.95 93.0188 431.904 99.5693L431.408 100.206C424.396 109.101 416.318 117.549 408.229 126.06C400.155 134.555 392.072 143.111 385.075 152.2C380.699 156.812 375.624 158.357 370.177 158.596C364.695 158.835 358.919 157.755 353.075 157.133C352.218 156.888 351.768 156.432 351.573 155.895C351.367 155.325 351.414 154.571 351.75 153.71C352.015 153.032 352.721 151.954 353.722 150.631C354.71 149.324 355.95 147.823 357.242 146.315C359.835 143.289 362.588 140.287 363.94 138.738C371.499 130.095 379.747 121.596 387.888 112.996C395.516 104.938 403.045 96.7956 409.796 88.3887L411.135 86.7041C412.051 85.5425 412.883 84.5475 413.526 83.6553C414.173 82.7575 414.672 81.9075 414.91 81.001C415.401 79.1367 414.748 77.2265 412.73 74.4072H412.729C407.206 66.7089 399.909 59.2358 392.584 51.7725C385.247 44.2966 377.882 36.8294 372.168 29.1064L372.142 29.0703L372.109 29.04C369.826 26.8864 367.049 25.2896 363.6 26.3457V26.3467C363.506 26.3756 363.422 26.4248 363.369 26.459C363.308 26.4986 363.242 26.5469 363.174 26.5996C363.038 26.7056 362.872 26.8474 362.685 27.0156C362.309 27.3531 361.823 27.818 361.267 28.3672C360.152 29.4671 358.737 30.9217 357.32 32.4102C355.903 33.899 354.479 35.4251 353.348 36.6689C352.233 37.8942 351.371 38.8783 351.096 39.2705H351.095C350.284 40.4075 349.269 41.5027 349.604 43.3701L349.603 43.3711C349.603 43.3721 349.603 43.373 349.604 43.374C349.604 43.3768 349.604 43.38 349.604 43.3828L349.605 43.3818C349.634 43.5493 349.714 43.7265 349.795 43.8799C349.885 44.0504 350.006 44.2478 350.148 44.4639C350.434 44.8967 350.826 45.4344 351.29 46.0391C352.219 47.2502 353.453 48.756 354.729 50.2793C357.274 53.3153 360.039 56.477 360.891 57.4844C362.303 59.1547 366.507 63.5975 370.4 67.8867C372.354 70.0392 374.236 72.1584 375.667 73.8887C376.383 74.7543 376.981 75.5169 377.418 76.1338C377.636 76.4424 377.81 76.7096 377.938 76.9307C378.069 77.1587 378.134 77.3114 378.157 77.3984L378.16 77.4072L378.162 77.417C378.741 79.3163 378.561 81.3651 377.662 83.1348C377.617 83.2102 377.447 83.4319 377.134 83.8037C376.828 84.1668 376.417 84.6385 375.933 85.1826C374.965 86.2703 373.713 87.6407 372.446 89.0039C371.18 90.367 369.9 91.7203 368.876 92.7734C368.364 93.3003 367.917 93.7505 367.569 94.0879C367.297 94.3522 367.104 94.5274 366.991 94.6211L366.905 94.6885C366.104 95.2265 365.656 95.5673 365.146 95.7363C364.704 95.8823 364.184 95.9003 363.295 95.6523L318.987 44.1338C318.224 42.7251 318.285 41.5855 318.732 40.5156C319.206 39.3823 320.105 38.3317 321.07 37.125V37.124C325.753 31.2599 332.788 22.4855 340.53 14.9854C344.401 11.2356 348.437 7.81506 352.434 5.23926C356.435 2.66034 360.364 0.94974 364.022 0.576172C365.29 0.473784 366.564 0.474186 367.832 0.577148L367.835 0.578125C377.097 1.26627 385.652 7.75479 393.406 15.8584C397.274 19.9003 400.921 24.3208 404.34 28.5771C407.753 32.8263 410.947 36.9235 413.887 40.29L413.888 40.291C418.109 45.1168 422.698 49.6296 426.802 54.04C430.924 58.4702 434.584 62.8238 437.044 67.4121Z" stroke="#C9B384"/>
<path d="M344.253 114.656C344.963 116.403 345.035 117.774 344.743 119.069C344.44 120.408 343.744 121.696 342.846 123.279H342.845C342.034 124.68 340.226 127.069 337.861 129.953C335.504 132.828 332.615 136.168 329.661 139.459C323.738 146.058 317.597 152.411 314.948 154.454C310.407 157.958 303.981 159.389 297.56 159.026C291.141 158.662 284.808 156.508 280.476 152.939L280.475 152.938C268.39 143.044 247.944 119.221 238.021 106.458L238.02 106.457C231.454 98.0208 226.636 90.6968 225.271 83.1809C223.915 75.7125 225.958 67.966 233.344 58.6526C240.26 49.9267 248.294 41.5206 256.386 33.092C264.459 24.6842 272.592 16.2536 279.695 7.48853C290.217 -0.929548 301.569 0.643011 314.035 3.54126C310.539 9.07376 306.644 14.3439 302.378 19.3079L302.375 19.3098C294.655 28.409 286.116 37.238 277.625 46.1243C269.138 55.0054 260.7 63.9429 253.207 73.2395C252.209 74.4783 250.961 75.8151 250.209 77.262C249.431 78.7568 249.141 80.4312 250.051 82.3625L250.085 82.4348L250.14 82.4934C255.095 87.7078 259.414 93.4258 264.14 98.9163C265.733 100.767 267.965 103.447 270.526 106.506C273.086 109.563 275.972 112.996 278.866 116.344C281.76 119.692 284.665 122.96 287.264 125.688C289.855 128.406 292.167 130.613 293.869 131.822C296.099 133.416 298.314 133.775 300.414 133.265C302.489 132.761 304.4 131.421 306.087 129.717C309.459 126.31 312.072 121.302 313.433 117.902L313.474 117.8L313.469 117.691C313.449 117.299 313.271 116.855 313.058 116.44C312.838 116.009 312.547 115.543 312.242 115.09C311.644 114.204 310.918 113.266 310.566 112.767L310.562 112.762C307.249 108.206 302.665 103.494 298.258 98.8186C294.109 94.4181 290.118 90.0501 287.397 85.8206L286.87 84.9758C286.128 83.7464 285.522 82.7964 285.195 81.7834C284.88 80.8043 284.826 79.7552 285.26 78.3547V78.3557C285.335 78.1186 285.527 77.7469 285.846 77.2532C286.159 76.7692 286.573 76.1994 287.061 75.5735C288.036 74.3224 289.294 72.8672 290.603 71.4612C291.913 70.0547 293.269 68.7038 294.437 67.6614C295.022 67.1399 295.555 66.7002 296.008 66.3704C296.472 66.0323 296.814 65.8388 297.027 65.7698L297.028 65.7688C299.281 65.0351 301.071 65.7011 302.725 66.9944C303.561 67.6476 304.353 68.4546 305.14 69.3167C305.915 70.1647 306.71 71.0928 307.498 71.9163H307.499C313.977 78.6817 320.05 85.875 326.071 93.134C332.07 100.366 338.021 107.667 344.253 114.656Z" stroke="#C9B384"/>
<path d="M660.983 67.6484C663.401 72.1564 664.621 76.8512 663.963 82.0586C663.324 87.1182 660.898 92.7614 655.889 99.2646L655.396 99.8965C648.401 108.769 640.339 117.201 632.247 125.716C624.181 134.203 616.086 142.77 609.074 151.875C604.814 156.354 599.882 157.863 594.534 158.097C589.12 158.333 583.444 157.271 577.564 156.643C576.854 156.433 576.552 156.081 576.423 155.725C576.272 155.308 576.286 154.686 576.596 153.893C576.832 153.288 577.496 152.26 578.5 150.933C579.48 149.637 580.713 148.146 582.002 146.641C584.598 143.611 587.326 140.636 588.696 139.067C596.246 130.434 604.484 121.946 612.631 113.34C620.768 104.744 628.807 96.0377 635.908 87.0127C636.81 85.869 637.66 84.8515 638.312 83.9482C638.971 83.0332 639.512 82.1235 639.774 81.1279C640.325 79.0355 639.553 76.9608 637.517 74.1162L637.516 74.1152C631.966 66.38 624.639 58.8794 617.32 51.4219C609.977 43.9394 602.64 36.4988 596.95 28.8096L596.897 28.7373L596.833 28.6768C594.502 26.478 591.542 24.7331 587.834 25.8682L587.832 25.8691C587.671 25.9188 587.542 25.9982 587.479 26.0381C587.4 26.0889 587.32 26.1472 587.246 26.2051C587.097 26.3215 586.921 26.472 586.73 26.6436C586.346 26.9888 585.854 27.4604 585.295 28.0117C584.175 29.1167 582.757 30.5753 581.338 32.0654C579.918 33.5565 578.492 35.0849 577.357 36.332C576.256 37.5428 575.369 38.5525 575.068 38.9795H575.067C574.302 40.0526 573.116 41.336 573.489 43.4482L573.488 43.4492C573.489 43.4509 573.49 43.4524 573.49 43.4541C573.491 43.4599 573.491 43.4659 573.492 43.4717L573.494 43.4707C573.538 43.7204 573.65 43.9549 573.733 44.1133C573.834 44.3037 573.963 44.5163 574.11 44.7393C574.405 45.1867 574.807 45.7353 575.273 46.3438C576.209 47.5636 577.448 49.0758 578.726 50.6006C581.263 53.6288 584.052 56.8179 584.889 57.8066C586.308 59.4846 590.533 63.9516 594.41 68.2227C596.363 70.374 598.239 72.4869 599.662 74.208C600.375 75.0695 600.963 75.8207 601.39 76.4229C601.603 76.7242 601.767 76.9771 601.884 77.1797C601.942 77.2805 601.985 77.3622 602.014 77.4258C602.028 77.4569 602.038 77.4811 602.045 77.499C602.051 77.5159 602.053 77.5245 602.054 77.5254L602.059 77.5439L602.064 77.5625C602.604 79.3318 602.438 81.2402 601.605 82.8906C601.592 82.9104 601.557 82.9579 601.491 83.042C601.403 83.1547 601.282 83.302 601.131 83.4814C600.829 83.8396 600.421 84.307 599.938 84.8496C598.974 85.9338 597.725 87.3017 596.46 88.6631C595.195 90.0245 593.918 91.3752 592.897 92.4248C592.387 92.9501 591.943 93.396 591.601 93.7285C591.429 93.895 591.287 94.0289 591.177 94.1279C591.062 94.2307 591.012 94.2692 591.008 94.2725L591.006 94.2734C590.162 94.8399 589.795 95.1206 589.368 95.2617C589.071 95.3599 588.689 95.3985 587.955 95.2109L543.785 43.8535C543.121 42.6037 543.186 41.6342 543.573 40.708C544.013 39.6564 544.852 38.6736 545.841 37.4375V37.4365C550.525 31.5705 557.543 22.8197 565.259 15.3447C569.116 11.608 573.126 8.21179 577.085 5.66016C581.05 3.10433 584.898 1.43929 588.444 1.0752C589.685 0.975125 590.931 0.975474 592.171 1.07617H592.179C601.242 1.74974 609.683 8.11371 617.425 16.2041C621.277 20.2295 624.913 24.6354 628.33 28.8896C631.736 33.1299 634.942 37.2422 637.891 40.6191V40.6201C642.115 45.45 646.735 49.9949 650.815 54.3799C654.932 58.8041 658.555 63.1196 660.983 67.6484Z" stroke="#C9B384" stroke-width="2"/>
<path d="M568.2 114.923C568.846 116.547 568.899 117.793 568.635 118.958C568.352 120.213 567.695 121.438 566.794 123.028H566.793C566.004 124.389 564.223 126.749 561.855 129.636C559.504 132.504 556.619 135.838 553.669 139.125C547.738 145.732 541.629 152.047 539.023 154.058C534.606 157.467 528.31 158.886 521.969 158.527C515.63 158.168 509.407 156.04 505.175 152.553L505.172 152.551C493.134 142.696 472.717 118.91 462.796 106.151H462.795C456.227 97.7123 451.484 90.4746 450.143 83.092C448.861 76.0321 450.67 68.6747 457.444 59.8245L458.115 58.9631L459.422 57.3352C466.017 49.2104 473.538 41.343 481.128 33.4387C489.183 25.0493 497.316 16.6161 504.426 7.8479C514.546 -0.22409 525.446 1.0845 537.614 3.87134C534.229 9.16578 530.474 14.2149 526.378 18.9817L526.374 18.9866C518.666 28.0718 510.139 36.888 501.643 45.7786C493.157 54.6591 484.706 63.61 477.197 72.925V72.926C476.235 74.1207 474.928 75.526 474.145 77.0315C473.312 78.633 472.988 80.4734 473.978 82.5754L474.047 82.7209L474.158 82.8381C479.105 88.0443 483.383 93.7161 488.14 99.2424C489.73 101.09 491.96 103.766 494.523 106.827C497.083 109.885 499.971 113.32 502.868 116.671C505.764 120.022 508.675 123.297 511.283 126.032C513.875 128.752 516.216 130.992 517.961 132.231L517.962 132.23C520.303 133.902 522.664 134.296 524.912 133.75C527.112 133.216 529.101 131.807 530.822 130.069C534.26 126.595 536.905 121.517 538.278 118.087L538.359 117.884L538.348 117.665C538.323 117.162 538.101 116.639 537.884 116.213C537.65 115.756 537.346 115.271 537.036 114.811C536.442 113.93 535.68 112.939 535.355 112.479L535.346 112.467C532.01 107.879 527.397 103.137 523.002 98.4749C518.572 93.7756 514.363 89.1566 511.678 84.718C510.922 83.4639 510.355 82.5741 510.051 81.6301C509.768 80.7547 509.712 79.8116 510.117 78.5051V78.5061C510.17 78.3368 510.331 78.0117 510.646 77.5247C510.948 77.0573 511.352 76.5001 511.835 75.8811C512.799 74.6441 514.047 73.1995 515.349 71.801C516.652 70.4023 517.996 69.0637 519.15 68.0344C519.728 67.5192 520.247 67.0913 520.681 66.7747C521.139 66.4413 521.428 66.2886 521.561 66.2454L521.563 66.2444C523.608 65.5784 525.228 66.1607 526.798 67.3879C527.6 68.0149 528.368 68.7979 529.151 69.6545C529.909 70.4834 530.726 71.4355 531.517 72.262C537.982 79.0137 544.046 86.1952 550.066 93.4534C556.042 100.658 561.982 107.945 568.2 114.923Z" stroke="#C9B384" stroke-width="2"/>
<path d="M885.363 67.6484C887.78 72.1564 889.001 76.8512 888.343 82.0586C887.703 87.1182 885.278 92.7614 880.269 99.2646L879.775 99.8965C872.781 108.769 864.719 117.201 856.627 125.716C848.561 134.203 840.466 142.77 833.454 151.875C829.194 156.354 824.262 157.863 818.914 158.097C813.5 158.333 807.823 157.271 801.944 156.643C801.234 156.433 800.932 156.081 800.803 155.725C800.652 155.308 800.666 154.686 800.976 153.893C801.212 153.288 801.876 152.26 802.88 150.933C803.86 149.637 805.093 148.146 806.382 146.641C808.978 143.611 811.706 140.636 813.076 139.067C820.626 130.434 828.863 121.946 837.011 113.34C845.148 104.744 853.187 96.0377 860.288 87.0127C861.19 85.869 862.04 84.8515 862.691 83.9482C863.351 83.0332 863.892 82.1235 864.154 81.1279C864.705 79.0355 863.932 76.9608 861.896 74.1162L861.896 74.1152C856.346 66.38 849.019 58.8794 841.7 51.4219C834.357 43.9394 827.02 36.4988 821.33 28.8096L821.277 28.7373L821.213 28.6768C818.882 26.478 815.922 24.7331 812.214 25.8682L812.212 25.8691C812.051 25.9188 811.922 25.9982 811.859 26.0381C811.78 26.0889 811.7 26.1472 811.626 26.2051C811.476 26.3215 811.301 26.472 811.11 26.6436C810.726 26.9888 810.234 27.4604 809.675 28.0117C808.555 29.1167 807.137 30.5753 805.718 32.0654C804.298 33.5565 802.872 35.0849 801.737 36.332C800.636 37.5428 799.749 38.5525 799.448 38.9795H799.447C798.682 40.0526 797.496 41.336 797.869 43.4482L797.868 43.4492C797.868 43.4509 797.87 43.4524 797.87 43.4541C797.871 43.4599 797.871 43.4659 797.872 43.4717L797.874 43.4707C797.918 43.7204 798.03 43.9549 798.113 44.1133C798.214 44.3037 798.343 44.5163 798.49 44.7393C798.785 45.1867 799.187 45.7353 799.653 46.3438C800.589 47.5636 801.828 49.0758 803.105 50.6006C805.643 53.6288 808.432 56.8179 809.269 57.8066C810.688 59.4846 814.913 63.9516 818.79 68.2227C820.743 70.374 822.619 72.4869 824.042 74.208C824.754 75.0695 825.343 75.8207 825.77 76.4229C825.983 76.7242 826.147 76.9771 826.264 77.1797C826.322 77.2805 826.364 77.3622 826.394 77.4258C826.408 77.4569 826.418 77.4811 826.425 77.499C826.431 77.5159 826.433 77.5245 826.434 77.5254L826.438 77.5439L826.444 77.5625C826.983 79.3318 826.818 81.2402 825.985 82.8906C825.971 82.9104 825.937 82.9579 825.871 83.042C825.783 83.1547 825.662 83.302 825.511 83.4814C825.209 83.8396 824.801 84.307 824.318 84.8496C823.354 85.9338 822.105 87.3017 820.84 88.6631C819.575 90.0245 818.298 91.3752 817.277 92.4248C816.766 92.9501 816.323 93.396 815.98 93.7285C815.809 93.895 815.667 94.0289 815.557 94.1279C815.442 94.2307 815.392 94.2692 815.388 94.2725L815.386 94.2734C814.542 94.8399 814.175 95.1206 813.748 95.2617C813.451 95.3599 813.069 95.3985 812.335 95.2109L768.165 43.8535C767.5 42.6037 767.566 41.6342 767.953 40.708C768.393 39.6564 769.232 38.6736 770.221 37.4375V37.4365C774.905 31.5705 781.923 22.8197 789.639 15.3447C793.496 11.608 797.506 8.21179 801.465 5.66016C805.43 3.10433 809.278 1.43929 812.824 1.0752C814.064 0.975125 815.311 0.975474 816.551 1.07617H816.559C825.622 1.74974 834.063 8.11371 841.805 16.2041C845.657 20.2295 849.293 24.6354 852.71 28.8896C856.116 33.1299 859.321 37.2422 862.271 40.6191V40.6201C866.495 45.45 871.115 49.9949 875.195 54.3799C879.312 58.8041 882.935 63.1196 885.363 67.6484Z" stroke="#C9B384" stroke-width="2"/>
<path d="M792.58 114.923C793.226 116.547 793.278 117.793 793.015 118.958C792.732 120.213 792.075 121.438 791.174 123.028H791.173C790.384 124.389 788.603 126.749 786.235 129.636C783.884 132.504 780.999 135.838 778.049 139.125C772.118 145.732 766.009 152.047 763.403 154.058C758.986 157.467 752.69 158.886 746.348 158.527C740.01 158.168 733.787 156.04 729.554 152.553L729.552 152.551C717.513 142.696 697.097 118.91 687.176 106.151H687.175C680.607 97.7123 675.864 90.4746 674.523 83.092C673.241 76.0321 675.05 68.6747 681.824 59.8245L682.495 58.9631L683.802 57.3352C690.397 49.2104 697.918 41.343 705.508 33.4387C713.563 25.0493 721.695 16.6161 728.805 7.8479C738.926 -0.22409 749.825 1.0845 761.994 3.87134C758.609 9.16578 754.854 14.2149 750.758 18.9817L750.754 18.9866C743.045 28.0718 734.519 36.888 726.023 45.7786C717.537 54.6591 709.085 63.61 701.577 72.925V72.926C700.615 74.1207 699.308 75.526 698.525 77.0315C697.692 78.633 697.368 80.4734 698.358 82.5754L698.427 82.7209L698.538 82.8381C703.485 88.0443 707.763 93.7161 712.52 99.2424C714.11 101.09 716.339 103.766 718.903 106.827C721.463 109.885 724.351 113.32 727.248 116.671C730.144 120.022 733.055 123.297 735.663 126.032C738.255 128.752 740.596 130.992 742.341 132.231L742.342 132.23C744.682 133.902 747.044 134.296 749.292 133.75C751.491 133.216 753.481 131.807 755.202 130.069C758.64 126.595 761.285 121.517 762.658 118.087L762.739 117.884L762.728 117.665C762.703 117.162 762.481 116.639 762.263 116.213C762.03 115.756 761.726 115.271 761.416 114.811C760.822 113.93 760.06 112.939 759.735 112.479L759.726 112.467C756.389 107.879 751.777 103.137 747.382 98.4749C742.952 93.7756 738.743 89.1566 736.058 84.718C735.302 83.4639 734.735 82.5741 734.43 81.6301C734.148 80.7547 734.092 79.8116 734.497 78.5051V78.5061C734.55 78.3368 734.711 78.0117 735.026 77.5247C735.328 77.0573 735.732 76.5001 736.215 75.8811C737.179 74.6441 738.427 73.1995 739.729 71.801C741.032 70.4023 742.376 69.0637 743.53 68.0344C744.108 67.5192 744.626 67.0913 745.061 66.7747C745.519 66.4413 745.808 66.2886 745.941 66.2454L745.943 66.2444C747.988 65.5784 749.608 66.1607 751.177 67.3879C751.98 68.0149 752.748 68.7979 753.531 69.6545C754.288 70.4834 755.106 71.4355 755.897 72.262C762.362 79.0137 768.426 86.1952 774.446 93.4534C780.422 100.658 786.362 107.945 792.58 114.923Z" stroke="#C9B384" stroke-width="2"/>
<path d="M1109.74 67.6484C1112.16 72.1564 1113.38 76.8512 1112.72 82.0586C1112.08 87.1182 1109.66 92.7614 1104.65 99.2646L1104.16 99.8965C1097.16 108.769 1089.1 117.201 1081.01 125.716C1072.94 134.203 1064.85 142.77 1057.83 151.875C1053.57 156.354 1048.64 157.863 1043.29 158.097C1037.88 158.333 1032.2 157.271 1026.32 156.643C1025.61 156.433 1025.31 156.081 1025.18 155.725C1025.03 155.308 1025.05 154.686 1025.36 153.893C1025.59 153.288 1026.26 152.26 1027.26 150.933C1028.24 149.637 1029.47 148.146 1030.76 146.641C1033.36 143.611 1036.09 140.636 1037.46 139.067C1045.01 130.434 1053.24 121.946 1061.39 113.34C1069.53 104.744 1077.57 96.0377 1084.67 87.0127C1085.57 85.869 1086.42 84.8515 1087.07 83.9482C1087.73 83.0332 1088.27 82.1235 1088.53 81.1279C1089.08 79.0355 1088.31 76.9608 1086.28 74.1162L1086.28 74.1152C1080.73 66.38 1073.4 58.8794 1066.08 51.4219C1058.74 43.9394 1051.4 36.4988 1045.71 28.8096L1045.66 28.7373L1045.59 28.6768C1043.26 26.478 1040.3 24.7331 1036.59 25.8682L1036.59 25.8691C1036.43 25.9188 1036.3 25.9982 1036.24 26.0381C1036.16 26.0889 1036.08 26.1472 1036.01 26.2051C1035.86 26.3215 1035.68 26.472 1035.49 26.6436C1035.11 26.9888 1034.61 27.4604 1034.05 28.0117C1032.93 29.1167 1031.52 30.5753 1030.1 32.0654C1028.68 33.5565 1027.25 35.0849 1026.12 36.332C1025.02 37.5428 1024.13 38.5525 1023.83 38.9795H1023.83C1023.06 40.0526 1021.88 41.336 1022.25 43.4482L1022.25 43.4492C1022.25 43.4509 1022.25 43.4524 1022.25 43.4541C1022.25 43.4599 1022.25 43.4659 1022.25 43.4717L1022.25 43.4707C1022.3 43.7204 1022.41 43.9549 1022.49 44.1133C1022.59 44.3037 1022.72 44.5163 1022.87 44.7393C1023.17 45.1867 1023.57 45.7353 1024.03 46.3438C1024.97 47.5636 1026.21 49.0758 1027.49 50.6006C1030.02 53.6288 1032.81 56.8179 1033.65 57.8066C1035.07 59.4846 1039.29 63.9516 1043.17 68.2227C1045.12 70.374 1047 72.4869 1048.42 74.208C1049.13 75.0695 1049.72 75.8207 1050.15 76.4229C1050.36 76.7242 1050.53 76.9771 1050.64 77.1797C1050.7 77.2805 1050.74 77.3622 1050.77 77.4258C1050.79 77.4569 1050.8 77.4811 1050.8 77.499C1050.81 77.5159 1050.81 77.5245 1050.81 77.5254L1050.82 77.5439L1050.82 77.5625C1051.36 79.3318 1051.2 81.2402 1050.37 82.8906C1050.35 82.9104 1050.32 82.9579 1050.25 83.042C1050.16 83.1547 1050.04 83.302 1049.89 83.4814C1049.59 83.8396 1049.18 84.307 1048.7 84.8496C1047.73 85.9338 1046.48 87.3017 1045.22 88.6631C1043.95 90.0245 1042.68 91.3752 1041.66 92.4248C1041.15 92.9501 1040.7 93.396 1040.36 93.7285C1040.19 93.895 1040.05 94.0289 1039.94 94.1279C1039.82 94.2307 1039.77 94.2692 1039.77 94.2725L1039.77 94.2734C1038.92 94.8399 1038.55 95.1206 1038.13 95.2617C1037.83 95.3599 1037.45 95.3985 1036.71 95.2109L992.545 43.8535C991.88 42.6037 991.946 41.6342 992.333 40.708C992.773 39.6564 993.612 38.6736 994.601 37.4375V37.4365C999.285 31.5705 1006.3 22.8197 1014.02 15.3447C1017.88 11.608 1021.89 8.21179 1025.84 5.66016C1029.81 3.10433 1033.66 1.43929 1037.2 1.0752C1038.44 0.975125 1039.69 0.975474 1040.93 1.07617H1040.94C1050 1.74974 1058.44 8.11371 1066.18 16.2041C1070.04 20.2295 1073.67 24.6354 1077.09 28.8896C1080.5 33.1299 1083.7 37.2422 1086.65 40.6191V40.6201C1090.87 45.45 1095.49 49.9949 1099.58 54.3799C1103.69 58.8041 1107.31 63.1196 1109.74 67.6484Z" stroke="#C9B384" stroke-width="2"/>
<path d="M1016.96 114.923C1017.61 116.547 1017.66 117.793 1017.4 118.958C1017.11 120.213 1016.45 121.438 1015.55 123.028H1015.55C1014.76 124.389 1012.98 126.749 1010.61 129.636C1008.26 132.504 1005.38 135.838 1002.43 139.125C996.498 145.732 990.389 152.047 987.783 154.058C983.365 157.467 977.069 158.886 970.728 158.527C964.39 158.168 958.167 156.04 953.934 152.553L953.931 152.551C941.893 142.696 921.477 118.91 911.555 106.151H911.554C904.987 97.7123 900.244 90.4746 898.903 83.092C897.621 76.0321 899.43 68.6747 906.204 59.8245L906.875 58.9631L908.181 57.3352C914.777 49.2104 922.298 41.343 929.887 33.4387C937.943 25.0493 946.075 16.6161 953.185 7.8479C963.306 -0.22409 974.205 1.0845 986.374 3.87134C982.989 9.16578 979.234 14.2149 975.137 18.9817L975.134 18.9866C967.425 28.0718 958.899 36.888 950.403 45.7786C941.917 54.6591 933.465 63.61 925.957 72.925V72.926C924.994 74.1207 923.688 75.526 922.905 77.0315C922.072 78.633 921.748 80.4734 922.738 82.5754L922.806 82.7209L922.918 82.8381C927.865 88.0443 932.143 93.7161 936.9 99.2424C938.49 101.09 940.719 103.766 943.283 106.827C945.843 109.885 948.731 113.32 951.628 116.671C954.524 120.022 957.435 123.297 960.043 126.032C962.635 128.752 964.976 130.992 966.72 132.231L966.721 132.23C969.062 133.902 971.424 134.296 973.672 133.75C975.871 133.216 977.861 131.807 979.582 130.069C983.02 126.595 985.665 121.517 987.038 118.087L987.119 117.884L987.108 117.665C987.083 117.162 986.861 116.639 986.643 116.213C986.41 115.756 986.106 115.271 985.796 114.811C985.202 113.93 984.44 112.939 984.115 112.479L984.106 112.467C980.769 107.879 976.157 103.137 971.761 98.4749C967.332 93.7756 963.123 89.1566 960.438 84.718C959.681 83.4639 959.114 82.5741 958.81 81.6301C958.528 80.7547 958.471 79.8116 958.877 78.5051V78.5061C958.93 78.3368 959.091 78.0117 959.406 77.5247C959.708 77.0573 960.112 76.5001 960.594 75.8811C961.559 74.6441 962.807 73.1995 964.109 71.801C965.412 70.4023 966.756 69.0637 967.91 68.0344C968.487 67.5192 969.006 67.0913 969.441 66.7747C969.899 66.4413 970.188 66.2886 970.321 66.2454L970.323 66.2444C972.368 65.5784 973.987 66.1607 975.557 67.3879C976.359 68.0149 977.128 68.7979 977.911 69.6545C978.668 70.4834 979.486 71.4355 980.277 72.262C986.742 79.0137 992.805 86.1952 998.826 93.4534C1004.8 100.658 1010.74 107.945 1016.96 114.923Z" stroke="#C9B384" stroke-width="2"/>
<path d="M1241.34 114.923C1241.99 116.547 1242.04 117.793 1241.78 118.958C1241.49 120.213 1240.83 121.438 1239.93 123.028H1239.93C1239.14 124.389 1237.36 126.749 1234.99 129.636C1232.64 132.504 1229.76 135.838 1226.81 139.125C1220.88 145.732 1214.77 152.047 1212.16 154.058C1207.75 157.467 1201.45 158.886 1195.11 158.527C1188.77 158.168 1182.55 156.04 1178.31 152.553L1178.31 152.551C1166.27 142.696 1145.86 118.91 1135.94 106.151H1135.93C1129.37 97.7123 1124.62 90.4746 1123.28 83.092C1122 76.0321 1123.81 68.6747 1130.58 59.8245L1131.25 58.9631L1132.56 57.3352C1139.16 49.2104 1146.68 41.343 1154.27 33.4387C1162.32 25.0493 1170.46 16.6161 1177.57 7.8479C1187.69 -0.22409 1198.59 1.0845 1210.75 3.87134C1207.37 9.16578 1203.61 14.2149 1199.52 18.9817L1199.51 18.9866C1191.81 28.0718 1183.28 36.888 1174.78 45.7786C1166.3 54.6591 1157.85 63.61 1150.34 72.925V72.926C1149.37 74.1207 1148.07 75.526 1147.28 77.0315C1146.45 78.633 1146.13 80.4734 1147.12 82.5754L1147.19 82.7209L1147.3 82.8381C1152.24 88.0443 1156.52 93.7161 1161.28 99.2424C1162.87 101.09 1165.1 103.766 1167.66 106.827C1170.22 109.885 1173.11 113.32 1176.01 116.671C1178.9 120.022 1181.82 123.297 1184.42 126.032C1187.01 128.752 1189.36 130.992 1191.1 132.231L1191.1 132.23C1193.44 133.902 1195.8 134.296 1198.05 133.75C1200.25 133.216 1202.24 131.807 1203.96 130.069C1207.4 126.595 1210.04 121.517 1211.42 118.087L1211.5 117.884L1211.49 117.665C1211.46 117.162 1211.24 116.639 1211.02 116.213C1210.79 115.756 1210.49 115.271 1210.18 114.811C1209.58 113.93 1208.82 112.939 1208.49 112.479L1208.49 112.467C1205.15 107.879 1200.54 103.137 1196.14 98.4749C1191.71 93.7756 1187.5 89.1566 1184.82 84.718C1184.06 83.4639 1183.49 82.5741 1183.19 81.6301C1182.91 80.7547 1182.85 79.8116 1183.26 78.5051V78.5061C1183.31 78.3368 1183.47 78.0117 1183.79 77.5247C1184.09 77.0573 1184.49 76.5001 1184.97 75.8811C1185.94 74.6441 1187.19 73.1995 1188.49 71.801C1189.79 70.4023 1191.14 69.0637 1192.29 68.0344C1192.87 67.5192 1193.39 67.0913 1193.82 66.7747C1194.28 66.4413 1194.57 66.2886 1194.7 66.2454L1194.7 66.2444C1196.75 65.5784 1198.37 66.1607 1199.94 67.3879C1200.74 68.0149 1201.51 68.7979 1202.29 69.6545C1203.05 70.4834 1203.87 71.4355 1204.66 72.262C1211.12 79.0137 1217.19 86.1952 1223.21 93.4534C1229.18 100.658 1235.12 107.945 1241.34 114.923Z" stroke="#C9B384" stroke-width="2"/>
</g>
</svg>
