<svg width="155" height="736" viewBox="0 0 155 736" fill="none" xmlns="http://www.w3.org/2000/svg">
<g opacity="0.15">
<path d="M65.7197 4.0625C70.0942 1.71689 74.6485 0.533701 79.6992 1.17188C84.7653 1.81207 90.4374 4.29809 97.0107 9.48633L97.0117 9.4873C105.628 16.2802 113.817 24.1085 122.087 31.9688C130.328 39.8014 138.649 47.6631 147.492 54.4736C151.838 58.6059 153.302 63.3896 153.529 68.5801C153.759 73.8358 152.729 79.3438 152.118 85.0566C151.916 85.7366 151.581 86.021 151.245 86.1426C150.849 86.286 150.252 86.2751 149.484 85.9756C148.901 85.747 147.906 85.104 146.618 84.1299C145.36 83.1788 143.912 81.9816 142.45 80.7295C139.507 78.208 136.62 75.5596 135.095 74.2275C126.71 66.8952 118.466 58.8951 110.106 50.9814C101.757 43.0775 93.3003 35.2686 84.5332 28.3701C83.4232 27.495 82.4328 26.668 81.5547 26.0352C80.665 25.3939 79.7786 24.8652 78.8066 24.6094C76.7612 24.0711 74.7369 24.8282 71.9727 26.8066L71.9717 26.8076C64.4563 32.1994 57.169 39.3172 49.9258 46.4258C42.6576 53.5589 35.4316 60.6842 27.9648 66.209L27.8936 66.2617L27.832 66.3271C25.694 68.5937 23.9905 71.4794 25.0977 75.0957L25.0986 75.0977C25.1482 75.2582 25.2276 75.3866 25.2666 75.4473C25.3166 75.525 25.3742 75.6022 25.4307 75.6748C25.5443 75.8208 25.6906 75.992 25.8574 76.1777C26.1932 76.5515 26.6519 77.0294 27.1875 77.5723C28.2611 78.6603 29.6775 80.0387 31.125 81.417C32.5734 82.796 34.059 84.1808 35.2705 85.2832C36.4529 86.359 37.4393 87.2261 37.8516 87.5146C38.8887 88.2558 40.1443 89.4119 42.2051 89.0479L42.2061 89.0488L42.207 89.0479C42.2144 89.0465 42.2221 89.0463 42.2295 89.0449L42.2285 89.043C42.4757 88.9995 42.7073 88.89 42.8613 88.8086C43.0473 88.7103 43.2539 88.5825 43.4707 88.4395C43.906 88.1524 44.4393 87.7627 45.0303 87.3096C46.2156 86.4006 47.6858 85.1973 49.167 83.9561C52.1077 81.4916 55.2066 78.7813 56.166 77.9697C57.7963 76.591 62.1367 72.4858 66.2842 68.7207C68.3737 66.8238 70.4245 65.0022 72.0957 63.6201C72.9324 62.9282 73.662 62.3569 74.2461 61.9434C74.5383 61.7365 74.7828 61.5774 74.9785 61.4648C75.0759 61.4088 75.1541 61.3677 75.2148 61.3398C75.2448 61.3261 75.2684 61.3168 75.2852 61.3105C75.3011 61.3046 75.3083 61.3026 75.3076 61.3027L75.3447 61.293C77.055 60.7719 78.8994 60.9303 80.4951 61.7344C80.5133 61.7472 80.559 61.7799 80.6406 61.8438C80.7498 61.9292 80.8932 62.0466 81.0674 62.1934C81.4149 62.4863 81.8688 62.8819 82.3955 63.3506C83.4484 64.2873 84.7764 65.5009 86.0986 66.7295C87.4209 67.9582 88.7327 69.1981 89.752 70.1895C90.2621 70.6856 90.6948 71.1155 91.0176 71.4482C91.1793 71.615 91.3094 71.7526 91.4053 71.8594C91.5082 71.9741 91.5431 72.0211 91.543 72.0205L91.5439 72.0215C92.0958 72.8436 92.3645 73.196 92.5 73.6055C92.5929 73.8861 92.6311 74.2499 92.4521 74.9541L42.5771 117.849C41.3733 118.487 40.4417 118.423 39.5508 118.051C38.534 117.626 37.5831 116.814 36.3809 115.853L36.3799 115.852L34.1201 114.042C28.5772 109.587 21.2765 103.55 14.9248 96.9941C11.2961 93.2485 7.9985 89.3548 5.52148 85.5117C3.04031 81.6621 1.4253 77.9292 1.07227 74.4912C0.975215 73.2881 0.975535 72.079 1.07324 70.876L1.07422 70.8691C1.7275 62.0769 7.90133 53.8852 15.7588 46.3662C19.6678 42.6257 23.947 39.0944 28.0791 35.7754C32.1968 32.468 36.1913 29.354 39.4717 26.4893L39.4727 26.4883C44.1644 22.3847 48.5811 17.8955 52.8389 13.9336C57.1357 9.9354 61.3245 6.4193 65.7197 4.0625Z" stroke="#C9B384" stroke-width="2"/>
<path d="M111.64 94.1821C113.21 93.5584 114.412 93.5084 115.537 93.7622C116.751 94.0363 117.936 94.6729 119.48 95.5483H119.481C120.801 96.3128 123.092 98.0426 125.896 100.342C128.681 102.626 131.92 105.427 135.112 108.292C141.53 114.053 147.662 119.985 149.613 122.514C152.919 126.798 154.296 132.905 153.947 139.06C153.599 145.212 151.534 151.251 148.151 155.356L148.149 155.358C138.579 167.048 115.479 186.877 103.086 196.513V196.514C94.8896 202.894 87.8643 207.496 80.7012 208.796C73.6333 210.08 66.2556 208.171 57.2891 201.06V201.059C48.8358 194.358 40.6883 186.573 32.499 178.709C24.3506 170.886 16.1593 162.985 7.6416 156.078C-0.176404 146.271 1.07847 135.712 3.77832 123.912C8.90718 127.193 13.7994 130.831 18.418 134.8L18.4229 134.804C27.2464 142.29 35.8088 150.572 44.4443 158.824C53.0699 167.066 61.7657 175.276 70.8145 182.57V182.571C71.9723 183.503 73.3411 184.775 74.8066 185.538C76.3684 186.35 78.1661 186.667 80.2178 185.701L80.3633 185.631L80.4805 185.521C85.5367 180.717 91.0423 176.562 96.4121 171.94C98.206 170.396 100.805 168.232 103.779 165.742C106.749 163.255 110.085 160.449 113.341 157.635C116.595 154.822 119.777 151.995 122.435 149.461C125.075 146.945 127.252 144.67 128.457 142.973C130.087 140.692 130.472 138.389 129.939 136.196C129.419 134.052 128.046 132.115 126.355 130.442C122.977 127.099 118.042 124.528 114.709 123.194L114.505 123.113L114.287 123.124C113.792 123.148 113.279 123.366 112.864 123.578C112.419 123.805 111.946 124.101 111.499 124.403C110.644 124.98 109.678 125.722 109.233 126.036L109.223 126.044C104.764 129.287 100.157 133.769 95.6289 138.038C91.0642 142.341 86.5796 146.426 82.2715 149.032C81.0521 149.768 80.1911 150.316 79.2783 150.61C78.4863 150.865 77.6365 150.929 76.4912 150.613L76.2578 150.544C76.0964 150.493 75.7851 150.338 75.3154 150.035C74.8624 149.742 74.3216 149.35 73.7207 148.881C72.52 147.945 71.1176 146.734 69.7598 145.469C68.4017 144.204 67.1025 142.9 66.1035 141.78C65.6034 141.219 65.1886 140.716 64.8818 140.294C64.558 139.85 64.4114 139.572 64.3711 139.448L64.3701 139.447C63.727 137.472 64.2882 135.909 65.4766 134.389C66.084 133.612 66.843 132.867 67.6748 132.107C68.4788 131.372 69.405 130.577 70.208 129.808C76.7651 123.53 83.7393 117.64 90.7891 111.792C97.7852 105.989 104.863 100.22 111.64 94.1821Z" stroke="#C9B384" stroke-width="2"/>
<path d="M65.7197 222.231C70.0942 219.886 74.6485 218.703 79.6992 219.341C84.7653 219.981 90.4374 222.467 97.0107 227.655L97.0117 227.656C105.628 234.449 113.817 242.277 122.087 250.138C130.328 257.97 138.649 265.832 147.492 272.643C151.838 276.775 153.302 281.559 153.529 286.749C153.759 292.005 152.729 297.513 152.118 303.226C151.916 303.906 151.581 304.19 151.245 304.312C150.849 304.455 150.252 304.444 149.484 304.145C148.901 303.916 147.906 303.273 146.618 302.299C145.36 301.348 143.912 300.151 142.45 298.898C139.507 296.377 136.62 293.729 135.095 292.396C126.71 285.064 118.466 277.064 110.106 269.15C101.757 261.246 93.3003 253.438 84.5332 246.539C83.4232 245.664 82.4328 244.837 81.5547 244.204C80.665 243.563 79.7786 243.034 78.8066 242.778C76.7612 242.24 74.7369 242.997 71.9727 244.976L71.9717 244.977C64.4563 250.368 57.169 257.486 49.9258 264.595C42.6576 271.728 35.4316 278.853 27.9648 284.378L27.8936 284.431L27.832 284.496C25.694 286.763 23.9905 289.648 25.0977 293.265L25.0986 293.267C25.1482 293.427 25.2276 293.556 25.2666 293.616C25.3166 293.694 25.3742 293.771 25.4307 293.844C25.5443 293.99 25.6906 294.161 25.8574 294.347C26.1932 294.72 26.6519 295.198 27.1875 295.741C28.2611 296.829 29.6775 298.208 31.125 299.586C32.5734 300.965 34.059 302.35 35.2705 303.452C36.4529 304.528 37.4393 305.395 37.8516 305.684C38.8887 306.425 40.1443 307.581 42.2051 307.217L42.2061 307.218L42.207 307.217C42.2144 307.215 42.2221 307.215 42.2295 307.214L42.2285 307.212C42.4757 307.168 42.7073 307.059 42.8613 306.978C43.0473 306.879 43.2539 306.751 43.4707 306.608C43.906 306.321 44.4393 305.932 45.0303 305.479C46.2156 304.57 47.6858 303.366 49.167 302.125C52.1077 299.661 55.2066 296.95 56.166 296.139C57.7963 294.76 62.1367 290.655 66.2842 286.89C68.3737 284.993 70.4245 283.171 72.0957 281.789C72.9324 281.097 73.662 280.526 74.2461 280.112C74.5383 279.905 74.7828 279.746 74.9785 279.634C75.0759 279.578 75.1541 279.537 75.2148 279.509C75.2448 279.495 75.2684 279.486 75.2852 279.479C75.3011 279.474 75.3083 279.472 75.3076 279.472L75.3447 279.462C77.055 278.941 78.8994 279.099 80.4951 279.903C80.5133 279.916 80.559 279.949 80.6406 280.013C80.7498 280.098 80.8932 280.216 81.0674 280.362C81.4149 280.655 81.8688 281.051 82.3955 281.52C83.4484 282.456 84.7764 283.67 86.0986 284.898C87.4209 286.127 88.7327 287.367 89.752 288.358C90.2621 288.855 90.6948 289.284 91.0176 289.617C91.1793 289.784 91.3094 289.922 91.4053 290.028C91.5082 290.143 91.5431 290.19 91.543 290.189L91.5439 290.19C92.0958 291.013 92.3645 291.365 92.5 291.774C92.5929 292.055 92.6311 292.419 92.4521 293.123L42.5771 336.018C41.3733 336.656 40.4417 336.592 39.5508 336.22C38.534 335.795 37.5831 334.983 36.3809 334.021L36.3799 334.021L34.1201 332.211C28.5772 327.756 21.2765 321.719 14.9248 315.163C11.2961 311.417 7.9985 307.524 5.52148 303.681C3.04031 299.831 1.4253 296.098 1.07227 292.66C0.975215 291.457 0.975535 290.248 1.07324 289.045L1.07422 289.038C1.7275 280.246 7.90133 272.054 15.7588 264.535C19.6678 260.795 23.947 257.263 28.0791 253.944C32.1968 250.637 36.1913 247.523 39.4717 244.658L39.4727 244.657C44.1644 240.554 48.5811 236.064 52.8389 232.103C57.1357 228.104 61.3245 224.588 65.7197 222.231Z" stroke="#C9B384" stroke-width="2"/>
<path d="M111.64 312.351C113.21 311.727 114.412 311.677 115.537 311.931C116.751 312.205 117.936 312.842 119.48 313.717H119.481C120.801 314.482 123.092 316.211 125.896 318.511C128.681 320.795 131.92 323.595 135.112 326.461C141.53 332.222 147.662 338.154 149.613 340.683C152.919 344.967 154.296 351.074 153.947 357.229C153.599 363.381 151.534 369.42 148.151 373.525L148.149 373.527C138.579 385.217 115.479 405.046 103.086 414.682V414.683C94.8896 421.062 87.8643 425.664 80.7012 426.965C73.6333 428.249 66.2556 426.34 57.2891 419.229V419.228C48.8358 412.527 40.6883 404.741 32.499 396.878C24.3506 389.054 16.1593 381.153 7.6416 374.246C-0.176404 364.44 1.07847 353.881 3.77832 342.08C8.90718 345.362 13.7994 349 18.418 352.969L18.4229 352.973C27.2464 360.459 35.8088 368.741 44.4443 376.993C53.0699 385.235 61.7657 393.445 70.8145 400.739V400.74C71.9723 401.672 73.3411 402.944 74.8066 403.706C76.3684 404.519 78.1661 404.836 80.2178 403.87L80.3633 403.8L80.4805 403.69C85.5367 398.885 91.0423 394.731 96.4121 390.109C98.206 388.565 100.805 386.401 103.779 383.911C106.749 381.424 110.085 378.618 113.341 375.804C116.595 372.991 119.777 370.163 122.435 367.63C125.075 365.114 127.252 362.839 128.457 361.142C130.087 358.861 130.472 356.557 129.939 354.365C129.419 352.221 128.046 350.284 126.355 348.611C122.977 345.267 118.042 342.697 114.709 341.363L114.505 341.282L114.287 341.292C113.792 341.317 113.279 341.535 112.864 341.746C112.419 341.974 111.946 342.27 111.499 342.572C110.644 343.149 109.678 343.891 109.233 344.204L109.223 344.213C104.764 347.456 100.157 351.938 95.6289 356.206C91.0642 360.509 86.5796 364.595 82.2715 367.201C81.0521 367.936 80.1911 368.484 79.2783 368.779C78.4863 369.034 77.6365 369.098 76.4912 368.782L76.2578 368.713C76.0964 368.662 75.7851 368.507 75.3154 368.203C74.8624 367.911 74.3216 367.519 73.7207 367.05C72.52 366.114 71.1176 364.903 69.7598 363.638C68.4017 362.373 67.1025 361.068 66.1035 359.949C65.6034 359.388 65.1886 358.885 64.8818 358.463C64.558 358.018 64.4114 357.741 64.3711 357.617L64.3701 357.616C63.727 355.641 64.2882 354.078 65.4766 352.558C66.084 351.781 66.843 351.036 67.6748 350.276C68.4788 349.541 69.405 348.746 70.208 347.977C76.7651 341.699 83.7393 335.809 90.7891 329.961C97.7852 324.158 104.863 318.389 111.64 312.351Z" stroke="#C9B384" stroke-width="2"/>
<path d="M65.7197 440.4C70.0942 438.055 74.6485 436.872 79.6992 437.51C84.7653 438.15 90.4374 440.636 97.0107 445.824L97.0117 445.825C105.628 452.618 113.817 460.446 122.087 468.307C130.328 476.139 138.649 484.001 147.492 490.812C151.838 494.944 153.302 499.727 153.529 504.918C153.759 510.174 152.729 515.682 152.118 521.395C151.916 522.075 151.581 522.359 151.245 522.48C150.849 522.624 150.252 522.613 149.484 522.313C148.901 522.085 147.906 521.442 146.618 520.468C145.36 519.517 143.912 518.32 142.45 517.067C139.507 514.546 136.62 511.898 135.095 510.565C126.71 503.233 118.466 495.233 110.106 487.319C101.757 479.415 93.3003 471.606 84.5332 464.708C83.4232 463.833 82.4328 463.006 81.5547 462.373C80.665 461.732 79.7786 461.203 78.8066 460.947C76.7612 460.409 74.7369 461.166 71.9727 463.145L71.9717 463.146C64.4563 468.537 57.169 475.655 49.9258 482.764C42.6576 489.897 35.4316 497.022 27.9648 502.547L27.8936 502.6L27.832 502.665C25.694 504.932 23.9905 507.817 25.0977 511.434L25.0986 511.436C25.1482 511.596 25.2276 511.725 25.2666 511.785C25.3166 511.863 25.3742 511.94 25.4307 512.013C25.5443 512.159 25.6906 512.33 25.8574 512.516C26.1932 512.889 26.6519 513.367 27.1875 513.91C28.2611 514.998 29.6775 516.377 31.125 517.755C32.5734 519.134 34.059 520.519 35.2705 521.621C36.4529 522.697 37.4393 523.564 37.8516 523.853C38.8887 524.594 40.1443 525.75 42.2051 525.386L42.2061 525.387L42.207 525.386C42.2144 525.384 42.2221 525.384 42.2295 525.383L42.2285 525.381C42.4757 525.337 42.7073 525.228 42.8613 525.146C43.0473 525.048 43.2539 524.92 43.4707 524.777C43.906 524.49 44.4393 524.101 45.0303 523.647C46.2156 522.739 47.6858 521.535 49.167 520.294C52.1077 517.829 55.2066 515.119 56.166 514.308C57.7963 512.929 62.1367 508.824 66.2842 505.059C68.3737 503.162 70.4245 501.34 72.0957 499.958C72.9324 499.266 73.662 498.695 74.2461 498.281C74.5383 498.074 74.7828 497.915 74.9785 497.803C75.0759 497.747 75.1541 497.706 75.2148 497.678C75.2448 497.664 75.2684 497.655 75.2852 497.648C75.3011 497.642 75.3083 497.64 75.3076 497.641L75.3447 497.631C77.055 497.11 78.8994 497.268 80.4951 498.072C80.5133 498.085 80.559 498.118 80.6406 498.182C80.7498 498.267 80.8932 498.384 81.0674 498.531C81.4149 498.824 81.8688 499.22 82.3955 499.688C83.4484 500.625 84.7764 501.839 86.0986 503.067C87.4209 504.296 88.7327 505.536 89.752 506.527C90.2621 507.024 90.6948 507.453 91.0176 507.786C91.1793 507.953 91.3094 508.09 91.4053 508.197C91.5082 508.312 91.5431 508.359 91.543 508.358L91.5439 508.359C92.0958 509.181 92.3645 509.534 92.5 509.943C92.5929 510.224 92.6311 510.588 92.4521 511.292L42.5771 554.187C41.3733 554.825 40.4417 554.761 39.5508 554.389C38.534 553.964 37.5831 553.152 36.3809 552.19L36.3799 552.189L34.1201 550.38C28.5772 545.925 21.2765 539.888 14.9248 533.332C11.2961 529.586 7.9985 525.693 5.52148 521.85C3.04031 518 1.4253 514.267 1.07227 510.829C0.975215 509.626 0.975535 508.417 1.07324 507.214L1.07422 507.207C1.7275 498.415 7.90133 490.223 15.7588 482.704C19.6678 478.964 23.947 475.432 28.0791 472.113C32.1968 468.806 36.1913 465.692 39.4717 462.827L39.4727 462.826C44.1644 458.723 48.5811 454.233 52.8389 450.271C57.1357 446.273 61.3245 442.757 65.7197 440.4Z" stroke="#C9B384" stroke-width="2"/>
<path d="M111.64 530.52C113.21 529.896 114.412 529.846 115.537 530.1C116.751 530.374 117.936 531.011 119.48 531.886H119.481C120.801 532.651 123.092 534.38 125.896 536.68C128.681 538.964 131.92 541.764 135.112 544.63C141.53 550.391 147.662 556.323 149.613 558.852C152.919 563.136 154.296 569.243 153.947 575.398C153.599 581.55 151.534 587.589 148.151 591.694L148.149 591.696C138.579 603.386 115.479 623.215 103.086 632.851V632.852C94.8896 639.231 87.8643 643.833 80.7012 645.134C73.6333 646.418 66.2556 644.509 57.2891 637.398V637.397C48.8358 630.696 40.6883 622.91 32.499 615.047C24.3506 607.223 16.1593 599.322 7.6416 592.415C-0.176404 582.609 1.07847 572.05 3.77832 560.249C8.90718 563.531 13.7994 567.169 18.418 571.138L18.4229 571.142C27.2464 578.628 35.8088 586.91 44.4443 595.161C53.0699 603.404 61.7657 611.614 70.8145 618.908V618.909C71.9723 619.841 73.3411 621.113 74.8066 621.875C76.3684 622.688 78.1661 623.005 80.2178 622.038L80.3633 621.969L80.4805 621.859C85.5367 617.054 91.0423 612.9 96.4121 608.278C98.206 606.734 100.805 604.57 103.779 602.079C106.749 599.593 110.085 596.787 113.341 593.973C116.595 591.16 119.777 588.332 122.435 585.799C125.075 583.282 127.252 581.008 128.457 579.311C130.087 577.03 130.472 574.726 129.939 572.534C129.419 570.39 128.046 568.453 126.355 566.78C122.977 563.436 118.042 560.866 114.709 559.532L114.505 559.451L114.287 559.461C113.792 559.486 113.279 559.704 112.864 559.915C112.419 560.143 111.946 560.439 111.499 560.741C110.644 561.318 109.678 562.059 109.233 562.373L109.223 562.382C104.764 565.625 100.157 570.107 95.6289 574.375C91.0642 578.678 86.5796 582.764 82.2715 585.37C81.0521 586.105 80.1911 586.653 79.2783 586.948C78.4863 587.203 77.6365 587.267 76.4912 586.951L76.2578 586.882C76.0964 586.831 75.7851 586.676 75.3154 586.372C74.8624 586.08 74.3216 585.688 73.7207 585.219C72.52 584.283 71.1176 583.072 69.7598 581.807C68.4017 580.542 67.1025 579.237 66.1035 578.118C65.6034 577.557 65.1886 577.054 64.8818 576.632C64.558 576.187 64.4114 575.91 64.3711 575.786L64.3701 575.785C63.727 573.81 64.2882 572.247 65.4766 570.727C66.084 569.95 66.843 569.205 67.6748 568.445C68.4788 567.71 69.405 566.914 70.208 566.146C76.7651 559.868 83.7393 553.978 90.7891 548.13C97.7852 542.327 104.863 536.558 111.64 530.52Z" stroke="#C9B384" stroke-width="2"/>
<path d="M65.7197 658.569C70.0942 656.224 74.6485 655.041 79.6992 655.679C84.7653 656.319 90.4374 658.805 97.0107 663.993L97.0117 663.994C105.628 670.787 113.817 678.616 122.087 686.476C130.328 694.308 138.649 702.17 147.492 708.981C151.838 713.113 153.302 717.897 153.529 723.087C153.759 728.343 152.729 733.851 152.118 739.564C151.916 740.244 151.581 740.528 151.245 740.65C150.849 740.793 150.252 740.782 149.484 740.483C148.901 740.254 147.906 739.611 146.618 738.637C145.36 737.686 143.912 736.489 142.45 735.236C139.507 732.715 136.62 730.067 135.095 728.734C126.71 721.402 118.466 713.402 110.106 705.488C101.757 697.584 93.3003 689.776 84.5332 682.877C83.4232 682.002 82.4328 681.175 81.5547 680.542C80.665 679.901 79.7786 679.372 78.8066 679.116C76.7612 678.578 74.7369 679.335 71.9727 681.314L71.9717 681.315C64.4563 686.706 57.169 693.824 49.9258 700.933C42.6576 708.066 35.4316 715.191 27.9648 720.716L27.8936 720.769L27.832 720.834C25.694 723.101 23.9905 725.986 25.0977 729.603L25.0986 729.605C25.1482 729.765 25.2276 729.894 25.2666 729.954C25.3166 730.032 25.3742 730.109 25.4307 730.182C25.5443 730.328 25.6906 730.499 25.8574 730.685C26.1932 731.058 26.6519 731.536 27.1875 732.079C28.2611 733.167 29.6775 734.546 31.125 735.924C32.5734 737.303 34.059 738.688 35.2705 739.79C36.4529 740.866 37.4393 741.733 37.8516 742.022C38.8887 742.763 40.1443 743.919 42.2051 743.555L42.2061 743.556L42.207 743.555C42.2144 743.554 42.2221 743.553 42.2295 743.552L42.2285 743.55C42.4757 743.506 42.7073 743.397 42.8613 743.316C43.0473 743.217 43.2539 743.089 43.4707 742.946C43.906 742.659 44.4393 742.27 45.0303 741.817C46.2156 740.908 47.6858 739.704 49.167 738.463C52.1077 735.999 55.2066 733.288 56.166 732.477C57.7963 731.098 62.1367 726.993 66.2842 723.228C68.3737 721.331 70.4245 719.509 72.0957 718.127C72.9324 717.435 73.662 716.864 74.2461 716.45C74.5383 716.243 74.7828 716.084 74.9785 715.972C75.0759 715.916 75.1541 715.875 75.2148 715.847C75.2448 715.833 75.2684 715.824 75.2852 715.818C75.3011 715.812 75.3083 715.81 75.3076 715.81L75.3447 715.8C77.055 715.279 78.8994 715.437 80.4951 716.241C80.5133 716.254 80.559 716.287 80.6406 716.351C80.7498 716.436 80.8932 716.554 81.0674 716.7C81.4149 716.993 81.8688 717.389 82.3955 717.858C83.4484 718.794 84.7764 720.008 86.0986 721.236C87.4209 722.465 88.7327 723.705 89.752 724.696C90.2621 725.193 90.6948 725.622 91.0176 725.955C91.1793 726.122 91.3094 726.26 91.4053 726.366C91.5082 726.481 91.5431 726.528 91.543 726.527L91.5439 726.528C92.0958 727.351 92.3645 727.703 92.5 728.112C92.5929 728.393 92.6311 728.757 92.4521 729.461L42.5771 772.356C41.3733 772.994 40.4417 772.93 39.5508 772.558C38.534 772.133 37.5831 771.321 36.3809 770.359L36.3799 770.359L34.1201 768.549C28.5772 764.094 21.2765 758.057 14.9248 751.501C11.2961 747.755 7.9985 743.862 5.52148 740.019C3.04031 736.169 1.4253 732.436 1.07227 728.998C0.975215 727.795 0.975535 726.586 1.07324 725.383L1.07422 725.376C1.7275 716.584 7.90133 708.392 15.7588 700.873C19.6678 697.133 23.947 693.601 28.0791 690.282C32.1968 686.975 36.1913 683.861 39.4717 680.996L39.4727 680.995C44.1644 676.892 48.5811 672.402 52.8389 668.441C57.1357 664.442 61.3245 660.926 65.7197 658.569Z" stroke="#C9B384" stroke-width="2"/>
</g>
</svg>
