<svg width="183" height="66" viewBox="0 0 183 66" fill="none" xmlns="http://www.w3.org/2000/svg">
<path d="M0.0241204 22.232C0.452913 16.4604 8.09399 11.6579 12.189 8.08182C18.072 2.93631 22.2849 -3.8772 30.6592 2.73263C36.0984 7.02056 40.9888 12.6099 46.5245 16.8699C49.4167 19.6099 48.4541 23.2353 48.0789 26.775C47.9095 27.3903 47.3949 27.5125 46.8289 27.2917C45.9135 26.9337 43.1499 24.3609 42.2173 23.5462C36.9388 18.9303 31.8341 13.4696 26.352 9.15594C24.9134 8.02179 24.4889 7.45364 22.7844 8.67355C18.1106 12.0267 13.7004 17.5431 8.96873 21.0442C8.32554 21.726 7.88388 22.5171 8.18189 23.4905C8.26122 23.7477 11.6315 26.9208 12.0667 27.2252C12.4334 27.4868 12.7099 27.7441 13.2052 27.654C13.6125 27.5897 16.8092 24.7747 17.4352 24.2451C18.4493 23.3876 22.8273 19.1425 23.5691 18.9474C24.1881 18.7588 24.8561 18.818 25.4322 19.1125C25.7195 19.2776 28.8047 22.1376 29.0083 22.4421C29.3192 22.9052 29.4972 23.0853 29.3106 23.7134L13.5482 37.2697C12.592 37.7971 11.9467 37.2011 11.2285 36.6265C7.65233 33.7708 0.493648 28.0207 0.0241204 23.4219C-0.00804015 23.0259 -0.00804015 22.6279 0.0241204 22.232Z" fill="#C9B384"/>
<path d="M0.980354 38.4102C2.74049 39.5096 4.41473 40.7409 5.98865 42.0935C11.5479 46.8102 16.7749 52.526 22.435 57.0884C23.2175 57.7187 23.9829 58.5377 25.057 58.0317C26.65 56.5181 28.408 55.1888 30.0718 53.7567C32.3336 51.8099 38.6476 46.7395 40.0841 44.7156C41.9322 42.13 37.9615 39.8016 35.9055 38.9783C35.5646 38.9955 34.8121 39.6044 34.484 39.8359C31.7248 41.8427 28.7704 45.3931 25.9982 47.0696C25.2629 47.5134 24.7655 47.8586 23.8543 47.5756C23.1103 47.3419 20.1474 44.6019 19.9158 43.888C19.427 42.3872 20.8291 41.4953 21.8304 40.537C25.9661 36.5771 30.6206 33.1146 34.8914 29.3048C36.0298 28.8331 36.718 29.189 37.6785 29.7336C39.4366 30.752 45.9649 36.6393 47.232 38.2815C49.4274 41.1266 48.9944 46.2828 46.7668 48.9863C43.7374 52.6868 36.4586 58.9322 32.5652 61.9595C27.4197 65.9644 23.5241 67.9282 17.7954 63.3852C12.4591 59.1552 7.51944 53.5637 2.17454 49.235C-0.501122 45.9012 0.0648831 42.2972 0.980354 38.408V38.4102Z" fill="#EBE8D2"/>
<path d="M118.058 50.7832L120.348 51.4692C121.304 51.6208 122.282 51.5518 123.207 51.2675C124.132 50.9833 124.98 50.4913 125.686 49.8291C126.415 54.8353 120.783 52.9915 117.936 52.687C117.209 52.6098 113.598 52.97 113.538 52.091C114.001 50.7081 115.635 51.2163 116.39 50.3072C112.156 49.3531 110.843 44.4242 112.389 40.7344C114.606 35.4431 123.323 35.7819 125.039 41.324C126.754 46.8126 123.433 50.3501 118.054 50.7939L118.058 50.7832ZM123.684 43.8475C123.686 42.835 123.388 41.8447 122.827 41.0018C122.266 40.1589 121.468 39.5013 120.533 39.1122C119.598 38.723 118.569 38.6199 117.576 38.8158C116.582 39.0117 115.67 39.4979 114.953 40.2127C114.236 40.9276 113.747 41.839 113.548 42.8318C113.349 43.8245 113.449 44.8539 113.836 45.7897C114.222 46.7255 114.877 47.5257 115.719 48.0891C116.56 48.6524 117.549 48.9535 118.562 48.9544C119.233 48.9552 119.898 48.8238 120.519 48.5676C121.139 48.3113 121.703 47.9354 122.179 47.4611C122.654 46.9869 123.031 46.4236 123.288 45.8036C123.546 45.1836 123.679 44.5189 123.679 43.8475H123.684Z" fill="#1D4042"/>
<path d="M160.62 50.5429C160.279 50.3285 160.292 50.0691 160.251 49.7218C159.927 46.9668 160.122 40.8543 160.491 38.0415C160.583 37.3404 160.802 36.9823 161.563 36.9695C164.505 37.677 169 36.7551 170.997 39.4801C172.695 41.8063 172.712 46.5187 170.649 48.6476C169.92 49.4002 167.585 50.5429 166.586 50.5429H160.62ZM162.408 48.6391H166.586C167.701 48.6391 169.331 46.8639 169.774 45.8734C171.961 41.0001 166.749 37.8571 162.412 39.1242V48.6412L162.408 48.6391Z" fill="#1D4042"/>
<path d="M154.777 42.9297V44.5934H148.219L147.687 44.8979C147.241 45.406 147.533 48.3132 147.846 48.5426C149.207 48.9864 155.247 48.1138 155.854 49.1172C156.559 50.2985 155.391 50.7123 154.43 50.798C152.715 50.9524 148.176 51.0124 146.566 50.7702C146.075 50.6951 145.537 50.5065 145.477 49.9533C145.781 48.1052 144.986 38.2151 145.691 37.3211C145.919 37.0317 146.206 37.0188 146.549 36.9759C148.144 36.7744 152.323 36.813 153.967 36.9759C155.436 37.1196 156.004 38.4617 154.868 38.8562C153.407 39.36 147.685 37.9321 147.462 39.9925C147.432 40.2626 147.623 40.5971 147.623 40.9165C147.623 41.4911 147.329 42.9383 148.468 42.9383H154.786L154.777 42.9297Z" fill="#1D4042"/>
<path d="M83.004 49.4731C82.7275 50.7917 81.3618 50.215 81.1431 49.1837C81.0437 45.1117 81.1869 41.0374 81.5719 36.9824L83.3664 38.1637L90.1541 46.9754V37.5784C90.1541 37.1497 91.5949 36.8902 91.8157 38.0608C91.8329 42.2673 92.3281 46.6967 91.3419 50.781L82.9997 41.504C82.6696 43.7874 83.4435 47.3592 82.9997 49.4731H83.004Z" fill="#1D4042"/>
<path d="M132.6 42.9297H138.681C139.141 42.9297 139.967 43.7594 139.135 44.334C138.009 45.1037 134.311 44.1775 132.99 44.6256C132.435 44.8142 132.229 47.4127 132.412 47.998C132.84 49.4237 137.165 48.757 138.443 48.8792C139.191 48.9499 140.994 49.19 140.372 50.0798L140.081 50.2642C137.037 50.6903 133.947 50.6571 130.913 50.1655L130.75 37.8614C130.783 37.7498 130.838 37.6459 130.912 37.5557C130.985 37.4655 131.076 37.3909 131.179 37.3361C131.64 37.1217 138.014 37.1217 138.929 37.2182C139.48 37.2803 140.085 37.3811 140.479 37.8163C140.606 38.3502 139.487 38.5753 139.146 38.6225C135.265 39.1692 131.764 36.7336 132.611 42.9275L132.6 42.9297Z" fill="#1D4042"/>
<path d="M108.511 50.2941C105.889 51.4668 106.667 47.8736 104.881 47.1553C104.045 46.8187 101.088 46.8852 100.164 47.0803C98.5026 47.4298 97.8551 48.6647 97.5699 50.2019L95.6404 50.3027L100.767 38.6352C101.442 37.4796 102.357 36.6264 103.339 37.9921C104.371 39.4435 107.79 47.6163 108.425 49.5694C108.528 49.79 108.563 50.0363 108.526 50.2769L108.511 50.2941ZM104.465 45.3094C103.995 43.3434 102.853 41.5274 102.199 39.5979C101.363 41.446 100.366 43.3219 99.9326 45.3094H104.465Z" fill="#1D4042"/>
<path d="M77.7578 50.3029C75.5388 50.7488 75.9247 48.9844 75.0993 47.8438C74.2739 46.7032 72.4236 47.2285 71.2144 47.2199C70.7513 47.2199 70.2925 46.9412 69.7737 46.9562C66.7979 47.0527 68.4123 51.3663 65.1191 50.3008C66.9951 46.6046 68.2086 42.173 70.1553 38.5561C70.4748 37.9623 70.9829 37.0854 71.8019 37.3126C72.2241 37.503 72.5859 37.8056 72.8481 38.1874C73.9737 39.9025 76.6108 46.5488 77.3269 48.7078C77.5027 49.2395 77.5262 49.7798 77.7556 50.2986L77.7578 50.3029ZM69.1819 45.5476H73.5942L73.8579 45.0545L71.804 39.6003C71.4588 39.6238 71.4374 39.9647 71.3238 40.1877C70.4662 41.8728 69.9066 43.7981 69.1798 45.5476H69.1819Z" fill="#1D4042"/>
<path d="M91.91 19.6977C92.238 19.3783 92.7676 19.0888 93.2564 19.1381C93.5501 21.1749 93.2564 23.0594 95.782 23.4003C97.7116 23.6619 101.521 23.6533 103.618 23.6705C107.801 23.7048 111.965 23.2588 116.15 23.4218L115.313 19.8585C113.225 22.9651 107.985 22.3605 108.294 18.1026C108.388 16.7905 110.224 11.9666 111.547 11.5764C115.108 10.5173 118.204 16.3703 118.504 19.2946C118.664 20.8576 118.272 24.5924 117.702 26.0503C117.592 26.3604 117.399 26.634 117.143 26.8407C116.887 27.0473 116.579 27.179 116.253 27.2209C109.465 26.7513 101.721 27.8984 95.0466 27.2209C94.3981 27.1506 93.7645 26.9799 93.1685 26.7149C92.4739 26.6034 91.8821 24.7339 91.4705 24.8432C91.3869 24.8646 90.868 25.8959 90.4757 26.2346C89.7896 26.7702 88.9677 27.1036 88.1023 27.1973C84.6977 27.6046 75.573 27.6068 72.1513 27.2251C70.1917 27.0108 69.2869 25.6601 68.3372 24.1357C67.7969 25.2205 67.6511 25.9859 66.3797 26.4598C65.3742 26.8349 61.3521 27.2787 60.2287 27.2466C56.406 27.1394 58.0847 22.7979 58.6829 20.5639L59.4247 22.5535C59.4977 22.7159 59.61 22.8577 59.7515 22.9658C59.893 23.074 60.0592 23.1452 60.2351 23.1731C61.3779 23.3875 67.0036 23.2417 67.6382 22.2276C66.935 18.139 65.5436 14.7644 67.7454 10.8088L70.1917 21.3293C70.7405 22.83 71.2487 23.276 72.8588 23.426C77.6827 23.8763 83.212 23.0852 88.1131 23.4025C90.257 23.0723 90.7716 20.7976 91.9079 19.6934L91.91 19.6977ZM114.488 17.2343L111.727 15.8214L110.194 17.1078C111.637 18.6514 112.884 18.1798 114.482 17.2236L114.488 17.2343Z" fill="#1D4042"/>
<path d="M182.436 22.9393C180.618 25.5335 179.954 26.7192 176.592 26.9807C170.926 27.4202 164.674 26.9678 158.952 27.2187C157.451 27.0686 156.046 26.4254 155.736 24.8432C154.636 26.1682 153.881 27.0257 152.044 27.223C144.216 26.7577 135.694 27.8362 127.95 27.223C123.688 26.8885 122.766 24.706 122.18 20.8447C121.72 17.8003 121.651 14.4836 121.4 11.3941C121.312 10.3071 120.875 8.89211 120.916 7.83729C120.982 6.10925 122.264 4.25044 122.952 2.70679C123.115 2.70679 123.503 5.52395 123.546 5.92273C124.011 10.4122 123.838 15.8042 124.56 20.1372C125.452 25.4971 132.446 22.5299 136.058 23.6533C140.968 23.0508 147.312 24.0521 152.024 23.3853C154.704 23.0058 155.639 19.1231 156.812 19.1145L157.393 19.509C156.106 24.0113 162.11 23.8184 165.04 23.4046C163.973 19.3482 169.294 13.7203 173.258 13.7203C175.674 13.7203 179.69 16.3788 180.052 18.9044C179.036 18.6171 178.239 17.9053 177.186 17.603C173.949 16.6747 170.968 17.603 167.915 18.69C167.945 20.4331 169.086 21.8073 170.688 22.4205C171.296 22.631 171.915 22.8078 172.542 22.9501H182.436V22.9393Z" fill="#1D4042"/>
<path d="M87.6885 29.8816L90.9945 31.9441L92.8983 29.903L96.095 32.1049L93.8567 34.7848C93.4279 34.8148 91.3332 32.986 90.7372 32.9324C89.6502 32.8338 89.6202 34.5962 88.4646 34.4933C87.9651 34.4482 85.4823 32.9475 85.4009 32.5637L87.6885 29.8837V29.8816Z" fill="#1D4042"/>
<path d="M117.061 5.37195C117.355 5.88007 115.5 7.89968 115.071 8.3735L111.744 6.54041C110.76 6.4568 110.74 7.65956 110.243 7.97258C109.246 8.61577 107.241 6.69907 106.367 6.17165L108.864 3.4917L111.767 5.29906C114.064 3.65464 114.81 3.62462 117.061 5.36981V5.37195Z" fill="#1D4042"/>
<path d="M157.637 10.5795L154.895 13.4202C154.389 12.8478 152.415 11.66 152.395 10.9375C152.38 10.3672 154.166 8.4248 154.657 8.4248L157.637 10.5795Z" fill="#1D4042"/>
<path d="M65.8802 55.8451H66.0088C66.0973 55.841 66.1852 55.8603 66.2639 55.9008C66.3187 55.9291 66.363 55.9742 66.3904 56.0295C66.4173 56.1497 66.4274 56.2731 66.4204 56.3961V58.9174C66.4279 59.0369 66.4178 59.1568 66.3904 59.2733C66.369 59.3305 66.329 59.3788 66.2768 59.4105C66.1939 59.4525 66.1016 59.4725 66.0088 59.4684H65.8802V59.5734H67.8848V59.4684H67.7497C67.6608 59.4728 67.5722 59.4544 67.4924 59.4148C67.4376 59.3865 67.3933 59.3414 67.3659 59.2862C67.3366 59.1656 67.3258 59.0412 67.3338 58.9174V56.3961C67.3265 56.2766 67.3366 56.1568 67.3638 56.0402C67.3869 55.9832 67.4284 55.9357 67.4817 55.9051C67.5643 55.8621 67.6567 55.8414 67.7497 55.8451H67.8762V55.7422H65.8716L65.8802 55.8451Z" fill="#1D4042"/>
<path d="M71.7031 58.9965V57.9674C71.7115 57.7606 71.6964 57.5534 71.6581 57.35C71.621 57.2107 71.5416 57.0863 71.4308 56.9941C71.3097 56.8966 71.1574 56.8464 71.002 56.8526C70.8622 56.8513 70.7244 56.8852 70.6011 56.9512C70.4549 57.0372 70.3233 57.1458 70.2109 57.2728V56.9319H69.1389V57.0284C69.225 57.0296 69.3072 57.0642 69.3683 57.1249C69.4179 57.2426 69.4371 57.3708 69.4241 57.4979V58.9987C69.437 59.1238 69.4201 59.2501 69.3747 59.3674C69.3445 59.4001 69.3081 59.4264 69.2676 59.4448C69.2271 59.4632 69.1834 59.4733 69.1389 59.4746V59.5754H70.4746V59.4746C70.4357 59.4731 70.3975 59.4635 70.3625 59.4466C70.3274 59.4296 70.2963 59.4056 70.2709 59.376C70.2209 59.2569 70.2017 59.1271 70.2152 58.9987V57.5837C70.3545 57.3521 70.5046 57.2363 70.6676 57.2363C70.7157 57.236 70.7625 57.2519 70.8005 57.2814C70.8432 57.3151 70.874 57.3617 70.8884 57.4143C70.9118 57.5494 70.9204 57.6867 70.9141 57.8238V58.9987C70.9246 59.1179 70.9084 59.238 70.8669 59.3503C70.8432 59.3861 70.8115 59.416 70.7743 59.4376C70.7371 59.4592 70.6955 59.4718 70.6526 59.4746V59.5754H71.9904V59.4746C71.9038 59.4748 71.8207 59.4409 71.7588 59.3803C71.7094 59.2588 71.6903 59.1271 71.7031 58.9965Z" fill="#1D4042"/>
<path d="M74.3211 55.9565H74.2289C74.1107 56.1785 73.9668 56.3857 73.8001 56.574C73.6186 56.773 73.4151 56.9507 73.1934 57.1036V57.2022H73.5385V58.6301C73.5317 58.8035 73.5411 58.9772 73.5664 59.1489C73.6031 59.2732 73.6782 59.3828 73.7808 59.4619C73.9022 59.5586 74.0545 59.6081 74.2096 59.6013C74.3754 59.6028 74.5373 59.5508 74.6713 59.4531C74.8053 59.3554 74.9043 59.2172 74.9535 59.0589L74.8678 58.9967C74.7585 59.1832 74.6427 59.2775 74.5205 59.2775C74.4842 59.2742 74.4498 59.26 74.4218 59.2368C74.3863 59.2098 74.36 59.1723 74.3468 59.1296C74.3286 59.0321 74.3214 58.9329 74.3254 58.8337V57.2022H74.9535V56.9235H74.3254L74.3211 55.9565Z" fill="#1D4042"/>
<path d="M78.0407 57.1808C77.9557 57.0784 77.8493 56.9959 77.7288 56.9392C77.6084 56.8825 77.477 56.853 77.3439 56.8528C77.1846 56.8535 77.0274 56.8888 76.883 56.9562C76.7387 57.0235 76.6106 57.1214 76.5078 57.243C76.258 57.5351 76.1299 57.9119 76.1497 58.2957C76.1386 58.6146 76.223 58.9297 76.392 59.2004C76.4878 59.3471 76.6203 59.466 76.7765 59.5454C76.9326 59.6248 77.1068 59.6618 77.2817 59.6528C77.4968 59.6573 77.7077 59.5935 77.8842 59.4706C78.0914 59.3063 78.2548 59.0935 78.3601 58.851L78.2637 58.7888C78.187 58.9198 78.0867 59.0354 77.9678 59.1297C77.8767 59.1915 77.7691 59.2244 77.6591 59.224C77.5679 59.2233 77.4782 59.2017 77.3968 59.1608C77.3154 59.1199 77.2445 59.0609 77.1895 58.9882C77.0075 58.7499 76.9088 58.4583 76.9087 58.1585H78.3601C78.3721 57.8051 78.259 57.4589 78.0407 57.1808ZM76.8958 57.9676V57.869C76.8828 57.6282 76.9409 57.3888 77.063 57.1808C77.0866 57.1374 77.1212 57.1011 77.1634 57.0754C77.2056 57.0498 77.2538 57.0359 77.3032 57.035C77.3599 57.0322 77.4157 57.0505 77.4597 57.0865C77.5365 57.1542 77.5904 57.2441 77.614 57.3438C77.6561 57.5489 77.6727 57.7584 77.6633 57.9676H76.8958Z" fill="#1D4042"/>
<path d="M81.5503 56.8526C81.4125 56.8569 81.2793 56.9033 81.1687 56.9855C80.9829 57.1372 80.8266 57.3218 80.7077 57.5301V56.9319H79.6357V57.0284C79.7022 57.0322 79.7672 57.0497 79.8266 57.0798C79.8647 57.1094 79.8931 57.1497 79.908 57.1956C79.9277 57.2908 79.9349 57.3881 79.9295 57.4851V58.958C79.9452 59.1037 79.9245 59.251 79.8694 59.3867C79.839 59.4176 79.8025 59.4419 79.7624 59.4581C79.7222 59.4743 79.6791 59.4822 79.6357 59.4811V59.5819H81.0636V59.4811C80.9864 59.4807 80.9099 59.4654 80.8385 59.4361C80.7926 59.4123 80.7568 59.3727 80.7377 59.3246C80.7197 59.2546 80.7131 59.1822 80.7184 59.1102V58.3448C80.7161 58.1398 80.7465 57.9357 80.8085 57.7402C80.8395 57.6337 80.9005 57.5384 80.9843 57.4658C81.0262 57.4264 81.0812 57.4043 81.1387 57.4036C81.1621 57.4023 81.1853 57.4083 81.2051 57.4207C81.2502 57.4537 81.2932 57.4895 81.3338 57.5279C81.406 57.5914 81.4992 57.6258 81.5953 57.6244C81.6365 57.6232 81.6769 57.6131 81.7139 57.595C81.7508 57.5769 81.7835 57.5511 81.8097 57.5194C81.8757 57.4362 81.9086 57.3316 81.9019 57.2256C81.9051 57.1756 81.8984 57.1254 81.8823 57.078C81.8661 57.0305 81.8407 56.9867 81.8076 56.9491C81.7737 56.916 81.7334 56.8904 81.6891 56.8738C81.6448 56.8571 81.5975 56.8499 81.5503 56.8526Z" fill="#1D4042"/>
<path d="M85.669 58.9965V57.9674C85.6774 57.7606 85.6623 57.5534 85.6239 57.35C85.5885 57.2105 85.5097 57.0859 85.3988 56.9941C85.2777 56.8966 85.1254 56.8464 84.97 56.8526C84.8302 56.8513 84.6924 56.8852 84.5691 56.9512C84.423 57.0372 84.2913 57.1458 84.1789 57.2728V56.9319H83.1069V57.0284C83.1937 57.0293 83.2767 57.0639 83.3385 57.1249C83.387 57.2428 83.4054 57.371 83.3921 57.4979V58.9987C83.4053 59.1236 83.3891 59.2499 83.3449 59.3674C83.3144 59.4002 83.2776 59.4266 83.2367 59.445C83.1959 59.4634 83.1517 59.4735 83.1069 59.4746V59.5754H84.4448V59.4746C84.4041 59.4744 84.3639 59.4655 84.3269 59.4485C84.2899 59.4315 84.257 59.4068 84.2304 59.376C84.1825 59.2563 84.1641 59.1269 84.1768 58.9987V57.5837C84.3161 57.3521 84.4662 57.2363 84.6291 57.2363C84.6773 57.236 84.7241 57.2519 84.7621 57.2814C84.8041 57.3154 84.8342 57.3619 84.8478 57.4143C84.8712 57.5494 84.8798 57.6867 84.8736 57.8238V58.9987C84.8843 59.1178 84.869 59.2377 84.8285 59.3503C84.8048 59.3861 84.7731 59.416 84.7359 59.4376C84.6987 59.4592 84.657 59.4718 84.6141 59.4746V59.5754H85.952V59.4746C85.9091 59.4749 85.8665 59.4667 85.8268 59.4506C85.7871 59.4344 85.7509 59.4105 85.7204 59.3803C85.672 59.2585 85.6543 59.1267 85.669 58.9965Z" fill="#1D4042"/>
<path d="M89.618 59.2496C89.5938 59.2496 89.5703 59.2413 89.5516 59.226C89.5318 59.2074 89.5177 59.1836 89.5108 59.1574C89.4969 59.0825 89.4919 59.0062 89.4958 58.9301V57.9032C89.5048 57.7207 89.4918 57.5379 89.4572 57.3586C89.3989 57.217 89.2996 57.0961 89.1721 57.0113C88.9961 56.8965 88.788 56.8409 88.5782 56.8526C88.374 56.8517 88.1711 56.885 87.9779 56.9512C87.8056 57.0045 87.6504 57.1021 87.5277 57.2342C87.4278 57.34 87.3705 57.479 87.3669 57.6244C87.3643 57.6733 87.3725 57.722 87.3911 57.7673C87.4096 57.8125 87.438 57.8531 87.4741 57.886C87.5561 57.9585 87.6627 57.9968 87.7721 57.9932C87.8713 57.9976 87.9683 57.963 88.0422 57.8967C88.0752 57.8665 88.1014 57.8297 88.1191 57.7887C88.1368 57.7477 88.1457 57.7034 88.1451 57.6587C88.1398 57.5702 88.1015 57.4869 88.0379 57.4251C87.9953 57.3863 87.9673 57.3341 87.9586 57.2771C87.9602 57.2528 87.968 57.2292 87.9811 57.2086C87.9942 57.188 88.0123 57.171 88.0336 57.1592C88.1239 57.1022 88.2293 57.0738 88.3359 57.0777C88.408 57.0768 88.4788 57.0969 88.5396 57.1356C88.5933 57.167 88.636 57.2142 88.6618 57.2707C88.6909 57.3942 88.7018 57.5214 88.694 57.648V57.9139C88.2895 58.0778 87.9082 58.294 87.5598 58.5571C87.4806 58.6243 87.4164 58.7077 87.3717 58.8015C87.327 58.8954 87.3027 58.9977 87.3004 59.1016C87.2989 59.1704 87.3114 59.2388 87.3372 59.3026C87.363 59.3663 87.4016 59.4242 87.4505 59.4725C87.4998 59.5212 87.5585 59.5594 87.623 59.5848C87.6875 59.6102 87.7564 59.6223 87.8257 59.6205C88.1534 59.584 88.4575 59.432 88.6833 59.1917C88.6921 59.315 88.7481 59.4302 88.8398 59.5133C88.9414 59.5894 89.0669 59.6267 89.1935 59.6183C89.3146 59.6207 89.4337 59.588 89.5366 59.524C89.6543 59.4445 89.7538 59.3407 89.8281 59.2195L89.7445 59.1531C89.7081 59.2131 89.6588 59.2496 89.618 59.2496ZM88.7069 58.9773C88.6189 59.0661 88.5031 59.1221 88.3788 59.1359C88.3423 59.1379 88.3058 59.1321 88.2718 59.1188C88.2378 59.1055 88.207 59.085 88.1816 59.0588C88.1516 59.029 88.1278 58.9936 88.1117 58.9546C88.0955 58.9156 88.0872 58.8737 88.0872 58.8315C88.0905 58.7193 88.1295 58.6111 88.1987 58.5228C88.338 58.3475 88.5107 58.2017 88.7069 58.094V58.9773Z" fill="#1D4042"/>
<path d="M92.1028 55.9565H92.0106C91.8924 56.1785 91.7485 56.3857 91.5818 56.574C91.4004 56.773 91.1968 56.9507 90.9751 57.1036V57.2022H91.3203V58.6301C91.3135 58.8035 91.3228 58.9772 91.3482 59.1489C91.3849 59.2732 91.4599 59.3828 91.5625 59.4619C91.684 59.5586 91.8363 59.6081 91.9913 59.6013C92.1572 59.6028 92.3191 59.5508 92.453 59.4531C92.587 59.3554 92.686 59.2172 92.7353 59.0589L92.6495 58.9967C92.5402 59.1832 92.4244 59.2775 92.3022 59.2775C92.266 59.2742 92.2316 59.26 92.2036 59.2368C92.168 59.2098 92.1418 59.1723 92.1285 59.1296C92.1104 59.0321 92.1032 58.9329 92.1071 58.8337V57.2022H92.7353V56.9235H92.1071L92.1028 55.9565Z" fill="#1D4042"/>
<path d="M94.9351 59.0246V56.9321H93.8267V57.0286C93.9189 57.0245 94.0089 57.0569 94.0775 57.1187C94.1354 57.2285 94.1586 57.3534 94.144 57.4767V59.0182C94.1582 59.1364 94.1381 59.2563 94.0861 59.3634C94.0525 59.3979 94.0121 59.4249 93.9674 59.4426C93.9227 59.4603 93.8747 59.4684 93.8267 59.4663V59.5671H95.2545V59.4663C95.161 59.4706 95.0695 59.4383 94.9994 59.3762C94.9452 59.2675 94.9229 59.1456 94.9351 59.0246Z" fill="#1D4042"/>
<path d="M98.3204 57.0285C98.1269 56.9101 97.9041 56.8485 97.6772 56.8505C97.5033 56.8433 97.3302 56.8786 97.1729 56.9533C97.0156 57.028 96.8789 57.1399 96.7746 57.2793C96.5552 57.5622 96.4394 57.9119 96.4466 58.2698C96.4409 58.62 96.5543 58.9616 96.7682 59.2389C96.8765 59.3776 97.0166 59.488 97.1768 59.5608C97.3369 59.6336 97.5123 59.6666 97.688 59.657C97.8718 59.6641 98.0546 59.6263 98.2205 59.5467C98.3864 59.4671 98.5304 59.3482 98.6399 59.2003C98.8366 58.9268 98.9369 58.5958 98.925 58.2591C98.9278 58.0112 98.8751 57.7658 98.7707 57.5409C98.6765 57.3281 98.5193 57.1492 98.3204 57.0285ZM98.0374 59.1167C98.0202 59.2198 97.9688 59.3142 97.8916 59.3847C97.8308 59.4329 97.7548 59.458 97.6772 59.4554C97.6335 59.455 97.5903 59.4454 97.5504 59.4273C97.5105 59.4092 97.4749 59.383 97.4457 59.3504C97.3713 59.2651 97.3255 59.1586 97.3149 59.0459C97.2866 58.8586 97.2729 58.6694 97.2742 58.4799C97.2742 58.1005 97.2849 57.8024 97.3063 57.588C97.3067 57.4344 97.3546 57.2846 97.4435 57.1593C97.4745 57.1245 97.5125 57.0967 97.555 57.0779C97.5975 57.059 97.6436 57.0495 97.6901 57.0499C97.7589 57.046 97.8267 57.0674 97.8809 57.1099C97.9607 57.1777 98.0163 57.2695 98.0396 57.3715C98.085 57.5885 98.103 57.8104 98.0932 58.0318C98.1042 58.3951 98.0855 58.7586 98.0374 59.1188V59.1167Z" fill="#1D4042"/>
<path d="M102.816 58.9965V57.9674C102.825 57.7606 102.81 57.5534 102.771 57.35C102.734 57.2107 102.655 57.0863 102.544 56.9941C102.423 56.8966 102.271 56.8464 102.115 56.8526C101.976 56.8513 101.838 56.8852 101.714 56.9512C101.568 57.0372 101.437 57.1458 101.324 57.2728V56.9319H100.252V57.0284C100.338 57.0296 100.421 57.0642 100.482 57.1249C100.531 57.2426 100.55 57.3708 100.537 57.4979V58.9987C100.55 59.1238 100.533 59.2501 100.488 59.3674C100.458 59.4003 100.422 59.4267 100.381 59.4451C100.341 59.4636 100.297 59.4736 100.252 59.4746V59.5754H101.588V59.4746C101.549 59.4731 101.511 59.4635 101.476 59.4466C101.441 59.4296 101.41 59.4056 101.384 59.376C101.335 59.2566 101.316 59.1271 101.328 58.9987V57.5837C101.468 57.3521 101.618 57.2363 101.781 57.2363C101.83 57.2355 101.877 57.2514 101.916 57.2814C101.957 57.3159 101.987 57.3623 102.002 57.4143C102.025 57.5494 102.034 57.6867 102.027 57.8238V58.9987C102.038 59.1178 102.023 59.2377 101.982 59.3503C101.958 59.3857 101.926 59.4152 101.889 59.4368C101.852 59.4583 101.811 59.4712 101.768 59.4746V59.5754H103.106V59.4746C103.019 59.4748 102.936 59.4409 102.874 59.3803C102.824 59.259 102.804 59.1272 102.816 58.9965Z" fill="#1D4042"/>
<path d="M106.755 59.2496C106.731 59.2493 106.709 59.241 106.69 59.2261C106.669 59.2083 106.654 59.1843 106.648 59.1574C106.635 59.0824 106.63 59.0063 106.633 58.9302V57.9032C106.641 57.7208 106.629 57.538 106.594 57.3587C106.537 57.2162 106.437 57.0949 106.309 57.0113C106.133 56.8963 105.925 56.8406 105.715 56.8527C105.511 56.8518 105.308 56.8851 105.115 56.9513C104.943 57.0051 104.789 57.1026 104.667 57.2343C104.567 57.3401 104.509 57.4791 104.506 57.6245C104.504 57.6744 104.514 57.724 104.535 57.7694C104.556 57.8147 104.587 57.8547 104.626 57.8861C104.708 57.9585 104.814 57.9969 104.924 57.9933C105.023 57.9977 105.12 57.9631 105.194 57.8968C105.227 57.8666 105.253 57.8298 105.271 57.7888C105.289 57.7478 105.297 57.7035 105.297 57.6588C105.291 57.5705 105.253 57.4874 105.19 57.4251C105.146 57.387 105.118 57.3344 105.11 57.2772C105.112 57.253 105.119 57.2295 105.132 57.2089C105.144 57.1882 105.162 57.1712 105.183 57.1593C105.273 57.1023 105.379 57.0739 105.486 57.0778C105.558 57.0769 105.628 57.097 105.689 57.1357C105.743 57.1671 105.786 57.2142 105.811 57.2708C105.843 57.3939 105.854 57.5213 105.846 57.6481V57.9139C105.441 58.0773 105.06 58.2936 104.712 58.5571C104.632 58.624 104.567 58.7073 104.523 58.8012C104.478 58.8952 104.454 58.9977 104.452 59.1017C104.45 59.1706 104.462 59.2391 104.488 59.3029C104.514 59.3668 104.553 59.4245 104.602 59.4726C104.651 59.5215 104.71 59.5598 104.775 59.5852C104.839 59.6107 104.908 59.6227 104.977 59.6205C105.309 59.5856 105.617 59.4336 105.846 59.1917C105.854 59.3148 105.909 59.4301 106 59.5133C106.102 59.5888 106.227 59.626 106.354 59.6184C106.475 59.6212 106.594 59.5884 106.697 59.5241C106.815 59.4447 106.915 59.3409 106.991 59.2196L106.905 59.1532C106.853 59.2132 106.804 59.2496 106.755 59.2496ZM105.846 58.9774C105.758 59.0662 105.642 59.1222 105.518 59.136C105.481 59.1382 105.444 59.1324 105.41 59.1191C105.375 59.1058 105.344 59.0852 105.318 59.0588C105.289 59.029 105.265 58.9935 105.249 58.9545C105.234 58.9154 105.226 58.8737 105.226 58.8316C105.228 58.7196 105.267 58.6113 105.335 58.5228C105.475 58.3471 105.649 58.2012 105.846 58.094V58.9774Z" fill="#1D4042"/>
<path d="M109.235 59.0246V55.7422H108.127V55.8451C108.22 55.8416 108.31 55.8738 108.38 55.9351C108.436 56.0442 108.458 56.1672 108.444 56.2889V59.0246C108.458 59.1426 108.439 59.2621 108.389 59.3698C108.354 59.4041 108.314 59.431 108.269 59.4487C108.224 59.4664 108.175 59.4746 108.127 59.4727V59.5734H109.557V59.4727C109.464 59.4765 109.372 59.4443 109.302 59.3826C109.246 59.2722 109.223 59.1478 109.235 59.0246Z" fill="#1D4042"/>
<path d="M112.685 56.7777H112.792C112.819 56.5341 112.929 56.3071 113.103 56.1345C113.263 56.011 113.464 55.9521 113.665 55.9694H113.944V58.926C113.952 59.0456 113.941 59.1657 113.911 59.2819C113.889 59.3392 113.848 59.3875 113.796 59.4191C113.713 59.4611 113.62 59.481 113.528 59.477H113.399V59.582H115.406V59.477H115.279C115.19 59.4819 115.102 59.4634 115.022 59.4234C114.966 59.3957 114.921 59.3505 114.893 59.2947C114.864 59.1741 114.853 59.0498 114.861 58.926V55.9566H115.146C115.274 55.9486 115.403 55.966 115.524 56.008C115.644 56.065 115.748 56.1512 115.826 56.2589C115.921 56.4181 115.988 56.592 116.025 56.7734H116.128V55.7422H112.685V56.7777Z" fill="#1D4042"/>
<path d="M118.943 56.8525C118.805 56.8568 118.672 56.9032 118.562 56.9854C118.376 57.137 118.219 57.3217 118.101 57.53V56.9318H117.029V57.0283C117.095 57.0321 117.16 57.0496 117.219 57.0797C117.258 57.1093 117.286 57.1496 117.301 57.1955C117.321 57.2906 117.328 57.3879 117.322 57.4849V58.9578C117.338 59.1035 117.317 59.2509 117.262 59.3866C117.232 59.4175 117.195 59.4418 117.155 59.458C117.115 59.4742 117.072 59.482 117.029 59.481V59.5817H118.456V59.481C118.379 59.4806 118.303 59.4653 118.231 59.436C118.185 59.4122 118.15 59.3726 118.131 59.3245C118.112 59.2545 118.106 59.1821 118.111 59.1101V58.3447C118.109 58.1396 118.139 57.9355 118.201 57.7401C118.232 57.6336 118.293 57.5383 118.377 57.4657C118.419 57.4263 118.474 57.4042 118.531 57.4035C118.555 57.4022 118.578 57.4082 118.598 57.4206C118.643 57.4536 118.686 57.4894 118.727 57.5278C118.798 57.5913 118.891 57.6257 118.986 57.6243C119.027 57.6229 119.068 57.6128 119.104 57.5947C119.141 57.5766 119.174 57.5509 119.2 57.5193C119.266 57.4361 119.299 57.3315 119.293 57.2255C119.296 57.1755 119.289 57.1253 119.273 57.0779C119.257 57.0304 119.231 56.9866 119.198 56.949C119.165 56.9162 119.125 56.8907 119.081 56.8741C119.037 56.8575 118.99 56.8501 118.943 56.8525Z" fill="#1D4042"/>
<path d="M122.862 59.2496C122.838 59.2497 122.815 59.2413 122.796 59.2261C122.776 59.2075 122.762 59.1837 122.755 59.1574C122.741 59.0825 122.736 59.0063 122.74 58.9302V57.9032C122.749 57.7208 122.736 57.538 122.701 57.3587C122.643 57.2171 122.544 57.0962 122.416 57.0113C122.24 56.8963 122.032 56.8406 121.822 56.8527C121.618 56.8518 121.415 56.8851 121.222 56.9513C121.05 57.0051 120.895 57.1026 120.772 57.2343C120.672 57.3401 120.615 57.4791 120.611 57.6245C120.612 57.6725 120.623 57.7199 120.643 57.7632C120.664 57.8065 120.694 57.8448 120.731 57.8754C120.813 57.9478 120.92 57.9862 121.029 57.9826C121.128 57.987 121.225 57.9523 121.299 57.8861C121.332 57.8559 121.358 57.8191 121.376 57.7781C121.394 57.7371 121.403 57.6928 121.402 57.6481C121.397 57.5596 121.359 57.4762 121.295 57.4144C121.252 57.3757 121.224 57.3234 121.216 57.2665C121.217 57.2421 121.225 57.2185 121.238 57.1979C121.251 57.1773 121.269 57.1604 121.291 57.1486C121.381 57.0915 121.486 57.0632 121.593 57.0671C121.669 57.064 121.744 57.0842 121.807 57.125C121.861 57.1564 121.904 57.2035 121.93 57.26C121.959 57.3836 121.97 57.5107 121.962 57.6374V57.9032C121.558 58.0665 121.177 58.2828 120.83 58.5464C120.75 58.6132 120.685 58.6964 120.64 58.7903C120.595 58.8843 120.57 58.9868 120.568 59.091C120.567 59.1598 120.579 59.2281 120.605 59.2919C120.631 59.3557 120.669 59.4135 120.718 59.4619C120.768 59.5105 120.826 59.5487 120.891 59.5741C120.955 59.5996 121.024 59.6117 121.094 59.6098C121.421 59.5734 121.725 59.4214 121.951 59.181C121.96 59.3044 122.016 59.4196 122.108 59.5026C122.209 59.5788 122.335 59.616 122.461 59.6077C122.582 59.6101 122.702 59.5773 122.804 59.5133C122.922 59.4338 123.022 59.33 123.096 59.2089L123.012 59.1424C122.961 59.2132 122.912 59.2496 122.862 59.2496ZM121.951 58.9774C121.863 59.0662 121.747 59.1222 121.623 59.136C121.587 59.138 121.55 59.1322 121.516 59.1188C121.482 59.1055 121.451 59.0851 121.426 59.0588C121.396 59.0291 121.372 58.9937 121.356 58.9546C121.34 58.9156 121.331 58.8738 121.331 58.8316C121.335 58.7194 121.374 58.6112 121.443 58.5228C121.582 58.3476 121.755 58.2018 121.951 58.094V58.9774Z" fill="#1D4042"/>
<path d="M126.895 59.1468C126.878 59.0261 126.872 58.9041 126.878 58.7823V55.7422H125.705V55.8601C125.792 55.8534 125.878 55.8666 125.958 55.8987C126.004 55.9278 126.04 55.9705 126.061 56.0209C126.084 56.1409 126.092 56.2634 126.085 56.3854V57.1829C125.997 57.0786 125.891 56.9914 125.772 56.9257C125.667 56.8752 125.552 56.8502 125.435 56.8528C125.239 56.8521 125.047 56.912 124.886 57.0243C124.706 57.152 124.566 57.3292 124.483 57.5345C124.381 57.7766 124.331 58.0373 124.335 58.2999C124.325 58.6169 124.408 58.93 124.573 59.2004C124.654 59.34 124.771 59.4555 124.912 59.5351C125.052 59.6146 125.212 59.6552 125.373 59.6528C125.497 59.6545 125.62 59.6242 125.729 59.5649C125.867 59.4774 125.987 59.3655 126.085 59.2347V59.6528L127.202 59.4384V59.344C127.127 59.3441 127.053 59.3249 126.987 59.2883C126.94 59.2547 126.907 59.2041 126.895 59.1468ZM126.085 58.9324C125.939 59.1918 125.783 59.3226 125.617 59.3226C125.554 59.3269 125.49 59.3079 125.44 59.269C125.341 59.1748 125.271 59.0543 125.238 58.9217C125.18 58.6789 125.155 58.4293 125.165 58.1799C125.156 57.9528 125.179 57.7256 125.232 57.5045C125.258 57.3884 125.317 57.2821 125.401 57.1979C125.45 57.1584 125.512 57.1378 125.575 57.14C125.776 57.14 125.946 57.2751 126.085 57.541V58.9324Z" fill="#1D4042"/>
<path d="M130.368 57.1808C130.283 57.0785 130.177 56.996 130.056 56.9394C129.936 56.8827 129.805 56.8531 129.671 56.8528C129.512 56.8535 129.354 56.8887 129.21 56.9561C129.065 57.0235 128.936 57.1213 128.833 57.243C128.583 57.5351 128.455 57.9119 128.475 58.2957C128.464 58.615 128.549 58.9303 128.72 59.2004C128.815 59.3472 128.948 59.4663 129.104 59.5457C129.26 59.6251 129.434 59.662 129.609 59.6528C129.824 59.657 130.035 59.5933 130.212 59.4706C130.418 59.3062 130.581 59.0933 130.686 58.851L130.589 58.7888C130.512 58.9198 130.412 59.0354 130.293 59.1297C130.202 59.1918 130.095 59.2248 129.985 59.224C129.893 59.2233 129.804 59.2017 129.722 59.1608C129.641 59.1199 129.57 59.0609 129.515 58.9882C129.334 58.7496 129.236 58.4581 129.236 58.1585H130.686C130.698 57.8054 130.586 57.4592 130.368 57.1808ZM129.221 57.9676V57.869C129.208 57.6282 129.266 57.3888 129.388 57.1808C129.412 57.1376 129.447 57.1013 129.489 57.0757C129.531 57.0501 129.579 57.0361 129.629 57.035C129.686 57.0319 129.743 57.0502 129.787 57.0865C129.863 57.1548 129.917 57.2445 129.942 57.3438C129.983 57.549 129.999 57.7585 129.991 57.9676H129.221Z" fill="#1D4042"/>
<path d="M138.185 59.0824C138.098 59.0805 138.012 59.0561 137.937 59.0116C137.768 58.9068 137.611 58.7855 137.467 58.6493C137.657 58.4218 137.828 58.1786 137.977 57.9225C138.051 57.7691 138.151 57.6292 138.271 57.5087C138.362 57.4428 138.47 57.4022 138.582 57.3908V57.2815H137.405V57.3908C137.494 57.3954 137.579 57.431 137.645 57.4916C137.672 57.5177 137.693 57.5491 137.707 57.5837C137.722 57.6184 137.729 57.6556 137.729 57.6931C137.729 57.9075 137.589 58.1841 137.313 58.4949C136.954 58.1286 136.639 57.7213 136.376 57.2815C136.653 57.1934 136.91 57.0521 137.133 56.8655C137.209 56.796 137.27 56.7112 137.311 56.6167C137.352 56.5221 137.373 56.4199 137.373 56.3167C137.371 56.2269 137.349 56.1387 137.309 56.0585C137.268 55.9783 137.21 55.9083 137.139 55.8536C136.959 55.7128 136.735 55.6419 136.507 55.6542C136.358 55.6483 136.21 55.6718 136.07 55.7233C135.931 55.7748 135.803 55.8533 135.694 55.9543C135.591 56.0502 135.509 56.1668 135.455 56.2966C135.4 56.4263 135.373 56.5661 135.377 56.7069C135.378 56.8214 135.39 56.9356 135.413 57.0478C135.439 57.1702 135.475 57.29 135.522 57.4058C135.195 57.5232 134.895 57.708 134.643 57.9482C134.547 58.0449 134.47 58.1599 134.418 58.2865C134.366 58.4132 134.34 58.5489 134.341 58.6858C134.341 58.816 134.37 58.9446 134.424 59.0627C134.479 59.1808 134.559 59.2856 134.658 59.3697C134.895 59.5747 135.203 59.6793 135.516 59.6613C135.735 59.6618 135.952 59.6263 136.159 59.5562C136.395 59.4707 136.618 59.3546 136.824 59.211C136.968 59.3512 137.131 59.471 137.308 59.5669C137.442 59.6304 137.589 59.6627 137.737 59.6613C137.901 59.6641 138.061 59.6136 138.194 59.5176C138.406 59.3435 138.575 59.1236 138.689 58.8744L138.573 58.8123C138.538 58.8874 138.484 58.952 138.416 58.9995C138.347 59.0469 138.268 59.0755 138.185 59.0824ZM136.116 55.9972C136.144 55.9644 136.179 55.9382 136.218 55.9205C136.258 55.9027 136.3 55.8937 136.344 55.8943C136.397 55.8943 136.449 55.9074 136.497 55.9325C136.544 55.9575 136.584 55.9937 136.614 56.038C136.728 56.1922 136.786 56.3802 136.781 56.5718C136.783 56.6819 136.748 56.7894 136.68 56.8763C136.569 56.9867 136.432 57.0678 136.281 57.1121C136.2 56.9383 136.128 56.7601 136.067 56.5782C136.038 56.4815 136.023 56.3812 136.022 56.2802C136.016 56.1773 136.05 56.0761 136.116 55.9972ZM136.356 59.1724C136.28 59.202 136.198 59.2179 136.116 59.2196C135.962 59.2145 135.813 59.1645 135.688 59.076C135.534 58.9703 135.406 58.8309 135.314 58.6686C135.216 58.5092 135.163 58.3263 135.16 58.139C135.161 58.009 135.208 57.8835 135.293 57.7853C135.384 57.6955 135.493 57.6261 135.612 57.5816C135.88 58.1189 136.232 58.6091 136.657 59.0331C136.562 59.0901 136.461 59.1368 136.356 59.1724Z" fill="#1D4042"/>
<path d="M145.477 58.9131C145.391 59.0549 145.27 59.1717 145.125 59.2519C144.967 59.3281 144.793 59.3649 144.617 59.359H144.289C144.174 59.3652 144.059 59.3566 143.946 59.3333C143.917 59.3231 143.89 59.3073 143.868 59.2867C143.845 59.2661 143.826 59.2411 143.813 59.2133C143.784 59.0904 143.774 58.964 143.781 58.8381V56.3961C143.773 56.2766 143.783 56.1566 143.811 56.0402C143.833 55.983 143.874 55.9352 143.927 55.9051C144.01 55.8626 144.102 55.8419 144.195 55.8451H144.362V55.7422H142.319V55.8451H142.445C142.534 55.8414 142.623 55.8605 142.703 55.9008C142.757 55.9286 142.801 55.9739 142.827 56.0295C142.856 56.1493 142.867 56.273 142.859 56.3961V58.9174C142.868 59.037 142.857 59.1571 142.827 59.2733C142.806 59.3302 142.767 59.3786 142.715 59.4105C142.632 59.4525 142.539 59.4724 142.445 59.4684H142.319V59.5734H145.721L145.867 58.2292H145.749C145.689 58.4683 145.598 58.6983 145.477 58.9131Z" fill="#1D4042"/>
<path d="M149.085 57.0286C148.892 56.9104 148.669 56.8488 148.442 56.8506C148.268 56.8431 148.094 56.8782 147.937 56.9529C147.779 57.0276 147.642 57.1397 147.537 57.2794C147.318 57.5623 147.202 57.9119 147.209 58.2699C147.204 58.62 147.317 58.9617 147.531 59.239C147.639 59.3776 147.779 59.4881 147.939 59.5609C148.1 59.6337 148.275 59.6667 148.451 59.6571C148.635 59.6644 148.817 59.6266 148.983 59.547C149.149 59.4674 149.293 59.3484 149.403 59.2004C149.599 58.9269 149.7 58.5959 149.688 58.2592C149.69 58.0113 149.638 57.7659 149.533 57.541C149.44 57.3285 149.283 57.1497 149.085 57.0286ZM148.802 59.1168C148.784 59.2201 148.732 59.3144 148.654 59.3848C148.59 59.4359 148.508 59.4608 148.426 59.4544C148.343 59.4481 148.267 59.4109 148.211 59.3505C148.136 59.2649 148.09 59.1587 148.078 59.046C148.051 58.8585 148.038 58.6694 148.039 58.48C148.039 58.1005 148.039 57.8025 148.071 57.5881C148.072 57.4349 148.119 57.2855 148.206 57.1593C148.238 57.1245 148.276 57.0968 148.319 57.0779C148.362 57.0591 148.408 57.0495 148.455 57.05C148.524 57.0461 148.592 57.0675 148.646 57.11C148.725 57.1778 148.781 57.2696 148.804 57.3716C148.85 57.5886 148.868 57.8104 148.858 58.0319C148.869 58.3952 148.85 58.7587 148.802 59.1189V59.1168Z" fill="#1D4042"/>
<path d="M153.294 59.4018C153.036 59.2942 152.756 59.2493 152.477 59.271H151.988C151.899 59.2793 151.809 59.2558 151.735 59.2045C151.71 59.1852 151.689 59.1602 151.676 59.1315C151.662 59.1028 151.655 59.0713 151.656 59.0395C151.656 59.0019 151.663 58.9648 151.679 58.9304C151.694 58.8961 151.716 58.8653 151.744 58.8401C151.772 58.8123 151.806 58.7906 151.842 58.7762C151.879 58.7618 151.919 58.7551 151.958 58.7564L152.297 58.7693C152.463 58.7632 152.626 58.7238 152.777 58.6535C152.946 58.5842 153.094 58.4718 153.206 58.3277C153.312 58.1862 153.367 58.0133 153.362 57.8367C153.363 57.7265 153.34 57.6175 153.294 57.5172C153.245 57.4233 153.181 57.3384 153.103 57.2664H153.609V56.9555H152.717C152.545 56.8854 152.361 56.8483 152.175 56.8462C151.878 56.8342 151.587 56.9353 151.362 57.1292C151.263 57.2107 151.183 57.3132 151.128 57.4292C151.074 57.5452 151.045 57.6719 151.045 57.8002C151.041 57.9887 151.101 58.1729 151.214 58.3234C151.358 58.495 151.549 58.6215 151.763 58.6878C151.581 58.7545 151.418 58.8641 151.287 59.0073C151.194 59.1125 151.141 59.2467 151.137 59.3868C151.141 59.4979 151.179 59.6052 151.245 59.6949C151.31 59.7846 151.401 59.8528 151.506 59.8906C151.371 59.9153 151.245 59.9752 151.141 60.0643C151.08 60.1257 151.045 60.2089 151.045 60.2958C151.047 60.3454 151.059 60.3941 151.081 60.4387C151.103 60.4834 151.134 60.523 151.171 60.5552C151.295 60.6554 151.443 60.7219 151.6 60.7482C151.811 60.7951 152.027 60.8181 152.243 60.8168C152.529 60.8218 152.813 60.7745 153.082 60.6774C153.236 60.6202 153.371 60.5197 153.47 60.388C153.565 60.2652 153.617 60.1145 153.618 59.9592C153.622 59.8451 153.595 59.7319 153.537 59.6332C153.48 59.5344 153.395 59.4541 153.294 59.4018ZM151.947 57.1914C151.976 57.1432 152.016 57.103 152.064 57.0745C152.112 57.046 152.166 57.0302 152.222 57.0284C152.273 57.0266 152.323 57.0384 152.368 57.0625C152.413 57.0866 152.45 57.1222 152.477 57.1656C152.582 57.3789 152.626 57.6172 152.604 57.8538C152.623 58.0625 152.585 58.2726 152.492 58.4606C152.461 58.5075 152.419 58.5462 152.37 58.5731C152.32 58.6 152.265 58.6144 152.209 58.6149C152.155 58.6132 152.103 58.598 152.056 58.5706C152.01 58.5433 151.971 58.5047 151.943 58.4584C151.853 58.2797 151.814 58.0792 151.832 57.8796C151.808 57.6446 151.846 57.4076 151.941 57.1914H151.947ZM152.927 60.5231C152.731 60.6019 152.521 60.6377 152.31 60.6281C152.093 60.6481 151.876 60.6072 151.682 60.5102C151.634 60.4841 151.594 60.4465 151.565 60.4008C151.535 60.3551 151.518 60.3028 151.514 60.2486C151.516 60.1977 151.532 60.1483 151.561 60.1064C151.59 60.0645 151.63 60.032 151.677 60.0128C151.8 59.9709 151.93 59.9541 152.059 59.9635C152.333 59.955 152.607 59.9657 152.88 59.9957C152.967 60.0077 153.048 60.0485 153.109 60.1114C153.138 60.144 153.153 60.1861 153.152 60.2293C153.149 60.2962 153.125 60.3604 153.083 60.413C153.042 60.4656 152.985 60.5041 152.921 60.5231H152.927Z" fill="#1D4042"/>
<path d="M155.866 59.0246V56.9321H154.758V57.0286C154.85 57.0245 154.94 57.0569 155.009 57.1187C155.067 57.2285 155.09 57.3534 155.075 57.4767V59.0182C155.09 59.1364 155.07 59.2563 155.017 59.3634C154.984 59.3979 154.943 59.4249 154.899 59.4426C154.854 59.4603 154.806 59.4684 154.758 59.4663V59.5671H156.186V59.4663C156.092 59.4706 156.001 59.4383 155.931 59.3762C155.877 59.2675 155.854 59.1456 155.866 59.0246Z" fill="#1D4042"/>
<path d="M158.527 57.8646C158.343 57.7532 158.173 57.62 158.021 57.468C158.001 57.445 157.986 57.4183 157.977 57.3894C157.967 57.3605 157.964 57.33 157.966 57.2997C157.968 57.2694 157.977 57.2398 157.991 57.2128C158.005 57.1857 158.024 57.1617 158.047 57.1421C158.1 57.0914 158.171 57.0637 158.244 57.065C158.38 57.0688 158.511 57.1204 158.613 57.2107C158.774 57.3627 158.897 57.5508 158.971 57.7596H159.068L159.025 56.857H158.928C158.902 56.9021 158.869 56.9427 158.83 56.977C158.806 56.993 158.777 57.0005 158.748 56.9985C158.704 56.9951 158.661 56.9803 158.624 56.9556C158.495 56.8883 158.353 56.8529 158.208 56.8527C158.094 56.8452 157.981 56.8636 157.875 56.9062C157.77 56.9489 157.675 57.0149 157.599 57.0992C157.462 57.2513 157.386 57.448 157.385 57.6524C157.385 57.8391 157.451 58.0198 157.571 58.1627C157.738 58.3385 157.926 58.4927 158.131 58.6215C158.268 58.7076 158.395 58.8082 158.51 58.9216C158.566 58.9866 158.596 59.0698 158.594 59.1553C158.594 59.1931 158.587 59.2305 158.572 59.2652C158.558 59.3 158.536 59.3312 158.508 59.3568C158.45 59.4115 158.373 59.4415 158.294 59.4405C158.137 59.4294 157.989 59.3633 157.875 59.2539C157.71 59.103 157.589 58.9094 157.526 58.6944H157.43L157.475 59.6441H157.569C157.61 59.5498 157.662 59.5026 157.723 59.5026C157.763 59.5074 157.802 59.5183 157.839 59.5348C158 59.6026 158.171 59.6424 158.345 59.6527C158.501 59.6558 158.654 59.6165 158.789 59.5391C158.923 59.4651 159.031 59.3522 159.1 59.2153C159.171 59.0834 159.209 58.9363 159.211 58.7866C159.213 58.6299 159.166 58.4766 159.078 58.347C158.924 58.1555 158.737 57.9923 158.527 57.8646Z" fill="#1D4042"/>
<path d="M161.576 55.9565H161.484C161.366 56.1785 161.222 56.3857 161.055 56.574C160.874 56.773 160.67 56.9507 160.448 57.1036V57.2022H160.793V58.6301C160.787 58.8035 160.796 58.9772 160.821 59.1489C160.858 59.2732 160.933 59.3828 161.036 59.4619C161.157 59.5586 161.309 59.6081 161.464 59.6013C161.63 59.6028 161.792 59.5508 161.926 59.4531C162.06 59.3554 162.159 59.2172 162.208 59.0589L162.123 58.9967C162.013 59.1832 161.908 59.2775 161.775 59.2775C161.739 59.2742 161.705 59.26 161.677 59.2368C161.641 59.2098 161.615 59.1723 161.602 59.1296C161.584 59.0321 161.576 58.9329 161.58 58.8337V57.2022H162.208V56.9235H161.58L161.576 55.9565Z" fill="#1D4042"/>
<path d="M164.408 59.0246V56.9321H163.3V57.0286C163.392 57.0245 163.482 57.0569 163.55 57.1187C163.607 57.2291 163.63 57.3534 163.617 57.4767V59.0182C163.631 59.1364 163.611 59.2563 163.559 59.3634C163.525 59.3977 163.485 59.4245 163.44 59.4422C163.395 59.4599 163.348 59.4681 163.3 59.4663V59.5671H164.727V59.4663C164.634 59.4706 164.542 59.4383 164.472 59.3762C164.418 59.2675 164.396 59.1456 164.408 59.0246Z" fill="#1D4042"/>
<path d="M167.768 59.1379C167.668 59.1897 167.556 59.212 167.444 59.2022C167.333 59.1923 167.226 59.1506 167.137 59.0822C166.984 58.9463 166.871 58.7704 166.811 58.574C166.732 58.3445 166.692 58.1031 166.693 57.8601C166.678 57.6285 166.729 57.3973 166.839 57.1933C166.862 57.1514 166.896 57.1162 166.936 57.091C166.977 57.0658 167.023 57.0516 167.071 57.0497C167.1 57.0504 167.129 57.057 167.155 57.0691C167.182 57.0813 167.206 57.0988 167.225 57.1204C167.278 57.1928 167.306 57.2798 167.307 57.3691C167.307 57.5113 167.355 57.6492 167.442 57.7615C167.477 57.798 167.52 57.8268 167.567 57.846C167.614 57.8652 167.665 57.8744 167.716 57.873C167.763 57.8751 167.81 57.8676 167.854 57.851C167.897 57.8344 167.937 57.8091 167.971 57.7765C168.005 57.7428 168.031 57.7026 168.048 57.6583C168.065 57.614 168.072 57.5666 168.07 57.5192C168.067 57.4292 168.043 57.341 168.001 57.2612C167.959 57.1814 167.9 57.1121 167.828 57.0583C167.646 56.9117 167.418 56.8356 167.184 56.8439C166.996 56.838 166.809 56.8801 166.641 56.9664C166.474 57.0527 166.331 57.1802 166.226 57.337C166.033 57.6158 165.933 57.9479 165.939 58.2868C165.93 58.6334 166.042 58.9724 166.256 59.2451C166.355 59.374 166.483 59.4775 166.63 59.5468C166.777 59.6162 166.938 59.6495 167.101 59.6439C167.31 59.6441 167.516 59.5846 167.693 59.4724C167.891 59.3435 168.052 59.1636 168.158 58.9514L168.07 58.8828C167.984 58.9839 167.882 59.0701 167.768 59.1379Z" fill="#1D4042"/>
<path d="M171.114 58.3426C170.961 58.153 170.776 57.9912 170.568 57.8645C170.384 57.753 170.214 57.6198 170.062 57.4678C170.026 57.4268 170.006 57.3743 170.006 57.3199C170.006 57.2861 170.013 57.2527 170.027 57.222C170.041 57.1913 170.062 57.164 170.087 57.142C170.113 57.1167 170.144 57.0968 170.178 57.0836C170.212 57.0703 170.248 57.0639 170.285 57.0648C170.421 57.0693 170.551 57.1208 170.653 57.2106C170.814 57.3631 170.936 57.551 171.011 57.7594H171.108L171.065 56.8568H170.968C170.942 56.902 170.909 56.9425 170.87 56.9769C170.846 56.9922 170.817 56.9997 170.788 56.9983C170.744 56.9952 170.701 56.9804 170.664 56.9554C170.536 56.8883 170.393 56.853 170.248 56.8525C170.135 56.8449 170.021 56.8631 169.915 56.9058C169.81 56.9486 169.715 57.0146 169.639 57.0991C169.502 57.2506 169.425 57.4477 169.425 57.6522C169.424 57.8391 169.49 58.0201 169.611 58.1625C169.777 58.3389 169.965 58.4931 170.171 58.6213C170.308 58.7066 170.434 58.8073 170.548 58.9214C170.605 58.9856 170.636 59.0692 170.634 59.1551C170.634 59.1928 170.627 59.2301 170.612 59.2647C170.597 59.2994 170.576 59.3307 170.548 59.3567C170.49 59.4111 170.413 59.4411 170.334 59.4403C170.173 59.4313 170.021 59.3652 169.905 59.2538C169.74 59.1027 169.62 58.9091 169.558 58.6942H169.461L169.506 59.644H169.598C169.641 59.5496 169.693 59.5025 169.755 59.5025C169.795 59.5077 169.834 59.5185 169.871 59.5346C170.031 59.6026 170.203 59.6425 170.377 59.6525C170.532 59.6546 170.685 59.6154 170.821 59.5389C170.954 59.4644 171.062 59.3516 171.131 59.2152C171.202 59.0831 171.239 58.936 171.241 58.7864C171.245 58.629 171.201 58.474 171.114 58.3426Z" fill="#1D4042"/>
<path d="M94.5493 56.5245C94.6071 56.5252 94.6644 56.5141 94.7178 56.492C94.7713 56.4699 94.8197 56.4372 94.8601 56.3959C94.9016 56.3565 94.9345 56.3089 94.9566 56.2561C94.9787 56.2033 94.9897 56.1465 94.9888 56.0893C94.9902 56.0312 94.9799 55.9734 94.9583 55.9194C94.9367 55.8654 94.9044 55.8164 94.8633 55.7752C94.8222 55.7341 94.7732 55.7018 94.7192 55.6803C94.6652 55.6587 94.6074 55.6483 94.5493 55.6498C94.492 55.6489 94.4352 55.6598 94.3825 55.682C94.3297 55.7041 94.2821 55.737 94.2427 55.7784C94.2014 55.8189 94.1687 55.8673 94.1466 55.9207C94.1245 55.9742 94.1134 56.0315 94.114 56.0893C94.114 56.203 94.1592 56.3121 94.2396 56.3925C94.32 56.4729 94.4291 56.5181 94.5428 56.5181L94.5493 56.5245Z" fill="#1D4042"/>
<path d="M155.461 56.5247C155.519 56.5253 155.577 56.5142 155.63 56.4921C155.683 56.47 155.732 56.4373 155.772 56.3961C155.814 56.3566 155.847 56.309 155.869 56.2562C155.891 56.2035 155.902 56.1467 155.901 56.0895C155.902 56.0323 155.892 55.9753 155.871 55.9221C155.85 55.8688 155.819 55.8203 155.779 55.7793C155.739 55.7383 155.691 55.7058 155.639 55.6836C155.586 55.6614 155.529 55.6499 155.472 55.65C155.415 55.649 155.358 55.66 155.305 55.6821C155.253 55.7043 155.205 55.7371 155.166 55.7786C155.124 55.8191 155.092 55.8675 155.069 55.9209C155.047 55.9743 155.036 56.0317 155.037 56.0895C155.037 56.2032 155.082 56.3123 155.162 56.3927C155.243 56.4731 155.352 56.5183 155.466 56.5183L155.461 56.5247Z" fill="#1D4042"/>
<path d="M164.014 56.5247C164.071 56.5253 164.129 56.5142 164.182 56.4921C164.236 56.47 164.284 56.4373 164.325 56.3961C164.366 56.3566 164.399 56.309 164.421 56.2562C164.443 56.2035 164.454 56.1467 164.453 56.0895C164.455 56.0323 164.445 55.9753 164.424 55.9221C164.403 55.8688 164.371 55.8203 164.331 55.7793C164.291 55.7383 164.244 55.7058 164.191 55.6836C164.138 55.6614 164.082 55.6499 164.024 55.65C163.967 55.649 163.91 55.66 163.858 55.6821C163.805 55.7043 163.757 55.7371 163.718 55.7786C163.676 55.8191 163.644 55.8675 163.622 55.9209C163.6 55.9743 163.589 56.0317 163.589 56.0895C163.589 56.2032 163.634 56.3123 163.715 56.3927C163.795 56.4731 163.904 56.5183 164.018 56.5183L164.014 56.5247Z" fill="#1D4042"/>
</svg>
