<svg width="21" height="21" viewBox="0 0 21 21" fill="none" xmlns="http://www.w3.org/2000/svg">
<path d="M13.4831 3.93746C13.4831 3.31699 13.3082 2.7091 12.9785 2.18348C12.6488 1.65786 12.1777 1.2358 11.6191 0.965695C11.0605 0.695589 10.4371 0.588374 9.82036 0.656344C9.20364 0.724315 8.61855 0.964718 8.13219 1.34999C7.64584 1.73526 7.2779 2.2498 7.07059 2.8346C6.86327 3.4194 6.82496 4.05079 6.96006 4.65637C7.09515 5.26195 7.39818 5.81719 7.83439 6.25844C8.27059 6.69968 8.82233 7.00906 9.42631 7.15109V18.4545L10.182 19.7272L10.9377 18.4545V7.15109C11.6611 6.97893 12.3056 6.56833 12.7673 5.9854C13.2291 5.40246 13.4812 4.6811 13.4831 3.93746ZM11.1365 3.69882C10.9713 3.69882 10.8099 3.64983 10.6725 3.55806C10.5352 3.46628 10.4281 3.33584 10.3649 3.18322C10.3017 3.0306 10.2851 2.86267 10.3174 2.70065C10.3496 2.53863 10.4291 2.38981 10.5459 2.273C10.6628 2.15619 10.8116 2.07664 10.9736 2.04441C11.1356 2.01219 11.3036 2.02873 11.4562 2.09194C11.6088 2.15516 11.7392 2.26221 11.831 2.39956C11.9228 2.53692 11.9718 2.6984 11.9718 2.86359C11.9718 3.08511 11.8838 3.29755 11.7271 3.45419C11.5705 3.61082 11.3581 3.69882 11.1365 3.69882Z" fill="white"/>
</svg>
