<svg width="15" height="21" viewBox="0 0 15 21" fill="none" xmlns="http://www.w3.org/2000/svg">
<path fill-rule="evenodd" clip-rule="evenodd" d="M0 7.17188C0 3.17875 3.39479 0 7.5 0C11.6052 0 15 3.17875 15 7.17188C15 9.42303 13.7829 12.2082 12.4495 14.6155C11.0963 17.059 9.53774 19.2603 8.70195 20.3891C8.56404 20.5776 8.38371 20.731 8.17551 20.837C7.96625 20.9435 7.73479 20.999 7.5 20.999C7.26521 20.999 7.03375 20.9435 6.8245 20.837C6.61627 20.731 6.43592 20.5776 6.29801 20.389C5.46224 19.2598 3.90373 17.0577 2.55043 14.6139C1.21719 12.2064 0 9.42143 0 7.17188ZM7.5 1.5C4.15209 1.5 1.5 4.07656 1.5 7.17188C1.5 9.00045 2.53281 11.4859 3.86265 13.8872C5.16887 16.246 6.68184 18.386 7.5 19.4917C8.31813 18.3865 9.83113 16.2473 11.1374 13.8888C12.4671 11.4878 13.5 9.00213 13.5 7.17188C13.5 4.07656 10.8479 1.5 7.5 1.5Z" fill="white"/>
</svg>
