<svg width="17" height="16" viewBox="0 0 17 16" fill="none" xmlns="http://www.w3.org/2000/svg">
<path d="M6.58959 3.32937C5.84142 3.46417 5.15383 3.80206 4.61483 4.2998C4.07582 4.79755 3.70991 5.43249 3.56394 6.12338M6.58959 0.5C5.03519 0.659461 3.5857 1.30225 2.47912 2.32283C1.37254 3.34341 0.674637 4.68111 0.5 6.11631M1.26599 11.7609V13.8829C1.26512 14.0799 1.30882 14.2749 1.39428 14.4554C1.47974 14.6359 1.60509 14.798 1.76228 14.9311C1.91948 15.0643 2.10507 15.1657 2.30715 15.2288C2.50924 15.2919 2.72337 15.3154 2.93583 15.2976C5.2929 15.0611 7.55703 14.3174 9.54629 13.1261C11.397 12.0401 12.9662 10.5911 14.1422 8.88202C15.4367 7.03671 16.2424 4.93575 16.4938 2.74935C16.5129 2.55375 16.4878 2.35661 16.4199 2.17048C16.352 1.98435 16.2429 1.81332 16.0995 1.66826C15.9561 1.52321 15.7816 1.40732 15.587 1.32796C15.3925 1.24861 15.1822 1.20753 14.9695 1.20734H12.6715C12.2998 1.20397 11.9394 1.32553 11.6575 1.54937C11.3757 1.77321 11.1916 2.08406 11.1395 2.42397C11.0426 3.10307 10.8627 3.76986 10.6034 4.41161C10.5003 4.66479 10.478 4.93994 10.5391 5.20446C10.6002 5.46898 10.7421 5.71179 10.948 5.90411L11.9208 6.80243C10.8304 8.5733 9.24261 10.0395 7.32493 11.0465L6.35213 10.1482C6.14387 9.95799 5.88093 9.82693 5.59448 9.77051C5.30803 9.7141 5.01007 9.73469 4.7359 9.82986C4.04094 10.0693 3.31888 10.2354 2.58348 10.325C2.21139 10.3735 1.87157 10.5465 1.62865 10.8113C1.38574 11.076 1.25666 11.414 1.26599 11.7609Z" stroke="white" stroke-linecap="round" stroke-linejoin="round"/>
</svg>
