<svg width="199" height="544" viewBox="0 0 199 544" fill="none" xmlns="http://www.w3.org/2000/svg">
<g opacity="0.39">
<path d="M-39.8824 55.3934C-37.7918 27.2539 -0.537207 3.8391 19.4281 -13.5966C48.1112 -38.6838 68.6514 -71.9035 109.481 -39.6769C136 -18.7708 159.844 8.48024 186.833 29.2504C200.934 42.6094 196.241 60.2854 194.412 77.5434C193.586 80.5434 191.077 81.1392 188.318 80.0626C183.854 78.3169 170.38 65.7733 165.833 61.8011C140.098 39.2958 115.209 12.6719 88.4808 -8.35959C81.4668 -13.8892 79.3971 -16.6593 71.0869 -10.7115C48.2993 5.63702 26.7975 32.5327 3.72763 49.6025C0.591723 52.9265 -1.5616 56.7837 -0.108631 61.5294C0.278131 62.7837 16.7103 78.2542 18.8323 79.7385C20.6197 81.0138 21.9682 82.2682 24.3828 81.8291C26.3689 81.5156 41.9544 67.7907 45.0066 65.2088C49.9509 61.0276 71.296 40.3306 74.9127 39.3794C77.9305 38.4599 81.1874 38.7485 83.9964 40.1843C85.3971 40.9892 100.439 54.9335 101.432 56.4178C102.948 58.6757 103.815 59.5537 102.906 62.6165L26.0553 128.711C21.3932 131.282 18.2469 128.376 14.7451 125.575C-2.69053 111.652 -37.5932 83.6166 -39.8824 61.1949C-40.0392 59.2642 -40.0392 57.3241 -39.8824 55.3934Z" stroke="#1D4042" stroke-width="2"/>
<path d="M-35.2189 134.273C-26.6373 139.633 -18.4744 145.637 -10.8007 152.231C16.304 175.228 41.7885 203.096 69.3845 225.34C73.1999 228.413 76.9316 232.406 82.1686 229.939C89.9352 222.559 98.5067 216.078 106.618 209.096C117.646 199.604 148.43 174.883 155.434 165.015C164.444 152.409 145.085 141.057 135.061 137.043C133.399 137.127 129.73 140.095 128.131 141.224C114.677 151.008 100.273 168.319 86.7575 176.493C83.1721 178.657 80.747 180.34 76.3044 178.96C72.6772 177.82 58.2311 164.461 57.1022 160.981C54.7189 153.663 61.5552 149.315 66.4368 144.642C86.6007 125.336 109.294 108.454 130.117 89.879C135.667 87.5794 139.023 89.3146 143.706 91.9696C152.277 96.9348 184.107 125.639 190.284 133.646C200.988 147.517 198.877 172.657 188.016 185.838C173.246 203.88 137.758 234.329 118.775 249.089C93.6878 268.615 74.6947 278.19 46.7642 256.04C20.7466 235.417 -3.3372 208.155 -29.3966 187.05C-42.442 170.796 -39.6824 153.224 -35.2189 134.263V134.273Z" stroke="#1D4042" stroke-width="2"/>
</g>
<g opacity="0.39">
<path d="M-39.8824 381.181C-37.7918 353.042 -0.537207 329.627 19.4281 312.191C48.1112 287.104 68.6514 253.884 109.481 286.111C136 307.017 159.844 334.268 186.833 355.038C200.934 368.397 196.241 386.073 194.412 403.331C193.586 406.331 191.077 406.927 188.318 405.851C183.854 404.105 170.38 391.561 165.833 387.589C140.098 365.084 115.209 338.46 88.4808 317.428C81.4668 311.899 79.3971 309.129 71.0869 315.076C48.2993 331.425 26.7975 358.321 3.72763 375.39C0.591723 378.714 -1.5616 382.572 -0.108631 387.317C0.278131 388.572 16.7103 404.042 18.8323 405.526C20.6197 406.802 21.9682 408.056 24.3828 407.617C26.3689 407.304 41.9544 393.579 45.0066 390.997C49.9509 386.816 71.296 366.119 74.9127 365.167C77.9305 364.248 81.1874 364.536 83.9964 365.972C85.3971 366.777 100.439 380.721 101.432 382.206C102.948 384.464 103.815 385.342 102.906 388.404L26.0553 454.499C21.3932 457.07 18.2469 454.164 14.7451 451.363C-2.69053 437.44 -37.5932 409.405 -39.8824 386.983C-40.0392 385.052 -40.0392 383.112 -39.8824 381.181Z" stroke="#1D4042" stroke-width="2"/>
<path d="M-35.2189 460.061C-26.6373 465.421 -18.4744 471.425 -10.8007 478.019C16.304 501.016 41.7885 528.884 69.3845 551.128C73.1999 554.201 76.9316 558.194 82.1686 555.727C89.9352 548.347 98.5067 541.866 106.618 534.884C117.646 525.392 148.43 500.671 155.434 490.803C164.444 478.197 145.085 466.845 135.061 462.831C133.399 462.915 129.73 465.883 128.131 467.012C114.677 476.796 100.273 494.107 86.7575 502.281C83.1721 504.445 80.747 506.128 76.3044 504.748C72.6772 503.608 58.2311 490.249 57.1022 486.769C54.7189 479.451 61.5552 475.103 66.4368 470.43C86.6007 451.124 109.294 434.242 130.117 415.667C135.667 413.367 139.023 415.103 143.706 417.758C152.277 422.723 184.107 451.427 190.284 459.434C200.988 473.305 198.877 498.445 188.016 511.626C173.246 529.668 137.758 560.117 118.775 574.877C93.6878 594.403 74.6947 603.978 46.7642 581.828C20.7466 561.204 -3.3372 533.943 -29.3966 512.838C-42.442 496.584 -39.6824 479.012 -35.2189 460.051V460.061Z" stroke="#1D4042" stroke-width="2"/>
</g>
</svg>
