<svg width="199" height="544" viewBox="0 0 199 544" fill="none" xmlns="http://www.w3.org/2000/svg">
<g opacity="0.39">
<path d="M1.1176 55.3934C3.20821 27.2539 40.4628 3.8391 60.4281 -13.5966C89.1112 -38.6838 109.651 -71.9035 150.481 -39.6769C177 -18.7708 200.844 8.48024 227.833 29.2504C241.934 42.6094 237.241 60.2854 235.412 77.5434C234.586 80.5434 232.077 81.1392 229.318 80.0626C224.854 78.3169 211.38 65.7733 206.833 61.8011C181.098 39.2958 156.209 12.6719 129.481 -8.35959C122.467 -13.8892 120.397 -16.6593 112.087 -10.7115C89.2993 5.63702 67.7975 32.5327 44.7276 49.6025C41.5917 52.9265 39.4384 56.7837 40.8914 61.5294C41.2781 62.7837 57.7103 78.2542 59.8323 79.7385C61.6197 81.0138 62.9682 82.2682 65.3828 81.8291C67.3689 81.5156 82.9544 67.7907 86.0066 65.2088C90.9509 61.0276 112.296 40.3306 115.913 39.3794C118.93 38.4599 122.187 38.7485 124.996 40.1843C126.397 40.9892 141.439 54.9335 142.432 56.4178C143.948 58.6757 144.815 59.5537 143.906 62.6165L67.0553 128.711C62.3932 131.282 59.2469 128.376 55.7451 125.575C38.3095 111.652 3.40681 83.6166 1.1176 61.1949C0.9608 59.2642 0.9608 57.3241 1.1176 55.3934Z" stroke="#1D4042" stroke-width="2"/>
<path d="M5.78106 134.273C14.3627 139.633 22.5256 145.637 30.1993 152.231C57.304 175.228 82.7885 203.096 110.385 225.34C114.2 228.413 117.932 232.406 123.169 229.939C130.935 222.559 139.507 216.078 147.618 209.096C158.646 199.604 189.43 174.883 196.434 165.015C205.444 152.409 186.085 141.057 176.061 137.043C174.399 137.127 170.73 140.095 169.131 141.224C155.677 151.008 141.273 168.319 127.757 176.493C124.172 178.657 121.747 180.34 117.304 178.96C113.677 177.82 99.2311 164.461 98.1022 160.981C95.7189 153.663 102.555 149.315 107.437 144.642C127.601 125.336 150.294 108.454 171.117 89.879C176.667 87.5794 180.023 89.3146 184.706 91.9696C193.277 96.9348 225.107 125.639 231.284 133.646C241.988 147.517 239.877 172.657 229.016 185.838C214.246 203.88 178.758 234.329 159.775 249.089C134.688 268.615 115.695 278.19 87.7642 256.04C61.7466 235.417 37.6628 208.155 11.6034 187.05C-1.44198 170.796 1.31762 153.224 5.78106 134.263V134.273Z" stroke="#1D4042" stroke-width="2"/>
</g>
<g opacity="0.39">
<path d="M1.1176 381.181C3.20821 353.042 40.4628 329.627 60.4281 312.191C89.1112 287.104 109.651 253.884 150.481 286.111C177 307.017 200.844 334.268 227.833 355.038C241.934 368.397 237.241 386.073 235.412 403.331C234.586 406.331 232.077 406.927 229.318 405.851C224.854 404.105 211.38 391.561 206.833 387.589C181.098 365.084 156.209 338.46 129.481 317.428C122.467 311.899 120.397 309.129 112.087 315.076C89.2993 331.425 67.7975 358.321 44.7276 375.39C41.5917 378.714 39.4384 382.572 40.8914 387.317C41.2781 388.572 57.7103 404.042 59.8323 405.526C61.6197 406.802 62.9682 408.056 65.3828 407.617C67.3689 407.304 82.9544 393.579 86.0066 390.997C90.9509 386.816 112.296 366.119 115.913 365.167C118.93 364.248 122.187 364.536 124.996 365.972C126.397 366.777 141.439 380.721 142.432 382.206C143.948 384.464 144.815 385.342 143.906 388.404L67.0553 454.499C62.3932 457.07 59.2469 454.164 55.7451 451.363C38.3095 437.44 3.40681 409.405 1.1176 386.983C0.9608 385.052 0.9608 383.112 1.1176 381.181Z" stroke="#1D4042" stroke-width="2"/>
<path d="M5.78106 460.061C14.3627 465.421 22.5256 471.425 30.1993 478.019C57.304 501.016 82.7885 528.884 110.385 551.128C114.2 554.201 117.932 558.194 123.169 555.727C130.935 548.347 139.507 541.866 147.618 534.884C158.646 525.392 189.43 500.671 196.434 490.803C205.444 478.197 186.085 466.845 176.061 462.831C174.399 462.915 170.73 465.883 169.131 467.012C155.677 476.796 141.273 494.107 127.757 502.281C124.172 504.445 121.747 506.128 117.304 504.748C113.677 503.608 99.2311 490.249 98.1022 486.769C95.7189 479.451 102.555 475.103 107.437 470.43C127.601 451.124 150.294 434.242 171.117 415.667C176.667 413.367 180.023 415.103 184.706 417.758C193.277 422.723 225.107 451.427 231.284 459.434C241.988 473.305 239.877 498.445 229.016 511.626C214.246 529.668 178.758 560.117 159.775 574.877C134.688 594.403 115.695 603.978 87.7642 581.828C61.7466 561.204 37.6628 533.943 11.6034 512.838C-1.44198 496.584 1.31762 479.012 5.78106 460.051V460.061Z" stroke="#1D4042" stroke-width="2"/>
</g>
</svg>
