<svg width="24" height="24" viewBox="0 0 24 24" fill="none" xmlns="http://www.w3.org/2000/svg">
<path fill-rule="evenodd" clip-rule="evenodd" d="M12.5 6C13.1412 6 13.799 6.0165 14.4365 6.0435L15.1895 6.0795L15.9103 6.12225L16.5853 6.168L17.2017 6.216C17.8708 6.26721 18.5003 6.55271 18.9796 7.02228C19.459 7.49185 19.7573 8.11541 19.8223 8.78325L19.8522 9.102L19.9085 9.7845C19.961 10.4917 20 11.2628 20 12C20 12.7372 19.961 13.5083 19.9085 14.2155L19.8522 14.898C19.8425 15.0075 19.8328 15.1132 19.8223 15.2167C19.7573 15.8847 19.4588 16.5084 18.9794 16.9779C18.4999 17.4475 17.8702 17.733 17.201 17.784L16.586 17.8312L15.911 17.8778L15.1895 17.9205L14.4365 17.9565C13.7914 17.9845 13.1457 17.999 12.5 18C11.8543 17.999 11.2086 17.9845 10.5635 17.9565L9.8105 17.9205L9.08975 17.8778L8.41475 17.8312L7.79825 17.784C7.12921 17.7328 6.49966 17.4473 6.02035 16.9777C5.54105 16.5082 5.24268 15.8846 5.17775 15.2167L5.14775 14.898L5.0915 14.2155C5.03415 13.4784 5.00363 12.7394 5 12C5 11.2628 5.039 10.4917 5.0915 9.7845L5.14775 9.102C5.1575 8.9925 5.16725 8.88675 5.17775 8.78325C5.24266 8.11552 5.54091 7.49206 6.02007 7.02251C6.49923 6.55295 7.1286 6.26738 7.7975 6.216L8.41325 6.168L9.08825 6.12225L9.80975 6.0795L10.5627 6.0435C11.2081 6.01547 11.854 6.00097 12.5 6ZM11 10.1812V13.8188C11 14.1652 11.375 14.3812 11.675 14.2087L14.825 12.39C14.8935 12.3505 14.9505 12.2937 14.9901 12.2253C15.0297 12.1568 15.0505 12.0791 15.0505 12C15.0505 11.9209 15.0297 11.8432 14.9901 11.7747C14.9505 11.7063 14.8935 11.6495 14.825 11.61L11.675 9.792C11.6066 9.75249 11.5289 9.7317 11.4499 9.73171C11.3709 9.73172 11.2933 9.75254 11.2249 9.79207C11.1565 9.8316 11.0997 9.88845 11.0602 9.9569C11.0207 10.0253 10.9999 10.103 11 10.182" fill="#1D4042"/>
</svg>
