<svg width="25" height="25" viewBox="0 0 25 25" fill="none" xmlns="http://www.w3.org/2000/svg">
<path fill-rule="evenodd" clip-rule="evenodd" d="M2.73946 8.08617C3.02596 7.79966 3.41455 7.6387 3.81973 7.6387H20.6249C21.0301 7.6387 21.4186 7.79966 21.7052 8.08617C21.9917 8.37268 22.1526 8.76126 22.1526 9.16644V19.5384C22.1526 21.4261 20.5583 22.9161 18.7152 22.9161H5.72941C3.86382 22.9161 2.29199 21.3443 2.29199 19.4787V9.16644C2.29199 8.76126 2.45295 8.37267 2.73946 8.08617ZM20.6249 9.16644L3.81973 9.16644L3.81973 19.4787C3.81973 20.5005 4.70757 21.3884 5.72941 21.3884H18.7152C19.7596 21.3884 20.6249 20.538 20.6249 19.5384V9.16644Z" fill="white"/>
<path fill-rule="evenodd" clip-rule="evenodd" d="M12.2221 3.05548C11.2091 3.05548 10.2377 3.45788 9.5214 4.17414C8.80514 4.89041 8.40274 5.86188 8.40274 6.87483V8.40257C8.40274 8.82445 8.06074 9.16644 7.63887 9.16644C7.217 9.16644 6.875 8.82445 6.875 8.40257V6.87483C6.875 5.4567 7.43835 4.09664 8.44113 3.09387C9.4439 2.09109 10.804 1.52774 12.2221 1.52774C13.6402 1.52774 15.0003 2.09109 16.0031 3.09387C17.0058 4.09664 17.5692 5.4567 17.5692 6.87483V8.40257C17.5692 8.82445 17.2272 9.16644 16.8053 9.16644C16.3834 9.16644 16.0414 8.82445 16.0414 8.40257V6.87483C16.0414 5.86188 15.639 4.89041 14.9228 4.17414C14.2065 3.45788 13.235 3.05548 12.2221 3.05548Z" fill="white"/>
</svg>
