<svg width="14" height="15" viewBox="0 0 14 15" fill="none" xmlns="http://www.w3.org/2000/svg">
<path d="M8.12258 12.8454C7.88969 13.3588 7.73574 13.9158 7.67676 14.5001L12.6053 13.4586C12.8382 12.9454 12.9921 12.3882 13.0512 11.804L8.12258 12.8454Z" fill="#393D46"/>
<path d="M12.6055 10.3384C12.8384 9.82521 12.9923 9.26801 13.0513 8.6838L9.2121 9.49548V7.93514L12.6054 7.21832C12.8383 6.7051 12.9922 6.1479 13.0512 5.56369L9.21199 6.37468V0.763207C8.6237 1.09155 8.10125 1.52861 7.67656 2.04414V6.69921L6.14113 7.02363V0C5.55285 0.328226 5.0304 0.7654 4.6057 1.28094V7.34793L1.17018 8.07363C0.937279 8.58686 0.783213 9.14406 0.724118 9.72826L4.6057 8.90827V10.8732L0.445825 11.752C0.212928 12.2652 0.058979 12.8224 0 13.4066L4.35423 12.4868C4.70868 12.4135 5.01333 12.2052 5.2114 11.9185L6.00994 10.7417V10.7414C6.09283 10.6197 6.14113 10.4729 6.14113 10.3148V8.58386L7.67656 8.25944V11.3801L12.6054 10.3382L12.6055 10.3384Z" fill="#393D46"/>
</svg>
